<?xml version="1.0" encoding="UTF-8" standalone="no"?>
<!DOCTYPE svg PUBLIC "-//W3C//DTD SVG 1.1//EN"
 "http://www.w3.org/Graphics/SVG/1.1/DTD/svg11.dtd">
<!-- Generated by graphviz version 2.43.0 (0)
 -->
<!-- Title: ListInsert_Internal Pages: 1 -->
<svg width="360pt" height="118pt"
 viewBox="0.00 0.00 360.00 117.91" xmlns="http://www.w3.org/2000/svg" xmlns:xlink="http://www.w3.org/1999/xlink">
<g id="graph0" class="graph" transform="scale(1 1) rotate(0) translate(4 113.91)">
<title>ListInsert_Internal</title>
<polygon fill="white" stroke="transparent" points="-4,4 -4,-113.91 356,-113.91 356,4 -4,4"/>
<!-- Node1 -->
<g id="node1" class="node">
<title>Node1</title>
<g id="a_node1"><a xlink:title=" ">
<polygon fill="#bfbfbf" stroke="black" points="248,-57.5 248,-76.5 352,-76.5 352,-57.5 248,-57.5"/>
<text text-anchor="middle" x="300" y="-64.5" font-family="Helvetica,sans-Serif" font-size="10.00">ListInsert_Internal</text>
</a>
</g>
</g>
<!-- Node2 -->
<g id="node2" class="node">
<title>Node2</title>
<g id="a_node2"><a xlink:href="list_8h.html#ac56df94c6dff4c7d05afdaa7669409d2" target="_top" xlink:title=" ">
<polygon fill="white" stroke="black" points="4.5,-85.5 4.5,-104.5 89.5,-104.5 89.5,-85.5 4.5,-85.5"/>
<text text-anchor="middle" x="47" y="-92.5" font-family="Helvetica,sans-Serif" font-size="10.00">ListInsertAfter</text>
</a>
</g>
</g>
<!-- Node1&#45;&gt;Node2 -->
<g id="edge1" class="edge">
<title>Node1&#45;&gt;Node2</title>
<path fill="none" stroke="midnightblue" d="M273.51,-81.47C256.64,-90.2 233.71,-100.46 212,-105 170.95,-113.57 122.97,-109 89.55,-103.56"/>
<polygon fill="midnightblue" stroke="midnightblue" points="275.51,-84.37 282.68,-76.57 272.21,-78.2 275.51,-84.37"/>
</g>
<!-- Node3 -->
<g id="node3" class="node">
<title>Node3</title>
<g id="a_node3"><a xlink:href="list_8h.html#a06dd8071a4dd95526a9b8612900dd9cb" target="_top" xlink:title=" ">
<polygon fill="white" stroke="black" points="0,-28.5 0,-47.5 94,-47.5 94,-28.5 0,-28.5"/>
<text text-anchor="middle" x="47" y="-35.5" font-family="Helvetica,sans-Serif" font-size="10.00">ListInsertBefore</text>
</a>
</g>
</g>
<!-- Node1&#45;&gt;Node3 -->
<g id="edge2" class="edge">
<title>Node1&#45;&gt;Node3</title>
<path fill="none" stroke="midnightblue" d="M237.85,-59.93C193.61,-54.82 134.76,-48.02 94.37,-43.36"/>
<polygon fill="midnightblue" stroke="midnightblue" points="237.57,-63.43 247.9,-61.1 238.37,-56.47 237.57,-63.43"/>
</g>
<!-- Node4 -->
<g id="node4" class="node">
<title>Node4</title>
<g id="a_node4"><a xlink:href="list_8h.html#a7c5ff601bc85471b4148a1c4c15787ae" target="_top" xlink:title=" ">
<polygon fill="white" stroke="black" points="130.5,-76.5 130.5,-95.5 211.5,-95.5 211.5,-76.5 130.5,-76.5"/>
<text text-anchor="middle" x="171" y="-83.5" font-family="Helvetica,sans-Serif" font-size="10.00">ListPushBack</text>
</a>
</g>
</g>
<!-- Node1&#45;&gt;Node4 -->
<g id="edge3" class="edge">
<title>Node1&#45;&gt;Node4</title>
<path fill="none" stroke="midnightblue" d="M237.79,-76.16C228.94,-77.48 220.04,-78.81 211.76,-80.05"/>
<polygon fill="midnightblue" stroke="midnightblue" points="238.34,-79.61 247.71,-74.67 237.3,-72.69 238.34,-79.61"/>
</g>
<!-- Node5 -->
<g id="node5" class="node">
<title>Node5</title>
<g id="a_node5"><a xlink:href="list_8h.html#afe4e636b84899e781aae6af9456fd88d" target="_top" xlink:title=" ">
<polygon fill="white" stroke="black" points="130,-0.5 130,-19.5 212,-19.5 212,-0.5 130,-0.5"/>
<text text-anchor="middle" x="171" y="-7.5" font-family="Helvetica,sans-Serif" font-size="10.00">ListPushFront</text>
</a>
</g>
</g>
<!-- Node1&#45;&gt;Node5 -->
<g id="edge5" class="edge">
<title>Node1&#45;&gt;Node5</title>
<path fill="none" stroke="midnightblue" d="M268.35,-53.24C245.14,-42.83 213.86,-28.79 193.33,-19.57"/>
<polygon fill="midnightblue" stroke="midnightblue" points="267.19,-56.56 277.74,-57.46 270.05,-50.17 267.19,-56.56"/>
</g>
<!-- Node4&#45;&gt;Node2 -->
<g id="edge4" class="edge">
<title>Node4&#45;&gt;Node2</title>
<path fill="none" stroke="midnightblue" d="M120.34,-89.66C110.1,-90.42 99.42,-91.21 89.51,-91.94"/>
<polygon fill="midnightblue" stroke="midnightblue" points="120.67,-93.15 130.39,-88.92 120.16,-86.17 120.67,-93.15"/>
</g>
<!-- Node5&#45;&gt;Node3 -->
<g id="edge6" class="edge">
<title>Node5&#45;&gt;Node3</title>
<path fill="none" stroke="midnightblue" d="M119.81,-21.52C109.73,-23.83 99.24,-26.24 89.5,-28.48"/>
<polygon fill="midnightblue" stroke="midnightblue" points="120.75,-24.89 129.71,-19.25 119.18,-18.07 120.75,-24.89"/>
</g>
</g>
</svg>
