<?xml version="1.0" encoding="UTF-8" standalone="no"?>
<!DOCTYPE svg PUBLIC "-//W3C//DTD SVG 1.1//EN"
 "http://www.w3.org/Graphics/SVG/1.1/DTD/svg11.dtd">
<!-- Generated by graphviz version 2.43.0 (0)
 -->
<!-- Title: ListVerify Pages: 1 -->
<!--zoomable 978 -->
<svg id="main" version="1.1" xmlns="http://www.w3.org/2000/svg" xmlns:xlink="http://www.w3.org/1999/xlink" xml:space="preserve" onload="init(evt)">
<style type="text/css"><![CDATA[
.edge:hover path { stroke: red; }
.edge:hover polygon { stroke: red; fill: red; }
]]></style>
<script type="text/javascript"><![CDATA[
var edges = document.getElementsByTagName('g');
if (edges && edges.length) {
  for (var i=0;i<edges.length;i++) {
    if (edges[i].id.substr(0,4)=='edge') {
      edges[i].setAttribute('class','edge');
    }
  }
}
]]></script>
        <defs>
                <circle id="rim" cx="0" cy="0" r="7"/>
                <circle id="rim2" cx="0" cy="0" r="3.5"/>
                <g id="zoomPlus">
                        <use xlink:href="#rim" fill="#404040">
                                <set attributeName="fill" to="#808080" begin="zoomplus.mouseover" end="zoomplus.mouseout"/>
                        </use>
                        <path d="M-4,0h8M0,-4v8" fill="none" stroke="white" stroke-width="1.5" pointer-events="none"/>
                </g>
                <g id="zoomMin">
                        <use xlink:href="#rim" fill="#404040">
                                <set attributeName="fill" to="#808080" begin="zoomminus.mouseover" end="zoomminus.mouseout"/>
                        </use>
                        <path d="M-4,0h8" fill="none" stroke="white" stroke-width="1.5" pointer-events="none"/>
                </g>
                <g id="dirArrow">
                        <path fill="none" stroke="white" stroke-width="1.5" d="M0,-3.0v7 M-2.5,-0.5L0,-3.0L2.5,-0.5"/>
                </g>
               <g id="resetDef">
                       <use xlink:href="#rim2" fill="#404040">
                               <set attributeName="fill" to="#808080" begin="reset.mouseover" end="reset.mouseout"/>
                       </use>
               </g>
        </defs>

<script type="text/javascript">
var viewWidth = 598;
var viewHeight = 978;
var sectionId = 'dynsection-35';
</script>
<script xlink:href="svgpan.js"/>
<svg id="graph" class="graph">
<g id="viewport">
<title>ListVerify</title>
<polygon fill="white" stroke="transparent" points="-4,4 -4,-974 594,-974 594,4 -4,4"/>
<!-- Node1 -->
<g id="node1" class="node">
<title>Node1</title>
<g id="a_node1"><a xlink:title=" ">
<polygon fill="#bfbfbf" stroke="black" points="528,-437.5 528,-456.5 590,-456.5 590,-437.5 528,-437.5"/>
<text text-anchor="middle" x="559" y="-444.5" font-family="Helvetica,sans-Serif" font-size="10.00">ListVerify</text>
</a>
</g>
</g>
<!-- Node2 -->
<g id="node2" class="node">
<title>Node2</title>
<g id="a_node2"><a xlink:href="list_8h.html#afce1ade5264bd8b2c42ab71b4290c3ca" target="_top" xlink:title=" ">
<polygon fill="white" stroke="black" points="405,-950.5 405,-969.5 475,-969.5 475,-950.5 405,-950.5"/>
<text text-anchor="middle" x="440" y="-957.5" font-family="Helvetica,sans-Serif" font-size="10.00">GetIterator</text>
</a>
</g>
</g>
<!-- Node1&#45;&gt;Node2 -->
<g id="edge1" class="edge">
<title>Node1&#45;&gt;Node2</title>
<path fill="none" stroke="midnightblue" d="M557.99,-466.79C557.55,-549.41 551.92,-865.91 492,-941 487.64,-946.47 481.54,-950.36 475.07,-953.13"/>
<polygon fill="midnightblue" stroke="midnightblue" points="561.49,-466.75 558.02,-456.74 554.49,-466.73 561.49,-466.75"/>
</g>
<!-- Node3 -->
<g id="node3" class="node">
<title>Node3</title>
<g id="a_node3"><a xlink:href="list_8h.html#a5e9356622317d5e79d4ec5b3bb3d5793" target="_top" xlink:title=" ">
<polygon fill="white" stroke="black" points="389,-912.5 389,-931.5 491,-931.5 491,-912.5 389,-912.5"/>
<text text-anchor="middle" x="440" y="-919.5" font-family="Helvetica,sans-Serif" font-size="10.00">GetIterator_Value</text>
</a>
</g>
</g>
<!-- Node1&#45;&gt;Node3 -->
<g id="edge2" class="edge">
<title>Node1&#45;&gt;Node3</title>
<path fill="none" stroke="midnightblue" d="M557.53,-466.89C555.35,-544.76 543.9,-828.02 492,-898 487.34,-904.29 480.61,-908.99 473.56,-912.48"/>
<polygon fill="midnightblue" stroke="midnightblue" points="561.04,-466.67 557.8,-456.58 554.04,-466.49 561.04,-466.67"/>
</g>
<!-- Node4 -->
<g id="node4" class="node">
<title>Node4</title>
<g id="a_node4"><a xlink:href="list_8c.html#adfd8599d25d547782ffb93f50313c092" target="_top" xlink:title=" ">
<polygon fill="white" stroke="black" points="397.5,-722.5 397.5,-741.5 482.5,-741.5 482.5,-722.5 397.5,-722.5"/>
<text text-anchor="middle" x="440" y="-729.5" font-family="Helvetica,sans-Serif" font-size="10.00">isIteratorValid</text>
</a>
</g>
</g>
<!-- Node1&#45;&gt;Node4 -->
<g id="edge3" class="edge">
<title>Node1&#45;&gt;Node4</title>
<path fill="none" stroke="midnightblue" d="M554.85,-466.99C547.93,-507.29 528.95,-600.39 492,-670 481.02,-690.68 462.49,-710.92 451.04,-722.39"/>
<polygon fill="midnightblue" stroke="midnightblue" points="558.35,-467.31 556.53,-456.88 551.44,-466.17 558.35,-467.31"/>
</g>
<!-- Node5 -->
<g id="node5" class="node">
<title>Node5</title>
<g id="a_node5"><a xlink:href="list_8h.html#a6263ce01ab89d962cd70a40dff38c7f2" target="_top" xlink:title=" ">
<polygon fill="white" stroke="black" points="251,-836.5 251,-855.5 349,-855.5 349,-836.5 251,-836.5"/>
<text text-anchor="middle" x="300" y="-843.5" font-family="Helvetica,sans-Serif" font-size="10.00">IteratorDecrease</text>
</a>
</g>
</g>
<!-- Node1&#45;&gt;Node5 -->
<g id="edge11" class="edge">
<title>Node1&#45;&gt;Node5</title>
<path fill="none" stroke="midnightblue" d="M556.84,-466.79C552.61,-532.45 535.87,-741.75 492,-790 455.74,-829.89 392.74,-841.96 349.06,-845.3"/>
<polygon fill="midnightblue" stroke="midnightblue" points="560.35,-466.77 557.47,-456.58 553.36,-466.34 560.35,-466.77"/>
</g>
<!-- Node6 -->
<g id="node6" class="node">
<title>Node6</title>
<g id="a_node6"><a xlink:href="list_8h.html#a26b93b5ffd0d4dbc5c453478ded5ddf3" target="_top" xlink:title=" ">
<polygon fill="white" stroke="black" points="253,-798.5 253,-817.5 347,-817.5 347,-798.5 253,-798.5"/>
<text text-anchor="middle" x="300" y="-805.5" font-family="Helvetica,sans-Serif" font-size="10.00">IteratorIncrease</text>
</a>
</g>
</g>
<!-- Node1&#45;&gt;Node6 -->
<g id="edge12" class="edge">
<title>Node1&#45;&gt;Node6</title>
<path fill="none" stroke="midnightblue" d="M556.29,-466.86C550.7,-527.54 530.97,-708.94 492,-751 454.84,-791.11 390.79,-803.42 347.2,-806.97"/>
<polygon fill="midnightblue" stroke="midnightblue" points="559.8,-466.97 557.2,-456.7 552.83,-466.35 559.8,-466.97"/>
</g>
<!-- Node7 -->
<g id="node7" class="node">
<title>Node7</title>
<g id="a_node7"><a xlink:href="list_8h.html#a9ed9856ba60db767e2d2b2bd7f0d0ec9" target="_top" xlink:title=" ">
<polygon fill="white" stroke="black" points="140.5,-570.5 140.5,-589.5 201.5,-589.5 201.5,-570.5 140.5,-570.5"/>
<text text-anchor="middle" x="171" y="-577.5" font-family="Helvetica,sans-Serif" font-size="10.00">ListErase</text>
</a>
</g>
</g>
<!-- Node1&#45;&gt;Node7 -->
<g id="edge18" class="edge">
<title>Node1&#45;&gt;Node7</title>
<path fill="none" stroke="midnightblue" d="M555.1,-466.82C549.31,-498.41 533.16,-559.49 492,-588 399.94,-651.75 254.55,-610.19 196.82,-589.6"/>
<polygon fill="midnightblue" stroke="midnightblue" points="558.6,-467.07 556.78,-456.64 551.7,-465.93 558.6,-467.07"/>
</g>
<!-- Node8 -->
<g id="node8" class="node">
<title>Node8</title>
<g id="a_node8"><a xlink:href="list_8h.html#a7d48b3838b93a9d9c1f505d4d64772e5" target="_top" xlink:title=" ">
<polygon fill="white" stroke="black" points="261,-646.5 261,-665.5 339,-665.5 339,-646.5 261,-646.5"/>
<text text-anchor="middle" x="300" y="-653.5" font-family="Helvetica,sans-Serif" font-size="10.00">ListGetValue</text>
</a>
</g>
</g>
<!-- Node1&#45;&gt;Node8 -->
<g id="edge25" class="edge">
<title>Node1&#45;&gt;Node8</title>
<path fill="none" stroke="midnightblue" d="M557.34,-467.05C554.88,-505.75 543.57,-590.59 492,-632 448.74,-666.74 381.27,-666.51 339.18,-662.07"/>
<polygon fill="midnightblue" stroke="midnightblue" points="560.85,-466.77 557.85,-456.62 553.86,-466.43 560.85,-466.77"/>
</g>
<!-- Node9 -->
<g id="node9" class="node">
<title>Node9</title>
<g id="a_node9"><a xlink:href="list_8h.html#ac56df94c6dff4c7d05afdaa7669409d2" target="_top" xlink:title=" ">
<polygon fill="white" stroke="black" points="4.5,-622.5 4.5,-641.5 89.5,-641.5 89.5,-622.5 4.5,-622.5"/>
<text text-anchor="middle" x="47" y="-629.5" font-family="Helvetica,sans-Serif" font-size="10.00">ListInsertAfter</text>
</a>
</g>
</g>
<!-- Node1&#45;&gt;Node9 -->
<g id="edge33" class="edge">
<title>Node1&#45;&gt;Node9</title>
<path fill="none" stroke="midnightblue" d="M557.33,-466.77C554.56,-537.3 541.6,-775.23 492,-829 417.67,-909.57 351.38,-901.44 248,-865 136.89,-825.83 68.57,-680.65 51.96,-641.68"/>
<polygon fill="midnightblue" stroke="midnightblue" points="560.84,-466.73 557.71,-456.61 553.84,-466.47 560.84,-466.73"/>
</g>
<!-- Node10 -->
<g id="node10" class="node">
<title>Node10</title>
<g id="a_node10"><a xlink:href="list_8h.html#a06dd8071a4dd95526a9b8612900dd9cb" target="_top" xlink:title=" ">
<polygon fill="white" stroke="black" points="0,-375.5 0,-394.5 94,-394.5 94,-375.5 0,-375.5"/>
<text text-anchor="middle" x="47" y="-382.5" font-family="Helvetica,sans-Serif" font-size="10.00">ListInsertBefore</text>
</a>
</g>
</g>
<!-- Node1&#45;&gt;Node10 -->
<g id="edge34" class="edge">
<title>Node1&#45;&gt;Node10</title>
<path fill="none" stroke="midnightblue" d="M554.36,-427.65C547.71,-398.53 530.59,-344.35 492,-321 346.74,-233.11 126.91,-341.32 64.84,-375.38"/>
<polygon fill="midnightblue" stroke="midnightblue" points="550.94,-428.4 556.41,-437.47 557.79,-426.97 550.94,-428.4"/>
</g>
<!-- Node11 -->
<g id="node11" class="node">
<title>Node11</title>
<g id="a_node11"><a xlink:href="list_8h.html#af15780d26607314e4766307f392dce48" target="_top" xlink:title=" ">
<polygon fill="white" stroke="black" points="399,-228.5 399,-247.5 481,-247.5 481,-228.5 399,-228.5"/>
<text text-anchor="middle" x="440" y="-235.5" font-family="Helvetica,sans-Serif" font-size="10.00">isListBoosted</text>
</a>
</g>
</g>
<!-- Node1&#45;&gt;Node11 -->
<g id="edge10" class="edge">
<title>Node1&#45;&gt;Node11</title>
<path fill="none" stroke="midnightblue" d="M555.95,-427.26C551.14,-390.41 536.02,-310.52 492,-262 486.41,-255.84 478.91,-251.12 471.39,-247.57"/>
<polygon fill="midnightblue" stroke="midnightblue" points="552.47,-427.71 557.13,-437.23 559.43,-426.89 552.47,-427.71"/>
</g>
<!-- Node12 -->
<g id="node12" class="node">
<title>Node12</title>
<g id="a_node12"><a xlink:href="list_8h.html#ae08cf75c785f936bea85843acec83677" target="_top" xlink:title=" ">
<polygon fill="white" stroke="black" points="409,-190.5 409,-209.5 471,-209.5 471,-190.5 409,-190.5"/>
<text text-anchor="middle" x="440" y="-197.5" font-family="Helvetica,sans-Serif" font-size="10.00">ListBegin</text>
</a>
</g>
</g>
<!-- Node1&#45;&gt;Node12 -->
<g id="edge13" class="edge">
<title>Node1&#45;&gt;Node12</title>
<path fill="none" stroke="midnightblue" d="M557.94,-427.19C556.74,-383.75 547.83,-279.18 492,-219 486.41,-212.97 478.73,-208.85 471.02,-206.03"/>
<polygon fill="midnightblue" stroke="midnightblue" points="554.44,-427.36 558.11,-437.3 561.44,-427.25 554.44,-427.36"/>
</g>
<!-- Node13 -->
<g id="node13" class="node">
<title>Node13</title>
<g id="a_node13"><a xlink:href="list_8h.html#af9126e34a67c2824d1d39e820f01b345" target="_top" xlink:title=" ">
<polygon fill="white" stroke="black" points="409,-152.5 409,-171.5 471,-171.5 471,-152.5 409,-152.5"/>
<text text-anchor="middle" x="440" y="-159.5" font-family="Helvetica,sans-Serif" font-size="10.00">ListBoost</text>
</a>
</g>
</g>
<!-- Node1&#45;&gt;Node13 -->
<g id="edge14" class="edge">
<title>Node1&#45;&gt;Node13</title>
<path fill="none" stroke="midnightblue" d="M555.5,-427.24C548.18,-372.1 525.13,-218.12 492,-181 486.53,-174.87 478.88,-170.71 471.18,-167.89"/>
<polygon fill="midnightblue" stroke="midnightblue" points="552.07,-427.97 556.83,-437.43 559.01,-427.07 552.07,-427.97"/>
</g>
<!-- Node14 -->
<g id="node14" class="node">
<title>Node14</title>
<g id="a_node14"><a xlink:href="list_8h.html#af6f09665ab20fa6c0ad1fc6ead8e75ee" target="_top" xlink:title=" ">
<polygon fill="white" stroke="black" points="400,-114.5 400,-133.5 480,-133.5 480,-114.5 400,-114.5"/>
<text text-anchor="middle" x="440" y="-121.5" font-family="Helvetica,sans-Serif" font-size="10.00">ListConstruct</text>
</a>
</g>
</g>
<!-- Node1&#45;&gt;Node14 -->
<g id="edge15" class="edge">
<title>Node1&#45;&gt;Node14</title>
<path fill="none" stroke="midnightblue" d="M556.17,-427.25C550.21,-366.89 529.54,-186.33 492,-143 488.66,-139.14 484.46,-136.07 479.91,-133.62"/>
<polygon fill="midnightblue" stroke="midnightblue" points="552.7,-427.73 557.14,-437.35 559.67,-427.07 552.7,-427.73"/>
</g>
<!-- Node15 -->
<g id="node15" class="node">
<title>Node15</title>
<g id="a_node15"><a xlink:href="list_8h.html#a7b4f9425dd9701d97e30fe9ce5af3d7a" target="_top" xlink:title=" ">
<polygon fill="white" stroke="black" points="402.5,-76.5 402.5,-95.5 477.5,-95.5 477.5,-76.5 402.5,-76.5"/>
<text text-anchor="middle" x="440" y="-83.5" font-family="Helvetica,sans-Serif" font-size="10.00">ListDestruct</text>
</a>
</g>
</g>
<!-- Node1&#45;&gt;Node15 -->
<g id="edge16" class="edge">
<title>Node1&#45;&gt;Node15</title>
<path fill="none" stroke="midnightblue" d="M556.67,-426.96C551.94,-361.37 533.92,-154.53 492,-105 488.15,-100.46 483.11,-97 477.7,-94.37"/>
<polygon fill="midnightblue" stroke="midnightblue" points="553.2,-427.45 557.38,-437.18 560.18,-426.96 553.2,-427.45"/>
</g>
<!-- Node16 -->
<g id="node16" class="node">
<title>Node16</title>
<g id="a_node16"><a xlink:href="list_8h.html#a80893fa3b92ec10f28b63013816b78d0" target="_top" xlink:title=" ">
<polygon fill="white" stroke="black" points="414,-38.5 414,-57.5 466,-57.5 466,-38.5 414,-38.5"/>
<text text-anchor="middle" x="440" y="-45.5" font-family="Helvetica,sans-Serif" font-size="10.00">ListEnd</text>
</a>
</g>
</g>
<!-- Node1&#45;&gt;Node16 -->
<g id="edge17" class="edge">
<title>Node1&#45;&gt;Node16</title>
<path fill="none" stroke="midnightblue" d="M557.1,-427.05C553.55,-356.9 538.4,-122.87 492,-67 485.54,-59.22 475.57,-54.63 466.15,-51.91"/>
<polygon fill="midnightblue" stroke="midnightblue" points="553.61,-427.36 557.59,-437.18 560.6,-427.02 553.61,-427.36"/>
</g>
<!-- Node17 -->
<g id="node17" class="node">
<title>Node17</title>
<g id="a_node17"><a xlink:href="list_8c.html#a957ee1a520cba2eb92b8551ac42f57e5" target="_top" xlink:title=" ">
<polygon fill="white" stroke="black" points="388,-532.5 388,-551.5 492,-551.5 492,-532.5 388,-532.5"/>
<text text-anchor="middle" x="440" y="-539.5" font-family="Helvetica,sans-Serif" font-size="10.00">ListErase_Internal</text>
</a>
</g>
</g>
<!-- Node1&#45;&gt;Node17 -->
<g id="edge19" class="edge">
<title>Node1&#45;&gt;Node17</title>
<path fill="none" stroke="midnightblue" d="M544.43,-465.12C532.09,-480.67 512.68,-502.9 492,-518 484.18,-523.71 474.78,-528.6 466.19,-532.44"/>
<polygon fill="midnightblue" stroke="midnightblue" points="547.49,-466.89 550.84,-456.84 541.95,-462.6 547.49,-466.89"/>
</g>
<!-- Node18 -->
<g id="node18" class="node">
<title>Node18</title>
<g id="a_node18"><a xlink:href="list_8h.html#ac485b4349fbeff1dc2565e7cd88a83d7" target="_top" xlink:title=" ">
<polygon fill="white" stroke="black" points="262,-494.5 262,-513.5 338,-513.5 338,-494.5 262,-494.5"/>
<text text-anchor="middle" x="300" y="-501.5" font-family="Helvetica,sans-Serif" font-size="10.00">ListPopBack</text>
</a>
</g>
</g>
<!-- Node1&#45;&gt;Node18 -->
<g id="edge35" class="edge">
<title>Node1&#45;&gt;Node18</title>
<path fill="none" stroke="midnightblue" d="M533.62,-461.68C521.51,-468.31 506.41,-475.63 492,-480 440.03,-495.75 377.08,-501.18 338.03,-503.04"/>
<polygon fill="midnightblue" stroke="midnightblue" points="535.65,-464.55 542.62,-456.57 532.2,-458.46 535.65,-464.55"/>
</g>
<!-- Node19 -->
<g id="node19" class="node">
<title>Node19</title>
<g id="a_node19"><a xlink:href="list_8h.html#a9fa41f03d1f4dc775abb9d794364108a" target="_top" xlink:title=" ">
<polygon fill="white" stroke="black" points="261.5,-570.5 261.5,-589.5 338.5,-589.5 338.5,-570.5 261.5,-570.5"/>
<text text-anchor="middle" x="300" y="-577.5" font-family="Helvetica,sans-Serif" font-size="10.00">ListPopFront</text>
</a>
</g>
</g>
<!-- Node1&#45;&gt;Node19 -->
<g id="edge36" class="edge">
<title>Node1&#45;&gt;Node19</title>
<path fill="none" stroke="midnightblue" d="M552.82,-466.36C544.66,-492.69 526.13,-539 492,-561 445.79,-590.79 379.8,-590.07 338.73,-585.8"/>
<polygon fill="midnightblue" stroke="midnightblue" points="556.19,-467.32 555.61,-456.74 549.46,-465.36 556.19,-467.32"/>
</g>
<!-- Node20 -->
<g id="node20" class="node">
<title>Node20</title>
<g id="a_node20"><a xlink:href="list_8c.html#a2f513993aacfccc7af38c69434589a40" target="_top" xlink:title=" ">
<polygon fill="white" stroke="black" points="248,-409.5 248,-428.5 352,-428.5 352,-409.5 248,-409.5"/>
<text text-anchor="middle" x="300" y="-416.5" font-family="Helvetica,sans-Serif" font-size="10.00">ListInsert_Internal</text>
</a>
</g>
</g>
<!-- Node1&#45;&gt;Node20 -->
<g id="edge26" class="edge">
<title>Node1&#45;&gt;Node20</title>
<path fill="none" stroke="midnightblue" d="M517.58,-442.6C472.95,-437.73 401,-429.89 352.39,-424.6"/>
<polygon fill="midnightblue" stroke="midnightblue" points="517.44,-446.1 527.76,-443.71 518.2,-439.14 517.44,-446.1"/>
</g>
<!-- Node21 -->
<g id="node21" class="node">
<title>Node21</title>
<g id="a_node21"><a xlink:href="list_8h.html#a7c5ff601bc85471b4148a1c4c15787ae" target="_top" xlink:title=" ">
<polygon fill="white" stroke="black" points="130.5,-470.5 130.5,-489.5 211.5,-489.5 211.5,-470.5 130.5,-470.5"/>
<text text-anchor="middle" x="171" y="-477.5" font-family="Helvetica,sans-Serif" font-size="10.00">ListPushBack</text>
</a>
</g>
</g>
<!-- Node1&#45;&gt;Node21 -->
<g id="edge37" class="edge">
<title>Node1&#45;&gt;Node21</title>
<path fill="none" stroke="midnightblue" d="M517.35,-450.48C442.9,-456.84 285.53,-470.29 211.75,-476.6"/>
<polygon fill="midnightblue" stroke="midnightblue" points="518.05,-453.93 527.71,-449.59 517.45,-446.95 518.05,-453.93"/>
</g>
<!-- Node22 -->
<g id="node22" class="node">
<title>Node22</title>
<g id="a_node22"><a xlink:href="list_8h.html#afe4e636b84899e781aae6af9456fd88d" target="_top" xlink:title=" ">
<polygon fill="white" stroke="black" points="130,-356.5 130,-375.5 212,-375.5 212,-356.5 130,-356.5"/>
<text text-anchor="middle" x="171" y="-363.5" font-family="Helvetica,sans-Serif" font-size="10.00">ListPushFront</text>
</a>
</g>
</g>
<!-- Node1&#45;&gt;Node22 -->
<g id="edge38" class="edge">
<title>Node1&#45;&gt;Node22</title>
<path fill="none" stroke="midnightblue" d="M551.24,-427.89C541.93,-404.83 522.73,-367.17 492,-351 394.05,-299.47 255.02,-337.12 197.96,-356.44"/>
<polygon fill="midnightblue" stroke="midnightblue" points="548,-429.22 554.83,-437.32 554.55,-426.73 548,-429.22"/>
</g>
<!-- Node23 -->
<g id="node23" class="node">
<title>Node23</title>
<g id="a_node23"><a xlink:href="list_8c.html#a5b2989c7bbbdf21204e9a6e9b92ed1dc" target="_top" xlink:title=" ">
<polygon fill="white" stroke="black" points="407,-380.5 407,-399.5 473,-399.5 473,-380.5 407,-380.5"/>
<text text-anchor="middle" x="440" y="-387.5" font-family="Helvetica,sans-Serif" font-size="10.00">ListResize</text>
</a>
</g>
</g>
<!-- Node1&#45;&gt;Node23 -->
<g id="edge39" class="edge">
<title>Node1&#45;&gt;Node23</title>
<path fill="none" stroke="midnightblue" d="M530,-432.82C518.29,-426.93 504.52,-420.07 492,-414 482.14,-409.22 471.15,-404.02 461.9,-399.7"/>
<polygon fill="midnightblue" stroke="midnightblue" points="528.78,-436.12 539.28,-437.49 531.93,-429.87 528.78,-436.12"/>
</g>
<!-- Node24 -->
<g id="node24" class="node">
<title>Node24</title>
<g id="a_node24"><a xlink:href="list_8h.html#a0773be9090ec6f5d77ce58ff2892b48b" target="_top" xlink:title=" ">
<polygon fill="white" stroke="black" points="256.5,-361.5 256.5,-380.5 343.5,-380.5 343.5,-361.5 256.5,-361.5"/>
<text text-anchor="middle" x="300" y="-368.5" font-family="Helvetica,sans-Serif" font-size="10.00">ListShrinkToFit</text>
</a>
</g>
</g>
<!-- Node1&#45;&gt;Node24 -->
<g id="edge42" class="edge">
<title>Node1&#45;&gt;Node24</title>
<path fill="none" stroke="midnightblue" d="M548.24,-428.5C537.32,-410.03 517.74,-382.74 492,-371 444.33,-349.26 382.75,-354.36 342.58,-361.44"/>
<polygon fill="midnightblue" stroke="midnightblue" points="545.32,-430.46 553.27,-437.47 551.43,-427.03 545.32,-430.46"/>
</g>
<!-- Node25 -->
<g id="node25" class="node">
<title>Node25</title>
<g id="a_node25"><a xlink:href="list_8h.html#ae5a0875e75abe50e1cdd481bbbf0e75e" target="_top" xlink:title=" ">
<polygon fill="white" stroke="black" points="413,-0.5 413,-19.5 467,-19.5 467,-0.5 413,-0.5"/>
<text text-anchor="middle" x="440" y="-7.5" font-family="Helvetica,sans-Serif" font-size="10.00">ListSize</text>
</a>
</g>
</g>
<!-- Node1&#45;&gt;Node25 -->
<g id="edge43" class="edge">
<title>Node1&#45;&gt;Node25</title>
<path fill="none" stroke="midnightblue" d="M557.45,-427.02C555,-352.42 542.87,-91.22 492,-29 485.78,-21.39 476.2,-16.83 467.01,-14.09"/>
<polygon fill="midnightblue" stroke="midnightblue" points="553.96,-427.45 557.76,-437.34 560.95,-427.23 553.96,-427.45"/>
</g>
<!-- Node4&#45;&gt;Node5 -->
<g id="edge4" class="edge">
<title>Node4&#45;&gt;Node5</title>
<path fill="none" stroke="midnightblue" d="M426.54,-750.14C411.22,-771.25 383.34,-805.88 352,-827 346.44,-830.75 340.04,-833.88 333.69,-836.45"/>
<polygon fill="midnightblue" stroke="midnightblue" points="429.56,-751.93 432.49,-741.75 423.85,-747.88 429.56,-751.93"/>
</g>
<!-- Node4&#45;&gt;Node6 -->
<g id="edge5" class="edge">
<title>Node4&#45;&gt;Node6</title>
<path fill="none" stroke="midnightblue" d="M415.02,-747.21C397.75,-757.94 373.75,-772.42 352,-784 342.5,-789.06 331.75,-794.2 322.57,-798.42"/>
<polygon fill="midnightblue" stroke="midnightblue" points="417.24,-749.94 423.86,-741.67 413.53,-744.01 417.24,-749.94"/>
</g>
<!-- Node4&#45;&gt;Node7 -->
<g id="edge6" class="edge">
<title>Node4&#45;&gt;Node7</title>
<path fill="none" stroke="midnightblue" d="M387.2,-725.2C346.57,-717.92 290.06,-703.35 248,-675 213.85,-651.98 187.63,-608.91 177.07,-589.69"/>
<polygon fill="midnightblue" stroke="midnightblue" points="386.72,-728.67 397.17,-726.9 387.9,-721.77 386.72,-728.67"/>
</g>
<!-- Node4&#45;&gt;Node8 -->
<g id="edge7" class="edge">
<title>Node4&#45;&gt;Node8</title>
<path fill="none" stroke="midnightblue" d="M415.02,-716.79C397.75,-706.06 373.75,-691.58 352,-680 342.5,-674.94 331.75,-669.8 322.57,-665.58"/>
<polygon fill="midnightblue" stroke="midnightblue" points="413.53,-719.99 423.86,-722.33 417.24,-714.06 413.53,-719.99"/>
</g>
<!-- Node4&#45;&gt;Node9 -->
<g id="edge8" class="edge">
<title>Node4&#45;&gt;Node9</title>
<path fill="none" stroke="midnightblue" d="M387.19,-741.73C375.65,-743.5 363.44,-745.09 352,-746 253.65,-753.86 217.81,-791 130,-746 85.96,-723.43 60.2,-664.97 51.43,-641.73"/>
<polygon fill="midnightblue" stroke="midnightblue" points="387.81,-745.17 397.12,-740.12 386.7,-738.26 387.81,-745.17"/>
</g>
<!-- Node4&#45;&gt;Node10 -->
<g id="edge9" class="edge">
<title>Node4&#45;&gt;Node10</title>
<path fill="none" stroke="midnightblue" d="M387.46,-734.68C347.61,-734.76 292,-730.43 248,-710 182.7,-679.67 170.11,-658.79 130,-599 82.56,-528.29 57.13,-426.26 50.07,-394.68"/>
<polygon fill="midnightblue" stroke="midnightblue" points="387.53,-738.18 397.49,-734.56 387.45,-731.18 387.53,-738.18"/>
</g>
<!-- Node17&#45;&gt;Node7 -->
<g id="edge20" class="edge">
<title>Node17&#45;&gt;Node7</title>
<path fill="none" stroke="midnightblue" d="M377.37,-545.84C339.8,-548.75 290.91,-553.54 248,-561 232.59,-563.68 215.69,-567.78 201.75,-571.49"/>
<polygon fill="midnightblue" stroke="midnightblue" points="377.94,-549.31 387.65,-545.07 377.42,-542.33 377.94,-549.31"/>
</g>
<!-- Node17&#45;&gt;Node18 -->
<g id="edge21" class="edge">
<title>Node17&#45;&gt;Node18</title>
<path fill="none" stroke="midnightblue" d="M394.53,-529.75C375.51,-524.52 353.62,-518.49 335.81,-513.59"/>
<polygon fill="midnightblue" stroke="midnightblue" points="393.61,-533.13 404.18,-532.41 395.46,-526.38 393.61,-533.13"/>
</g>
<!-- Node17&#45;&gt;Node19 -->
<g id="edge23" class="edge">
<title>Node17&#45;&gt;Node19</title>
<path fill="none" stroke="midnightblue" d="M394.53,-554.25C375.51,-559.48 353.62,-565.51 335.81,-570.41"/>
<polygon fill="midnightblue" stroke="midnightblue" points="395.46,-557.62 404.18,-551.59 393.61,-550.87 395.46,-557.62"/>
</g>
<!-- Node18&#45;&gt;Node7 -->
<g id="edge22" class="edge">
<title>Node18&#45;&gt;Node7</title>
<path fill="none" stroke="midnightblue" d="M267.46,-517.87C260.93,-521.02 254.16,-524.47 248,-528 224.83,-541.26 199.55,-559.35 184.77,-570.32"/>
<polygon fill="midnightblue" stroke="midnightblue" points="269.19,-520.93 276.77,-513.52 266.23,-514.59 269.19,-520.93"/>
</g>
<!-- Node19&#45;&gt;Node7 -->
<g id="edge24" class="edge">
<title>Node19&#45;&gt;Node7</title>
<path fill="none" stroke="midnightblue" d="M251.15,-580C234.57,-580 216.46,-580 201.76,-580"/>
<polygon fill="midnightblue" stroke="midnightblue" points="251.24,-583.5 261.24,-580 251.24,-576.5 251.24,-583.5"/>
</g>
<!-- Node20&#45;&gt;Node9 -->
<g id="edge27" class="edge">
<title>Node20&#45;&gt;Node9</title>
<path fill="none" stroke="midnightblue" d="M237.64,-421.59C202.77,-425.93 160.19,-436.41 130,-461 75.88,-505.09 55.16,-593.42 49.64,-622.49"/>
<polygon fill="midnightblue" stroke="midnightblue" points="238.17,-425.05 247.72,-420.47 237.4,-418.09 238.17,-425.05"/>
</g>
<!-- Node20&#45;&gt;Node10 -->
<g id="edge28" class="edge">
<title>Node20&#45;&gt;Node10</title>
<path fill="none" stroke="midnightblue" d="M237.85,-410.72C193.61,-404.72 134.76,-396.75 94.37,-391.28"/>
<polygon fill="midnightblue" stroke="midnightblue" points="237.52,-414.2 247.9,-412.08 238.46,-407.27 237.52,-414.2"/>
</g>
<!-- Node20&#45;&gt;Node21 -->
<g id="edge29" class="edge">
<title>Node20&#45;&gt;Node21</title>
<path fill="none" stroke="midnightblue" d="M269.9,-432.98C246.11,-444.41 213.08,-460.27 192.12,-470.33"/>
<polygon fill="midnightblue" stroke="midnightblue" points="271.66,-436.02 279.16,-428.53 268.63,-429.71 271.66,-436.02"/>
</g>
<!-- Node20&#45;&gt;Node22 -->
<g id="edge31" class="edge">
<title>Node20&#45;&gt;Node22</title>
<path fill="none" stroke="midnightblue" d="M266.55,-405.46C244.11,-396.09 214.82,-383.87 194.83,-375.53"/>
<polygon fill="midnightblue" stroke="midnightblue" points="265.42,-408.78 276,-409.4 268.12,-402.32 265.42,-408.78"/>
</g>
<!-- Node21&#45;&gt;Node9 -->
<g id="edge30" class="edge">
<title>Node21&#45;&gt;Node9</title>
<path fill="none" stroke="midnightblue" d="M155.86,-497.61C129.95,-529.9 75.65,-597.55 55.63,-622.5"/>
<polygon fill="midnightblue" stroke="midnightblue" points="158.84,-499.5 162.37,-489.51 153.38,-495.12 158.84,-499.5"/>
</g>
<!-- Node22&#45;&gt;Node10 -->
<g id="edge32" class="edge">
<title>Node22&#45;&gt;Node10</title>
<path fill="none" stroke="midnightblue" d="M119.62,-373.85C111.18,-375.16 102.48,-376.52 94.16,-377.81"/>
<polygon fill="midnightblue" stroke="midnightblue" points="120.37,-377.27 129.71,-372.27 119.3,-370.35 120.37,-377.27"/>
</g>
<!-- Node23&#45;&gt;Node20 -->
<g id="edge40" class="edge">
<title>Node23&#45;&gt;Node20</title>
<path fill="none" stroke="midnightblue" d="M396.88,-398.85C380.91,-402.21 362.68,-406.04 346.43,-409.45"/>
<polygon fill="midnightblue" stroke="midnightblue" points="397.93,-402.21 406.99,-396.73 396.49,-395.36 397.93,-402.21"/>
</g>
<!-- Node23&#45;&gt;Node24 -->
<g id="edge41" class="edge">
<title>Node23&#45;&gt;Node24</title>
<path fill="none" stroke="midnightblue" d="M396.84,-384.2C379.94,-381.87 360.5,-379.19 343.55,-376.86"/>
<polygon fill="midnightblue" stroke="midnightblue" points="396.61,-387.7 406.99,-385.59 397.56,-380.76 396.61,-387.7"/>
</g>
</g>
</svg>
        <g id="navigator" transform="translate(0 0)" fill="#404254">
                <rect fill="#f2f5e9" fill-opacity="0.5" stroke="#606060" stroke-width=".5" x="0" y="0" width="60" height="60"/>
                <use id="zoomplus" xlink:href="#zoomPlus" x="17" y="9" onmousedown="handleZoom(evt,'in')"/>
                <use id="zoomminus" xlink:href="#zoomMin" x="42" y="9" onmousedown="handleZoom(evt,'out')"/>
                <use id="reset" xlink:href="#resetDef" x="30" y="36" onmousedown="handleReset()"/>
                <g id="arrowUp" xlink:href="#dirArrow" transform="translate(30 24)" onmousedown="handlePan(0,-1)">
                  <use xlink:href="#rim" fill="#404040">
                        <set attributeName="fill" to="#808080" begin="arrowUp.mouseover" end="arrowUp.mouseout"/>
                  </use>
                  <path fill="none" stroke="white" stroke-width="1.5" d="M0,-3.0v7 M-2.5,-0.5L0,-3.0L2.5,-0.5"/>
                </g>
                <g id="arrowRight" xlink:href="#dirArrow" transform="rotate(90) translate(36 -43)" onmousedown="handlePan(1,0)">
                  <use xlink:href="#rim" fill="#404040">
                        <set attributeName="fill" to="#808080" begin="arrowRight.mouseover" end="arrowRight.mouseout"/>
                  </use>
                  <path fill="none" stroke="white" stroke-width="1.5" d="M0,-3.0v7 M-2.5,-0.5L0,-3.0L2.5,-0.5"/>
                </g>
                <g id="arrowDown" xlink:href="#dirArrow" transform="rotate(180) translate(-30 -48)" onmousedown="handlePan(0,1)">
                  <use xlink:href="#rim" fill="#404040">
                        <set attributeName="fill" to="#808080" begin="arrowDown.mouseover" end="arrowDown.mouseout"/>
                  </use>
                  <path fill="none" stroke="white" stroke-width="1.5" d="M0,-3.0v7 M-2.5,-0.5L0,-3.0L2.5,-0.5"/>
                </g>
                <g id="arrowLeft" xlink:href="#dirArrow" transform="rotate(270) translate(-36 17)" onmousedown="handlePan(-1,0)">
                  <use xlink:href="#rim" fill="#404040">
                        <set attributeName="fill" to="#808080" begin="arrowLeft.mouseover" end="arrowLeft.mouseout"/>
                  </use>
                  <path fill="none" stroke="white" stroke-width="1.5" d="M0,-3.0v7 M-2.5,-0.5L0,-3.0L2.5,-0.5"/>
                </g>
        </g>
        <svg viewBox="0 0 15 15" width="100%" height="30px" preserveAspectRatio="xMaxYMin meet">
         <g id="arrow_out" transform="scale(0.3 0.3)">
          <a xlink:href="list_8c_a262ea758423a46a6ca0ff4e722e895b5_icgraph_org.svg" target="_base">
           <rect id="button" ry="5" rx="5" y="6" x="6" height="38" width="38"
                fill="#f2f5e9" fill-opacity="0.5" stroke="#606060" stroke-width="1.0"/>
           <path id="arrow"
             d="M 11.500037,31.436501 C 11.940474,20.09759 22.043105,11.32322 32.158766,21.979434 L 37.068811,17.246167 C 37.068811,17.246167 37.088388,32 37.088388,32 L 22.160133,31.978069 C 22.160133,31.978069 26.997745,27.140456 26.997745,27.140456 C 18.528582,18.264221 13.291696,25.230495 11.500037,31.436501 z"
             style="fill:#404040;"/>
          </a>
         </g>
        </svg>
</svg>
