<?xml version="1.0" encoding="UTF-8" standalone="no"?>
<!DOCTYPE svg PUBLIC "-//W3C//DTD SVG 1.1//EN"
 "http://www.w3.org/Graphics/SVG/1.1/DTD/svg11.dtd">
<!-- Generated by graphviz version 2.43.0 (0)
 -->
<!-- Title: GetIterator Pages: 1 -->
<svg width="275pt" height="28pt"
 viewBox="0.00 0.00 275.00 28.00" xmlns="http://www.w3.org/2000/svg" xmlns:xlink="http://www.w3.org/1999/xlink">
<g id="graph0" class="graph" transform="scale(1 1) rotate(0) translate(4 24)">
<title>GetIterator</title>
<polygon fill="white" stroke="transparent" points="-4,4 -4,-24 271,-24 271,4 -4,4"/>
<!-- Node1 -->
<g id="node1" class="node">
<title>Node1</title>
<g id="a_node1"><a xlink:title=" ">
<polygon fill="#bfbfbf" stroke="black" points="0,-0.5 0,-19.5 70,-19.5 70,-0.5 0,-0.5"/>
<text text-anchor="middle" x="35" y="-7.5" font-family="Helvetica,sans-Serif" font-size="10.00">GetIterator</text>
</a>
</g>
</g>
<!-- Node2 -->
<g id="node2" class="node">
<title>Node2</title>
<g id="a_node2"><a xlink:href="list_8c.html#a262ea758423a46a6ca0ff4e722e895b5" target="_top" xlink:title=" ">
<polygon fill="white" stroke="black" points="106,-0.5 106,-19.5 168,-19.5 168,-0.5 106,-0.5"/>
<text text-anchor="middle" x="137" y="-7.5" font-family="Helvetica,sans-Serif" font-size="10.00">ListVerify</text>
</a>
</g>
</g>
<!-- Node1&#45;&gt;Node2 -->
<g id="edge1" class="edge">
<title>Node1&#45;&gt;Node2</title>
<path fill="none" stroke="midnightblue" d="M70.13,-10C78.34,-10 87.18,-10 95.64,-10"/>
<polygon fill="midnightblue" stroke="midnightblue" points="95.7,-13.5 105.7,-10 95.7,-6.5 95.7,-13.5"/>
</g>
<!-- Node3 -->
<g id="node3" class="node">
<title>Node3</title>
<g id="a_node3"><a xlink:href="list_8c.html#adb5a6d3f693d0b150af95fa5a131ed0b" target="_top" xlink:title=" ">
<polygon fill="white" stroke="black" points="204,-0.5 204,-19.5 267,-19.5 267,-0.5 204,-0.5"/>
<text text-anchor="middle" x="235.5" y="-7.5" font-family="Helvetica,sans-Serif" font-size="10.00">ListDump</text>
</a>
</g>
</g>
<!-- Node2&#45;&gt;Node3 -->
<g id="edge2" class="edge">
<title>Node2&#45;&gt;Node3</title>
<path fill="none" stroke="midnightblue" d="M168,-10C176.11,-10 185.02,-10 193.6,-10"/>
<polygon fill="midnightblue" stroke="midnightblue" points="193.85,-13.5 203.85,-10 193.85,-6.5 193.85,-13.5"/>
</g>
</g>
</svg>
