<?xml version="1.0" encoding="UTF-8" standalone="no"?>
<!DOCTYPE svg PUBLIC "-//W3C//DTD SVG 1.1//EN"
 "http://www.w3.org/Graphics/SVG/1.1/DTD/svg11.dtd">
<!-- Generated by graphviz version 2.43.0 (0)
 -->
<!-- Title: ListDump Pages: 1 -->
<!--zoomable 906 -->
<svg id="main" version="1.1" xmlns="http://www.w3.org/2000/svg" xmlns:xlink="http://www.w3.org/1999/xlink" xml:space="preserve" onload="init(evt)">
<style type="text/css"><![CDATA[
.edge:hover path { stroke: red; }
.edge:hover polygon { stroke: red; fill: red; }
]]></style>
<script type="text/javascript"><![CDATA[
var edges = document.getElementsByTagName('g');
if (edges && edges.length) {
  for (var i=0;i<edges.length;i++) {
    if (edges[i].id.substr(0,4)=='edge') {
      edges[i].setAttribute('class','edge');
    }
  }
}
]]></script>
        <defs>
                <circle id="rim" cx="0" cy="0" r="7"/>
                <circle id="rim2" cx="0" cy="0" r="3.5"/>
                <g id="zoomPlus">
                        <use xlink:href="#rim" fill="#404040">
                                <set attributeName="fill" to="#808080" begin="zoomplus.mouseover" end="zoomplus.mouseout"/>
                        </use>
                        <path d="M-4,0h8M0,-4v8" fill="none" stroke="white" stroke-width="1.5" pointer-events="none"/>
                </g>
                <g id="zoomMin">
                        <use xlink:href="#rim" fill="#404040">
                                <set attributeName="fill" to="#808080" begin="zoomminus.mouseover" end="zoomminus.mouseout"/>
                        </use>
                        <path d="M-4,0h8" fill="none" stroke="white" stroke-width="1.5" pointer-events="none"/>
                </g>
                <g id="dirArrow">
                        <path fill="none" stroke="white" stroke-width="1.5" d="M0,-3.0v7 M-2.5,-0.5L0,-3.0L2.5,-0.5"/>
                </g>
               <g id="resetDef">
                       <use xlink:href="#rim2" fill="#404040">
                               <set attributeName="fill" to="#808080" begin="reset.mouseover" end="reset.mouseout"/>
                       </use>
               </g>
        </defs>

<script type="text/javascript">
var viewWidth = 697;
var viewHeight = 906;
var sectionId = 'dynsection-12';
</script>
<script xlink:href="svgpan.js"/>
<svg id="graph" class="graph">
<g id="viewport">
<title>ListDump</title>
<polygon fill="white" stroke="transparent" points="-4,4 -4,-902.12 693,-902.12 693,4 -4,4"/>
<!-- Node1 -->
<g id="node1" class="node">
<title>Node1</title>
<g id="a_node1"><a xlink:title=" ">
<polygon fill="#bfbfbf" stroke="black" points="626,-475.67 626,-494.67 689,-494.67 689,-475.67 626,-475.67"/>
<text text-anchor="middle" x="657.5" y="-482.67" font-family="Helvetica,sans-Serif" font-size="10.00">ListDump</text>
</a>
</g>
</g>
<!-- Node2 -->
<g id="node2" class="node">
<title>Node2</title>
<g id="a_node2"><a xlink:href="list_8c.html#adfd8599d25d547782ffb93f50313c092" target="_top" xlink:title=" ">
<polygon fill="white" stroke="black" points="397.5,-760.67 397.5,-779.67 482.5,-779.67 482.5,-760.67 397.5,-760.67"/>
<text text-anchor="middle" x="440" y="-767.67" font-family="Helvetica,sans-Serif" font-size="10.00">isIteratorValid</text>
</a>
</g>
</g>
<!-- Node1&#45;&gt;Node2 -->
<g id="edge1" class="edge">
<title>Node1&#45;&gt;Node2</title>
<path fill="none" stroke="midnightblue" d="M645.21,-503.66C619.96,-544.46 556.09,-644.55 492,-720.17 479.33,-735.12 462.88,-750.66 452.13,-760.37"/>
<polygon fill="midnightblue" stroke="midnightblue" points="648.26,-505.39 650.52,-495.04 642.3,-501.72 648.26,-505.39"/>
</g>
<!-- Node9 -->
<g id="node9" class="node">
<title>Node9</title>
<g id="a_node9"><a xlink:href="list_8c.html#a262ea758423a46a6ca0ff4e722e895b5" target="_top" xlink:title=" ">
<polygon fill="white" stroke="black" points="528,-456.67 528,-475.67 590,-475.67 590,-456.67 528,-456.67"/>
<text text-anchor="middle" x="559" y="-463.67" font-family="Helvetica,sans-Serif" font-size="10.00">ListVerify</text>
</a>
</g>
</g>
<!-- Node1&#45;&gt;Node9 -->
<g id="edge8" class="edge">
<title>Node1&#45;&gt;Node9</title>
<path fill="none" stroke="midnightblue" d="M615.98,-477.19C607.27,-475.48 598.22,-473.7 590,-472.08"/>
<polygon fill="midnightblue" stroke="midnightblue" points="615.48,-480.66 625.97,-479.16 616.83,-473.79 615.48,-480.66"/>
</g>
<!-- Node3 -->
<g id="node3" class="node">
<title>Node3</title>
<g id="a_node3"><a xlink:href="list_8h.html#a6263ce01ab89d962cd70a40dff38c7f2" target="_top" xlink:title=" ">
<polygon fill="white" stroke="black" points="251,-798.67 251,-817.67 349,-817.67 349,-798.67 251,-798.67"/>
<text text-anchor="middle" x="300" y="-805.67" font-family="Helvetica,sans-Serif" font-size="10.00">IteratorDecrease</text>
</a>
</g>
</g>
<!-- Node2&#45;&gt;Node3 -->
<g id="edge2" class="edge">
<title>Node2&#45;&gt;Node3</title>
<path fill="none" stroke="midnightblue" d="M394.53,-782.42C375.51,-787.66 353.62,-793.68 335.81,-798.59"/>
<polygon fill="midnightblue" stroke="midnightblue" points="395.46,-785.79 404.18,-779.76 393.61,-779.04 395.46,-785.79"/>
</g>
<!-- Node4 -->
<g id="node4" class="node">
<title>Node4</title>
<g id="a_node4"><a xlink:href="list_8h.html#a26b93b5ffd0d4dbc5c453478ded5ddf3" target="_top" xlink:title=" ">
<polygon fill="white" stroke="black" points="253,-646.67 253,-665.67 347,-665.67 347,-646.67 253,-646.67"/>
<text text-anchor="middle" x="300" y="-653.67" font-family="Helvetica,sans-Serif" font-size="10.00">IteratorIncrease</text>
</a>
</g>
</g>
<!-- Node2&#45;&gt;Node4 -->
<g id="edge3" class="edge">
<title>Node2&#45;&gt;Node4</title>
<path fill="none" stroke="midnightblue" d="M401.62,-756.03C396.71,-753.22 392.01,-749.95 388,-746.17 363.68,-723.26 376.32,-703.09 352,-680.17 345.59,-674.13 337.38,-669.37 329.44,-665.74"/>
<polygon fill="midnightblue" stroke="midnightblue" points="400.07,-759.17 410.56,-760.6 403.25,-752.94 400.07,-759.17"/>
</g>
<!-- Node5 -->
<g id="node5" class="node">
<title>Node5</title>
<g id="a_node5"><a xlink:href="list_8h.html#a9ed9856ba60db767e2d2b2bd7f0d0ec9" target="_top" xlink:title=" ">
<polygon fill="white" stroke="black" points="140.5,-532.67 140.5,-551.67 201.5,-551.67 201.5,-532.67 140.5,-532.67"/>
<text text-anchor="middle" x="171" y="-539.67" font-family="Helvetica,sans-Serif" font-size="10.00">ListErase</text>
</a>
</g>
</g>
<!-- Node2&#45;&gt;Node5 -->
<g id="edge4" class="edge">
<title>Node2&#45;&gt;Node5</title>
<path fill="none" stroke="midnightblue" d="M415.8,-755.03C398.57,-744.11 374.29,-729.37 352,-718.17 307.3,-695.73 285.54,-708.22 248,-675.17 207.28,-639.32 183.2,-576.15 175.09,-551.97"/>
<polygon fill="midnightblue" stroke="midnightblue" points="414.28,-758.22 424.59,-760.67 418.06,-752.32 414.28,-758.22"/>
</g>
<!-- Node6 -->
<g id="node6" class="node">
<title>Node6</title>
<g id="a_node6"><a xlink:href="list_8h.html#a7d48b3838b93a9d9c1f505d4d64772e5" target="_top" xlink:title=" ">
<polygon fill="white" stroke="black" points="261,-608.67 261,-627.67 339,-627.67 339,-608.67 261,-608.67"/>
<text text-anchor="middle" x="300" y="-615.67" font-family="Helvetica,sans-Serif" font-size="10.00">ListGetValue</text>
</a>
</g>
</g>
<!-- Node2&#45;&gt;Node6 -->
<g id="edge5" class="edge">
<title>Node2&#45;&gt;Node6</title>
<path fill="none" stroke="midnightblue" d="M423.22,-753.09C412.54,-741.06 398.53,-724.29 388,-708.17 368.65,-678.55 378.39,-660.74 352,-637.17 347.7,-633.33 342.56,-630.24 337.21,-627.77"/>
<polygon fill="midnightblue" stroke="midnightblue" points="420.69,-755.52 429.99,-760.6 425.89,-750.83 420.69,-755.52"/>
</g>
<!-- Node7 -->
<g id="node7" class="node">
<title>Node7</title>
<g id="a_node7"><a xlink:href="list_8h.html#ac56df94c6dff4c7d05afdaa7669409d2" target="_top" xlink:title=" ">
<polygon fill="white" stroke="black" points="4.5,-779.67 4.5,-798.67 89.5,-798.67 89.5,-779.67 4.5,-779.67"/>
<text text-anchor="middle" x="47" y="-786.67" font-family="Helvetica,sans-Serif" font-size="10.00">ListInsertAfter</text>
</a>
</g>
</g>
<!-- Node2&#45;&gt;Node7 -->
<g id="edge6" class="edge">
<title>Node2&#45;&gt;Node7</title>
<path fill="none" stroke="midnightblue" d="M387.01,-772.7C308.53,-776.51 161.36,-783.66 89.54,-787.15"/>
<polygon fill="midnightblue" stroke="midnightblue" points="387.34,-776.19 397.16,-772.21 387,-769.19 387.34,-776.19"/>
</g>
<!-- Node8 -->
<g id="node8" class="node">
<title>Node8</title>
<g id="a_node8"><a xlink:href="list_8h.html#a06dd8071a4dd95526a9b8612900dd9cb" target="_top" xlink:title=" ">
<polygon fill="white" stroke="black" points="0,-133.67 0,-152.67 94,-152.67 94,-133.67 0,-133.67"/>
<text text-anchor="middle" x="47" y="-140.67" font-family="Helvetica,sans-Serif" font-size="10.00">ListInsertBefore</text>
</a>
</g>
</g>
<!-- Node2&#45;&gt;Node8 -->
<g id="edge7" class="edge">
<title>Node2&#45;&gt;Node8</title>
<path fill="none" stroke="midnightblue" d="M387.15,-762.49C346.5,-754.53 289.97,-739.05 248,-710.17 178.41,-662.29 165.35,-637.89 130,-561.17 60.06,-409.38 49.7,-199.82 48.23,-152.79"/>
<polygon fill="midnightblue" stroke="midnightblue" points="386.65,-765.95 397.12,-764.35 387.94,-759.07 386.65,-765.95"/>
</g>
<!-- Node9&#45;&gt;Node2 -->
<g id="edge11" class="edge">
<title>Node9&#45;&gt;Node2</title>
<path fill="none" stroke="midnightblue" d="M554.35,-486.05C543.09,-546.55 508.69,-725.58 492,-746.17 486.95,-752.41 479.9,-757.11 472.65,-760.62"/>
<polygon fill="midnightblue" stroke="midnightblue" points="557.85,-486.37 556.23,-475.9 550.97,-485.1 557.85,-486.37"/>
</g>
<!-- Node9&#45;&gt;Node3 -->
<g id="edge13" class="edge">
<title>Node9&#45;&gt;Node3</title>
<path fill="none" stroke="midnightblue" d="M556.91,-486.36C552.99,-550.56 537.4,-748.2 492,-789.17 453.41,-824 390.92,-823.44 348,-817.68"/>
<polygon fill="midnightblue" stroke="midnightblue" points="560.42,-486.18 557.51,-475.99 553.44,-485.77 560.42,-486.18"/>
</g>
<!-- Node9&#45;&gt;Node4 -->
<g id="edge14" class="edge">
<title>Node9&#45;&gt;Node4</title>
<path fill="none" stroke="midnightblue" d="M555.4,-485.91C548.22,-536.98 526.36,-671.25 492,-697.17 441.96,-734.92 408.7,-706.9 352,-680.17 341.91,-675.42 330.69,-670.14 321.35,-665.74"/>
<polygon fill="midnightblue" stroke="midnightblue" points="558.89,-486.22 556.77,-475.84 551.95,-485.27 558.89,-486.22"/>
</g>
<!-- Node9&#45;&gt;Node5 -->
<g id="edge20" class="edge">
<title>Node9&#45;&gt;Node5</title>
<path fill="none" stroke="midnightblue" d="M555.49,-446.53C548.46,-395.07 526.81,-258.52 492,-232.17 455.15,-204.27 428.97,-210.78 388,-232.17 257.16,-300.47 189.46,-488.18 174.98,-532.64"/>
<polygon fill="midnightblue" stroke="midnightblue" points="552.04,-447.2 556.83,-456.66 558.98,-446.28 552.04,-447.2"/>
</g>
<!-- Node9&#45;&gt;Node6 -->
<g id="edge27" class="edge">
<title>Node9&#45;&gt;Node6</title>
<path fill="none" stroke="midnightblue" d="M554.77,-485.93C546.55,-533.52 523.25,-652.27 492,-675.17 454.72,-702.5 430.46,-693.44 388,-675.17 366.63,-665.98 371.4,-650.01 352,-637.17 346.33,-633.42 339.81,-630.27 333.37,-627.69"/>
<polygon fill="midnightblue" stroke="midnightblue" points="558.24,-486.38 556.45,-475.94 551.34,-485.22 558.24,-486.38"/>
</g>
<!-- Node9&#45;&gt;Node7 -->
<g id="edge35" class="edge">
<title>Node9&#45;&gt;Node7</title>
<path fill="none" stroke="midnightblue" d="M557.68,-486.42C556.07,-558.6 546.63,-801.68 492,-851.17 364.53,-966.67 126.25,-836.55 63.48,-798.81"/>
<polygon fill="midnightblue" stroke="midnightblue" points="561.18,-486.08 557.88,-476.01 554.19,-485.94 561.18,-486.08"/>
</g>
<!-- Node9&#45;&gt;Node8 -->
<g id="edge36" class="edge">
<title>Node9&#45;&gt;Node8</title>
<path fill="none" stroke="midnightblue" d="M558.16,-446.15C558.31,-369.15 554.43,-93.68 492,-40.17 357.11,75.43 117.35,-90.94 60.39,-133.63"/>
<polygon fill="midnightblue" stroke="midnightblue" points="554.66,-446.37 558.11,-456.39 561.66,-446.4 554.66,-446.37"/>
</g>
<!-- Node10 -->
<g id="node10" class="node">
<title>Node10</title>
<g id="a_node10"><a xlink:href="list_8h.html#afce1ade5264bd8b2c42ab71b4290c3ca" target="_top" xlink:title=" ">
<polygon fill="white" stroke="black" points="405,-532.67 405,-551.67 475,-551.67 475,-532.67 405,-532.67"/>
<text text-anchor="middle" x="440" y="-539.67" font-family="Helvetica,sans-Serif" font-size="10.00">GetIterator</text>
</a>
</g>
</g>
<!-- Node9&#45;&gt;Node10 -->
<g id="edge9" class="edge">
<title>Node9&#45;&gt;Node10</title>
<path fill="none" stroke="midnightblue" d="M541.95,-482.95C529.32,-495.4 510.77,-512.06 492,-523.17 485.82,-526.83 478.82,-529.99 472.02,-532.63"/>
<polygon fill="midnightblue" stroke="midnightblue" points="544.45,-485.41 549,-475.84 539.48,-480.48 544.45,-485.41"/>
</g>
<!-- Node11 -->
<g id="node11" class="node">
<title>Node11</title>
<g id="a_node11"><a xlink:href="list_8h.html#a5e9356622317d5e79d4ec5b3bb3d5793" target="_top" xlink:title=" ">
<polygon fill="white" stroke="black" points="389,-494.67 389,-513.67 491,-513.67 491,-494.67 389,-494.67"/>
<text text-anchor="middle" x="440" y="-501.67" font-family="Helvetica,sans-Serif" font-size="10.00">GetIterator_Value</text>
</a>
</g>
</g>
<!-- Node9&#45;&gt;Node11 -->
<g id="edge10" class="edge">
<title>Node9&#45;&gt;Node11</title>
<path fill="none" stroke="midnightblue" d="M518.96,-478.85C503.15,-483.99 485.2,-489.82 470.51,-494.59"/>
<polygon fill="midnightblue" stroke="midnightblue" points="520.05,-482.18 528.48,-475.76 517.88,-475.52 520.05,-482.18"/>
</g>
<!-- Node12 -->
<g id="node12" class="node">
<title>Node12</title>
<g id="a_node12"><a xlink:href="list_8h.html#af15780d26607314e4766307f392dce48" target="_top" xlink:title=" ">
<polygon fill="white" stroke="black" points="399,-456.67 399,-475.67 481,-475.67 481,-456.67 399,-456.67"/>
<text text-anchor="middle" x="440" y="-463.67" font-family="Helvetica,sans-Serif" font-size="10.00">isListBoosted</text>
</a>
</g>
</g>
<!-- Node9&#45;&gt;Node12 -->
<g id="edge12" class="edge">
<title>Node9&#45;&gt;Node12</title>
<path fill="none" stroke="midnightblue" d="M517.81,-466.17C505.97,-466.17 493.01,-466.17 481.18,-466.17"/>
<polygon fill="midnightblue" stroke="midnightblue" points="517.87,-469.67 527.87,-466.17 517.87,-462.67 517.87,-469.67"/>
</g>
<!-- Node13 -->
<g id="node13" class="node">
<title>Node13</title>
<g id="a_node13"><a xlink:href="list_8h.html#ae08cf75c785f936bea85843acec83677" target="_top" xlink:title=" ">
<polygon fill="white" stroke="black" points="409,-418.67 409,-437.67 471,-437.67 471,-418.67 409,-418.67"/>
<text text-anchor="middle" x="440" y="-425.67" font-family="Helvetica,sans-Serif" font-size="10.00">ListBegin</text>
</a>
</g>
</g>
<!-- Node9&#45;&gt;Node13 -->
<g id="edge15" class="edge">
<title>Node9&#45;&gt;Node13</title>
<path fill="none" stroke="midnightblue" d="M518.96,-453.49C503.15,-448.36 485.2,-442.53 470.51,-437.76"/>
<polygon fill="midnightblue" stroke="midnightblue" points="517.88,-456.82 528.48,-456.58 520.05,-450.17 517.88,-456.82"/>
</g>
<!-- Node14 -->
<g id="node14" class="node">
<title>Node14</title>
<g id="a_node14"><a xlink:href="list_8h.html#af9126e34a67c2824d1d39e820f01b345" target="_top" xlink:title=" ">
<polygon fill="white" stroke="black" points="409,-380.67 409,-399.67 471,-399.67 471,-380.67 409,-380.67"/>
<text text-anchor="middle" x="440" y="-387.67" font-family="Helvetica,sans-Serif" font-size="10.00">ListBoost</text>
</a>
</g>
</g>
<!-- Node9&#45;&gt;Node14 -->
<g id="edge16" class="edge">
<title>Node9&#45;&gt;Node14</title>
<path fill="none" stroke="midnightblue" d="M541.95,-449.39C529.32,-436.95 510.77,-420.28 492,-409.17 485.58,-405.37 478.26,-402.1 471.22,-399.41"/>
<polygon fill="midnightblue" stroke="midnightblue" points="539.48,-451.86 549,-456.5 544.45,-446.94 539.48,-451.86"/>
</g>
<!-- Node15 -->
<g id="node15" class="node">
<title>Node15</title>
<g id="a_node15"><a xlink:href="list_8h.html#af6f09665ab20fa6c0ad1fc6ead8e75ee" target="_top" xlink:title=" ">
<polygon fill="white" stroke="black" points="400,-342.67 400,-361.67 480,-361.67 480,-342.67 400,-342.67"/>
<text text-anchor="middle" x="440" y="-349.67" font-family="Helvetica,sans-Serif" font-size="10.00">ListConstruct</text>
</a>
</g>
</g>
<!-- Node9&#45;&gt;Node15 -->
<g id="edge17" class="edge">
<title>Node9&#45;&gt;Node15</title>
<path fill="none" stroke="midnightblue" d="M549.33,-447.39C538.65,-426.14 518.58,-391.81 492,-371.17 487.07,-367.35 481.3,-364.23 475.44,-361.72"/>
<polygon fill="midnightblue" stroke="midnightblue" points="546.31,-449.17 553.81,-456.65 552.61,-446.12 546.31,-449.17"/>
</g>
<!-- Node16 -->
<g id="node16" class="node">
<title>Node16</title>
<g id="a_node16"><a xlink:href="list_8h.html#a7b4f9425dd9701d97e30fe9ce5af3d7a" target="_top" xlink:title=" ">
<polygon fill="white" stroke="black" points="402.5,-304.67 402.5,-323.67 477.5,-323.67 477.5,-304.67 402.5,-304.67"/>
<text text-anchor="middle" x="440" y="-311.67" font-family="Helvetica,sans-Serif" font-size="10.00">ListDestruct</text>
</a>
</g>
</g>
<!-- Node9&#45;&gt;Node16 -->
<g id="edge18" class="edge">
<title>Node9&#45;&gt;Node16</title>
<path fill="none" stroke="midnightblue" d="M553.25,-446.64C545.3,-417.94 526.66,-364.4 492,-333.17 487.72,-329.31 482.58,-326.22 477.24,-323.73"/>
<polygon fill="midnightblue" stroke="midnightblue" points="549.95,-447.86 555.86,-456.65 556.72,-446.09 549.95,-447.86"/>
</g>
<!-- Node17 -->
<g id="node17" class="node">
<title>Node17</title>
<g id="a_node17"><a xlink:href="list_8h.html#a80893fa3b92ec10f28b63013816b78d0" target="_top" xlink:title=" ">
<polygon fill="white" stroke="black" points="414,-266.67 414,-285.67 466,-285.67 466,-266.67 414,-266.67"/>
<text text-anchor="middle" x="440" y="-273.67" font-family="Helvetica,sans-Serif" font-size="10.00">ListEnd</text>
</a>
</g>
</g>
<!-- Node9&#45;&gt;Node17 -->
<g id="edge19" class="edge">
<title>Node9&#45;&gt;Node17</title>
<path fill="none" stroke="midnightblue" d="M555.71,-446.63C550.59,-411.59 535.09,-337.76 492,-295.17 485.01,-288.26 475.28,-283.83 466.2,-281.01"/>
<polygon fill="midnightblue" stroke="midnightblue" points="552.24,-447.1 557.03,-456.55 559.18,-446.18 552.24,-447.1"/>
</g>
<!-- Node18 -->
<g id="node18" class="node">
<title>Node18</title>
<g id="a_node18"><a xlink:href="list_8c.html#a957ee1a520cba2eb92b8551ac42f57e5" target="_top" xlink:title=" ">
<polygon fill="white" stroke="black" points="388,-570.67 388,-589.67 492,-589.67 492,-570.67 388,-570.67"/>
<text text-anchor="middle" x="440" y="-577.67" font-family="Helvetica,sans-Serif" font-size="10.00">ListErase_Internal</text>
</a>
</g>
</g>
<!-- Node9&#45;&gt;Node18 -->
<g id="edge21" class="edge">
<title>Node9&#45;&gt;Node18</title>
<path fill="none" stroke="midnightblue" d="M549.33,-484.96C538.65,-506.21 518.58,-540.53 492,-561.17 487.07,-565 481.3,-568.11 475.44,-570.63"/>
<polygon fill="midnightblue" stroke="midnightblue" points="552.61,-486.22 553.81,-475.69 546.31,-483.17 552.61,-486.22"/>
</g>
<!-- Node19 -->
<g id="node19" class="node">
<title>Node19</title>
<g id="a_node19"><a xlink:href="list_8h.html#ac485b4349fbeff1dc2565e7cd88a83d7" target="_top" xlink:title=" ">
<polygon fill="white" stroke="black" points="262,-570.67 262,-589.67 338,-589.67 338,-570.67 262,-570.67"/>
<text text-anchor="middle" x="300" y="-577.67" font-family="Helvetica,sans-Serif" font-size="10.00">ListPopBack</text>
</a>
</g>
</g>
<!-- Node9&#45;&gt;Node19 -->
<g id="edge37" class="edge">
<title>Node9&#45;&gt;Node19</title>
<path fill="none" stroke="midnightblue" d="M554.88,-485.71C548.83,-516.18 532.39,-574.13 492,-599.17 452.72,-623.53 433.96,-604.13 388,-599.17 370.78,-597.31 351.98,-593.45 336.27,-589.68"/>
<polygon fill="midnightblue" stroke="midnightblue" points="558.33,-486.3 556.66,-475.83 551.44,-485.05 558.33,-486.3"/>
</g>
<!-- Node20 -->
<g id="node20" class="node">
<title>Node20</title>
<g id="a_node20"><a xlink:href="list_8h.html#a9fa41f03d1f4dc775abb9d794364108a" target="_top" xlink:title=" ">
<polygon fill="white" stroke="black" points="261.5,-494.67 261.5,-513.67 338.5,-513.67 338.5,-494.67 261.5,-494.67"/>
<text text-anchor="middle" x="300" y="-501.67" font-family="Helvetica,sans-Serif" font-size="10.00">ListPopFront</text>
</a>
</g>
</g>
<!-- Node9&#45;&gt;Node20 -->
<g id="edge38" class="edge">
<title>Node9&#45;&gt;Node20</title>
<path fill="none" stroke="midnightblue" d="M558.72,-446.49C559.09,-403.6 553.14,-301.98 492,-257.17 454.72,-229.85 425.72,-230.46 388,-257.17 306.18,-315.1 300.76,-456.48 300.83,-494.58"/>
<polygon fill="midnightblue" stroke="midnightblue" points="555.22,-446.42 558.51,-456.5 562.22,-446.57 555.22,-446.42"/>
</g>
<!-- Node21 -->
<g id="node21" class="node">
<title>Node21</title>
<g id="a_node21"><a xlink:href="list_8c.html#a2f513993aacfccc7af38c69434589a40" target="_top" xlink:title=" ">
<polygon fill="white" stroke="black" points="248,-152.67 248,-171.67 352,-171.67 352,-152.67 248,-152.67"/>
<text text-anchor="middle" x="300" y="-159.67" font-family="Helvetica,sans-Serif" font-size="10.00">ListInsert_Internal</text>
</a>
</g>
</g>
<!-- Node9&#45;&gt;Node21 -->
<g id="edge28" class="edge">
<title>Node9&#45;&gt;Node21</title>
<path fill="none" stroke="midnightblue" d="M556.23,-446.47C550.6,-388.67 531.18,-221.38 492,-186.17 454.47,-152.44 394.76,-150.15 352.09,-153.95"/>
<polygon fill="midnightblue" stroke="midnightblue" points="552.75,-446.87 557.17,-456.5 559.72,-446.22 552.75,-446.87"/>
</g>
<!-- Node22 -->
<g id="node22" class="node">
<title>Node22</title>
<g id="a_node22"><a xlink:href="list_8h.html#a7c5ff601bc85471b4148a1c4c15787ae" target="_top" xlink:title=" ">
<polygon fill="white" stroke="black" points="130.5,-798.67 130.5,-817.67 211.5,-817.67 211.5,-798.67 130.5,-798.67"/>
<text text-anchor="middle" x="171" y="-805.67" font-family="Helvetica,sans-Serif" font-size="10.00">ListPushBack</text>
</a>
</g>
</g>
<!-- Node9&#45;&gt;Node22 -->
<g id="edge39" class="edge">
<title>Node9&#45;&gt;Node22</title>
<path fill="none" stroke="midnightblue" d="M557.35,-486C554.7,-553.66 542.27,-773.65 492,-818.17 406.08,-894.27 250.56,-841.09 193.63,-817.68"/>
<polygon fill="midnightblue" stroke="midnightblue" points="560.85,-485.97 557.72,-475.85 553.86,-485.72 560.85,-485.97"/>
</g>
<!-- Node23 -->
<g id="node23" class="node">
<title>Node23</title>
<g id="a_node23"><a xlink:href="list_8h.html#afe4e636b84899e781aae6af9456fd88d" target="_top" xlink:title=" ">
<polygon fill="white" stroke="black" points="130,-114.67 130,-133.67 212,-133.67 212,-114.67 130,-114.67"/>
<text text-anchor="middle" x="171" y="-121.67" font-family="Helvetica,sans-Serif" font-size="10.00">ListPushFront</text>
</a>
</g>
</g>
<!-- Node9&#45;&gt;Node23 -->
<g id="edge40" class="edge">
<title>Node9&#45;&gt;Node23</title>
<path fill="none" stroke="midnightblue" d="M557.85,-446.46C556.86,-374.06 549.26,-124.55 492,-76.17 399.96,1.6 237.5,-84.66 187.25,-114.67"/>
<polygon fill="midnightblue" stroke="midnightblue" points="554.35,-446.54 557.96,-456.5 561.35,-446.46 554.35,-446.54"/>
</g>
<!-- Node24 -->
<g id="node24" class="node">
<title>Node24</title>
<g id="a_node24"><a xlink:href="list_8c.html#a5b2989c7bbbdf21204e9a6e9b92ed1dc" target="_top" xlink:title=" ">
<polygon fill="white" stroke="black" points="407,-114.67 407,-133.67 473,-133.67 473,-114.67 407,-114.67"/>
<text text-anchor="middle" x="440" y="-121.67" font-family="Helvetica,sans-Serif" font-size="10.00">ListResize</text>
</a>
</g>
</g>
<!-- Node9&#45;&gt;Node24 -->
<g id="edge41" class="edge">
<title>Node9&#45;&gt;Node24</title>
<path fill="none" stroke="midnightblue" d="M556.21,-446.46C550.23,-384.56 529.23,-195.37 492,-148.17 487.09,-141.95 480.18,-137.26 473.03,-133.76"/>
<polygon fill="midnightblue" stroke="midnightblue" points="552.73,-446.85 557.15,-456.47 559.7,-446.19 552.73,-446.85"/>
</g>
<!-- Node25 -->
<g id="node25" class="node">
<title>Node25</title>
<g id="a_node25"><a xlink:href="list_8h.html#a0773be9090ec6f5d77ce58ff2892b48b" target="_top" xlink:title=" ">
<polygon fill="white" stroke="black" points="256.5,-95.67 256.5,-114.67 343.5,-114.67 343.5,-95.67 256.5,-95.67"/>
<text text-anchor="middle" x="300" y="-102.67" font-family="Helvetica,sans-Serif" font-size="10.00">ListShrinkToFit</text>
</a>
</g>
</g>
<!-- Node9&#45;&gt;Node25 -->
<g id="edge44" class="edge">
<title>Node9&#45;&gt;Node25</title>
<path fill="none" stroke="midnightblue" d="M557.55,-446.17C555.55,-376.94 544.97,-149.33 492,-105.17 445.52,-66.42 368.24,-82.92 327.7,-95.59"/>
<polygon fill="midnightblue" stroke="midnightblue" points="554.06,-446.63 557.82,-456.53 561.06,-446.44 554.06,-446.63"/>
</g>
<!-- Node26 -->
<g id="node26" class="node">
<title>Node26</title>
<g id="a_node26"><a xlink:href="list_8h.html#ae5a0875e75abe50e1cdd481bbbf0e75e" target="_top" xlink:title=" ">
<polygon fill="white" stroke="black" points="413,-646.67 413,-665.67 467,-665.67 467,-646.67 413,-646.67"/>
<text text-anchor="middle" x="440" y="-653.67" font-family="Helvetica,sans-Serif" font-size="10.00">ListSize</text>
</a>
</g>
</g>
<!-- Node9&#45;&gt;Node26 -->
<g id="edge45" class="edge">
<title>Node9&#45;&gt;Node26</title>
<path fill="none" stroke="midnightblue" d="M555.02,-485.73C548.93,-519.58 532.09,-589.55 492,-632.17 485.23,-639.37 475.86,-644.63 467,-648.35"/>
<polygon fill="midnightblue" stroke="midnightblue" points="558.5,-486.17 556.69,-475.73 551.6,-485.02 558.5,-486.17"/>
</g>
<!-- Node18&#45;&gt;Node5 -->
<g id="edge22" class="edge">
<title>Node18&#45;&gt;Node5</title>
<path fill="none" stroke="midnightblue" d="M389.71,-568.42C377.44,-565.77 364.28,-563.16 352,-561.17 299.42,-552.68 237.56,-547.1 201.75,-544.31"/>
<polygon fill="midnightblue" stroke="midnightblue" points="389.24,-571.9 399.76,-570.64 390.75,-565.07 389.24,-571.9"/>
</g>
<!-- Node18&#45;&gt;Node19 -->
<g id="edge23" class="edge">
<title>Node18&#45;&gt;Node19</title>
<path fill="none" stroke="midnightblue" d="M377.48,-580.17C364.08,-580.17 350.31,-580.17 338.2,-580.17"/>
<polygon fill="midnightblue" stroke="midnightblue" points="377.61,-583.67 387.61,-580.17 377.61,-576.67 377.61,-583.67"/>
</g>
<!-- Node18&#45;&gt;Node20 -->
<g id="edge25" class="edge">
<title>Node18&#45;&gt;Node20</title>
<path fill="none" stroke="midnightblue" d="M398.19,-566.61C394.66,-564.95 391.21,-563.14 388,-561.17 369.49,-549.84 370.02,-540.26 352,-528.17 343.71,-522.61 333.93,-517.67 325.16,-513.74"/>
<polygon fill="midnightblue" stroke="midnightblue" points="397.06,-569.94 407.63,-570.66 399.82,-563.5 397.06,-569.94"/>
</g>
<!-- Node19&#45;&gt;Node5 -->
<g id="edge24" class="edge">
<title>Node19&#45;&gt;Node5</title>
<path fill="none" stroke="midnightblue" d="M257.22,-567.67C239.13,-562.26 218.36,-556.04 201.86,-551.11"/>
<polygon fill="midnightblue" stroke="midnightblue" points="256.37,-571.07 266.95,-570.58 258.38,-564.36 256.37,-571.07"/>
</g>
<!-- Node20&#45;&gt;Node5 -->
<g id="edge26" class="edge">
<title>Node20&#45;&gt;Node5</title>
<path fill="none" stroke="midnightblue" d="M257.22,-516.67C239.13,-522.09 218.36,-528.3 201.86,-533.24"/>
<polygon fill="midnightblue" stroke="midnightblue" points="258.38,-519.98 266.95,-513.76 256.37,-513.27 258.38,-519.98"/>
</g>
<!-- Node21&#45;&gt;Node7 -->
<g id="edge29" class="edge">
<title>Node21&#45;&gt;Node7</title>
<path fill="none" stroke="midnightblue" d="M259.56,-176.65C255.29,-179.35 251.31,-182.5 248,-186.17 76.62,-376.19 51.61,-717.04 48.43,-779.28"/>
<polygon fill="midnightblue" stroke="midnightblue" points="261.49,-179.59 268.59,-171.72 258.14,-173.44 261.49,-179.59"/>
</g>
<!-- Node21&#45;&gt;Node8 -->
<g id="edge30" class="edge">
<title>Node21&#45;&gt;Node8</title>
<path fill="none" stroke="midnightblue" d="M237.85,-157.54C193.61,-154.19 134.76,-149.74 94.37,-146.68"/>
<polygon fill="midnightblue" stroke="midnightblue" points="237.67,-161.04 247.9,-158.3 238.2,-154.06 237.67,-161.04"/>
</g>
<!-- Node21&#45;&gt;Node22 -->
<g id="edge31" class="edge">
<title>Node21&#45;&gt;Node22</title>
<path fill="none" stroke="midnightblue" d="M295.16,-181.68C275.67,-280.83 187.97,-726.96 173.9,-798.48"/>
<polygon fill="midnightblue" stroke="midnightblue" points="298.61,-182.29 297.11,-171.81 291.74,-180.94 298.61,-182.29"/>
</g>
<!-- Node21&#45;&gt;Node23 -->
<g id="edge33" class="edge">
<title>Node21&#45;&gt;Node23</title>
<path fill="none" stroke="midnightblue" d="M257.11,-149.64C239.83,-144.47 220.13,-138.57 204.04,-133.76"/>
<polygon fill="midnightblue" stroke="midnightblue" points="256.37,-153.07 266.95,-152.58 258.38,-146.36 256.37,-153.07"/>
</g>
<!-- Node22&#45;&gt;Node7 -->
<g id="edge32" class="edge">
<title>Node22&#45;&gt;Node7</title>
<path fill="none" stroke="midnightblue" d="M120.34,-800.44C110.1,-798.84 99.42,-797.18 89.51,-795.64"/>
<polygon fill="midnightblue" stroke="midnightblue" points="119.97,-803.92 130.39,-802 121.05,-797.01 119.97,-803.92"/>
</g>
<!-- Node23&#45;&gt;Node8 -->
<g id="edge34" class="edge">
<title>Node23&#45;&gt;Node8</title>
<path fill="none" stroke="midnightblue" d="M119.62,-132.02C111.18,-133.33 102.48,-134.69 94.16,-135.98"/>
<polygon fill="midnightblue" stroke="midnightblue" points="120.37,-135.44 129.71,-130.45 119.3,-128.53 120.37,-135.44"/>
</g>
<!-- Node24&#45;&gt;Node21 -->
<g id="edge42" class="edge">
<title>Node24&#45;&gt;Node21</title>
<path fill="none" stroke="midnightblue" d="M397.09,-135.71C377.47,-141.12 354.37,-147.48 335.73,-152.61"/>
<polygon fill="midnightblue" stroke="midnightblue" points="398.28,-139.01 406.99,-132.99 396.42,-132.27 398.28,-139.01"/>
</g>
<!-- Node24&#45;&gt;Node25 -->
<g id="edge43" class="edge">
<title>Node24&#45;&gt;Node25</title>
<path fill="none" stroke="midnightblue" d="M396.84,-118.37C379.94,-116.04 360.5,-113.36 343.55,-111.03"/>
<polygon fill="midnightblue" stroke="midnightblue" points="396.61,-121.87 406.99,-119.77 397.56,-114.93 396.61,-121.87"/>
</g>
</g>
</svg>
        <g id="navigator" transform="translate(0 0)" fill="#404254">
                <rect fill="#f2f5e9" fill-opacity="0.5" stroke="#606060" stroke-width=".5" x="0" y="0" width="60" height="60"/>
                <use id="zoomplus" xlink:href="#zoomPlus" x="17" y="9" onmousedown="handleZoom(evt,'in')"/>
                <use id="zoomminus" xlink:href="#zoomMin" x="42" y="9" onmousedown="handleZoom(evt,'out')"/>
                <use id="reset" xlink:href="#resetDef" x="30" y="36" onmousedown="handleReset()"/>
                <g id="arrowUp" xlink:href="#dirArrow" transform="translate(30 24)" onmousedown="handlePan(0,-1)">
                  <use xlink:href="#rim" fill="#404040">
                        <set attributeName="fill" to="#808080" begin="arrowUp.mouseover" end="arrowUp.mouseout"/>
                  </use>
                  <path fill="none" stroke="white" stroke-width="1.5" d="M0,-3.0v7 M-2.5,-0.5L0,-3.0L2.5,-0.5"/>
                </g>
                <g id="arrowRight" xlink:href="#dirArrow" transform="rotate(90) translate(36 -43)" onmousedown="handlePan(1,0)">
                  <use xlink:href="#rim" fill="#404040">
                        <set attributeName="fill" to="#808080" begin="arrowRight.mouseover" end="arrowRight.mouseout"/>
                  </use>
                  <path fill="none" stroke="white" stroke-width="1.5" d="M0,-3.0v7 M-2.5,-0.5L0,-3.0L2.5,-0.5"/>
                </g>
                <g id="arrowDown" xlink:href="#dirArrow" transform="rotate(180) translate(-30 -48)" onmousedown="handlePan(0,1)">
                  <use xlink:href="#rim" fill="#404040">
                        <set attributeName="fill" to="#808080" begin="arrowDown.mouseover" end="arrowDown.mouseout"/>
                  </use>
                  <path fill="none" stroke="white" stroke-width="1.5" d="M0,-3.0v7 M-2.5,-0.5L0,-3.0L2.5,-0.5"/>
                </g>
                <g id="arrowLeft" xlink:href="#dirArrow" transform="rotate(270) translate(-36 17)" onmousedown="handlePan(-1,0)">
                  <use xlink:href="#rim" fill="#404040">
                        <set attributeName="fill" to="#808080" begin="arrowLeft.mouseover" end="arrowLeft.mouseout"/>
                  </use>
                  <path fill="none" stroke="white" stroke-width="1.5" d="M0,-3.0v7 M-2.5,-0.5L0,-3.0L2.5,-0.5"/>
                </g>
        </g>
        <svg viewBox="0 0 15 15" width="100%" height="30px" preserveAspectRatio="xMaxYMin meet">
         <g id="arrow_out" transform="scale(0.3 0.3)">
          <a xlink:href="list_8c_adb5a6d3f693d0b150af95fa5a131ed0b_icgraph_org.svg" target="_base">
           <rect id="button" ry="5" rx="5" y="6" x="6" height="38" width="38"
                fill="#f2f5e9" fill-opacity="0.5" stroke="#606060" stroke-width="1.0"/>
           <path id="arrow"
             d="M 11.500037,31.436501 C 11.940474,20.09759 22.043105,11.32322 32.158766,21.979434 L 37.068811,17.246167 C 37.068811,17.246167 37.088388,32 37.088388,32 L 22.160133,31.978069 C 22.160133,31.978069 26.997745,27.140456 26.997745,27.140456 C 18.528582,18.264221 13.291696,25.230495 11.500037,31.436501 z"
             style="fill:#404040;"/>
          </a>
         </g>
        </svg>
</svg>
