<?xml version="1.0" encoding="UTF-8" standalone="no"?>
<!DOCTYPE svg PUBLIC "-//W3C//DTD SVG 1.1//EN"
 "http://www.w3.org/Graphics/SVG/1.1/DTD/svg11.dtd">
<!-- Generated by graphviz version 2.43.0 (0)
 -->
<!-- Title: isIteratorValid Pages: 1 -->
<svg width="227pt" height="218pt"
 viewBox="0.00 0.00 227.00 218.00" xmlns="http://www.w3.org/2000/svg" xmlns:xlink="http://www.w3.org/1999/xlink">
<g id="graph0" class="graph" transform="scale(1 1) rotate(0) translate(4 214)">
<title>isIteratorValid</title>
<polygon fill="white" stroke="transparent" points="-4,4 -4,-214 223,-214 223,4 -4,4"/>
<!-- Node1 -->
<g id="node1" class="node">
<title>Node1</title>
<g id="a_node1"><a xlink:title=" ">
<polygon fill="#bfbfbf" stroke="black" points="134,-95.5 134,-114.5 219,-114.5 219,-95.5 134,-95.5"/>
<text text-anchor="middle" x="176.5" y="-102.5" font-family="Helvetica,sans-Serif" font-size="10.00">isIteratorValid</text>
</a>
</g>
</g>
<!-- Node2 -->
<g id="node2" class="node">
<title>Node2</title>
<g id="a_node2"><a xlink:href="list_8h.html#a6263ce01ab89d962cd70a40dff38c7f2" target="_top" xlink:title=" ">
<polygon fill="white" stroke="black" points="0,-190.5 0,-209.5 98,-209.5 98,-190.5 0,-190.5"/>
<text text-anchor="middle" x="49" y="-197.5" font-family="Helvetica,sans-Serif" font-size="10.00">IteratorDecrease</text>
</a>
</g>
</g>
<!-- Node1&#45;&gt;Node2 -->
<g id="edge1" class="edge">
<title>Node1&#45;&gt;Node2</title>
<path fill="none" stroke="midnightblue" d="M161.21,-122.63C146.75,-139.5 123.03,-164.74 98,-181 92.36,-184.66 85.91,-187.81 79.6,-190.43"/>
<polygon fill="midnightblue" stroke="midnightblue" points="164.14,-124.57 167.88,-114.66 158.78,-120.08 164.14,-124.57"/>
</g>
<!-- Node3 -->
<g id="node3" class="node">
<title>Node3</title>
<g id="a_node3"><a xlink:href="list_8h.html#a26b93b5ffd0d4dbc5c453478ded5ddf3" target="_top" xlink:title=" ">
<polygon fill="white" stroke="black" points="2,-152.5 2,-171.5 96,-171.5 96,-152.5 2,-152.5"/>
<text text-anchor="middle" x="49" y="-159.5" font-family="Helvetica,sans-Serif" font-size="10.00">IteratorIncrease</text>
</a>
</g>
</g>
<!-- Node1&#45;&gt;Node3 -->
<g id="edge2" class="edge">
<title>Node1&#45;&gt;Node3</title>
<path fill="none" stroke="midnightblue" d="M147.85,-119.22C133.17,-126.6 114.75,-135.59 98,-143 90.79,-146.19 82.86,-149.43 75.56,-152.31"/>
<polygon fill="midnightblue" stroke="midnightblue" points="149.56,-122.27 156.9,-114.63 146.4,-116.03 149.56,-122.27"/>
</g>
<!-- Node4 -->
<g id="node4" class="node">
<title>Node4</title>
<g id="a_node4"><a xlink:href="list_8h.html#a9ed9856ba60db767e2d2b2bd7f0d0ec9" target="_top" xlink:title=" ">
<polygon fill="white" stroke="black" points="18.5,-114.5 18.5,-133.5 79.5,-133.5 79.5,-114.5 18.5,-114.5"/>
<text text-anchor="middle" x="49" y="-121.5" font-family="Helvetica,sans-Serif" font-size="10.00">ListErase</text>
</a>
</g>
</g>
<!-- Node1&#45;&gt;Node4 -->
<g id="edge3" class="edge">
<title>Node1&#45;&gt;Node4</title>
<path fill="none" stroke="midnightblue" d="M123.54,-112.87C108.6,-115.13 92.81,-117.52 79.71,-119.5"/>
<polygon fill="midnightblue" stroke="midnightblue" points="124.35,-116.28 133.71,-111.33 123.3,-109.36 124.35,-116.28"/>
</g>
<!-- Node5 -->
<g id="node5" class="node">
<title>Node5</title>
<g id="a_node5"><a xlink:href="list_8h.html#a7d48b3838b93a9d9c1f505d4d64772e5" target="_top" xlink:title=" ">
<polygon fill="white" stroke="black" points="10,-76.5 10,-95.5 88,-95.5 88,-76.5 10,-76.5"/>
<text text-anchor="middle" x="49" y="-83.5" font-family="Helvetica,sans-Serif" font-size="10.00">ListGetValue</text>
</a>
</g>
</g>
<!-- Node1&#45;&gt;Node5 -->
<g id="edge4" class="edge">
<title>Node1&#45;&gt;Node5</title>
<path fill="none" stroke="midnightblue" d="M123.5,-97.13C111.69,-95.34 99.34,-93.47 88.22,-91.79"/>
<polygon fill="midnightblue" stroke="midnightblue" points="123.3,-100.64 133.71,-98.67 124.35,-93.72 123.3,-100.64"/>
</g>
<!-- Node6 -->
<g id="node6" class="node">
<title>Node6</title>
<g id="a_node6"><a xlink:href="list_8h.html#ac56df94c6dff4c7d05afdaa7669409d2" target="_top" xlink:title=" ">
<polygon fill="white" stroke="black" points="6.5,-38.5 6.5,-57.5 91.5,-57.5 91.5,-38.5 6.5,-38.5"/>
<text text-anchor="middle" x="49" y="-45.5" font-family="Helvetica,sans-Serif" font-size="10.00">ListInsertAfter</text>
</a>
</g>
</g>
<!-- Node1&#45;&gt;Node6 -->
<g id="edge5" class="edge">
<title>Node1&#45;&gt;Node6</title>
<path fill="none" stroke="midnightblue" d="M147.85,-90.78C133.17,-83.4 114.75,-74.41 98,-67 90.79,-63.81 82.86,-60.57 75.56,-57.69"/>
<polygon fill="midnightblue" stroke="midnightblue" points="146.4,-93.97 156.9,-95.37 149.56,-87.73 146.4,-93.97"/>
</g>
<!-- Node7 -->
<g id="node7" class="node">
<title>Node7</title>
<g id="a_node7"><a xlink:href="list_8h.html#a06dd8071a4dd95526a9b8612900dd9cb" target="_top" xlink:title=" ">
<polygon fill="white" stroke="black" points="2,-0.5 2,-19.5 96,-19.5 96,-0.5 2,-0.5"/>
<text text-anchor="middle" x="49" y="-7.5" font-family="Helvetica,sans-Serif" font-size="10.00">ListInsertBefore</text>
</a>
</g>
</g>
<!-- Node1&#45;&gt;Node7 -->
<g id="edge6" class="edge">
<title>Node1&#45;&gt;Node7</title>
<path fill="none" stroke="midnightblue" d="M161.21,-87.37C146.75,-70.5 123.03,-45.26 98,-29 92.36,-25.34 85.91,-22.19 79.6,-19.57"/>
<polygon fill="midnightblue" stroke="midnightblue" points="158.78,-89.92 167.88,-95.34 164.14,-85.43 158.78,-89.92"/>
</g>
</g>
</svg>
