<?xml version="1.0" encoding="UTF-8" standalone="no"?>
<!DOCTYPE svg PUBLIC "-//W3C//DTD SVG 1.1//EN"
 "http://www.w3.org/Graphics/SVG/1.1/DTD/svg11.dtd">
<!-- Generated by graphviz version 2.43.0 (0)
 -->
<!-- Title: ListGetValue Pages: 1 -->
<svg width="404pt" height="66pt"
 viewBox="0.00 0.00 404.00 66.00" xmlns="http://www.w3.org/2000/svg" xmlns:xlink="http://www.w3.org/1999/xlink">
<g id="graph0" class="graph" transform="scale(1 1) rotate(0) translate(4 62)">
<title>ListGetValue</title>
<polygon fill="white" stroke="transparent" points="-4,4 -4,-62 400,-62 400,4 -4,4"/>
<!-- Node1 -->
<g id="node1" class="node">
<title>Node1</title>
<g id="a_node1"><a xlink:title=" ">
<polygon fill="#bfbfbf" stroke="black" points="0,-19.5 0,-38.5 78,-38.5 78,-19.5 0,-19.5"/>
<text text-anchor="middle" x="39" y="-26.5" font-family="Helvetica,sans-Serif" font-size="10.00">ListGetValue</text>
</a>
</g>
</g>
<!-- Node2 -->
<g id="node2" class="node">
<title>Node2</title>
<g id="a_node2"><a xlink:href="list_8c.html#adfd8599d25d547782ffb93f50313c092" target="_top" xlink:title=" ">
<polygon fill="white" stroke="black" points="114,-38.5 114,-57.5 199,-57.5 199,-38.5 114,-38.5"/>
<text text-anchor="middle" x="156.5" y="-45.5" font-family="Helvetica,sans-Serif" font-size="10.00">isIteratorValid</text>
</a>
</g>
</g>
<!-- Node1&#45;&gt;Node2 -->
<g id="edge1" class="edge">
<title>Node1&#45;&gt;Node2</title>
<path fill="none" stroke="midnightblue" d="M78.14,-35.27C86.36,-36.63 95.18,-38.08 103.81,-39.5"/>
<polygon fill="midnightblue" stroke="midnightblue" points="103.38,-42.97 113.82,-41.14 104.52,-36.07 103.38,-42.97"/>
</g>
<!-- Node4 -->
<g id="node4" class="node">
<title>Node4</title>
<g id="a_node4"><a xlink:href="list_8c.html#a262ea758423a46a6ca0ff4e722e895b5" target="_top" xlink:title=" ">
<polygon fill="white" stroke="black" points="235,-0.5 235,-19.5 297,-19.5 297,-0.5 235,-0.5"/>
<text text-anchor="middle" x="266" y="-7.5" font-family="Helvetica,sans-Serif" font-size="10.00">ListVerify</text>
</a>
</g>
</g>
<!-- Node1&#45;&gt;Node4 -->
<g id="edge5" class="edge">
<title>Node1&#45;&gt;Node4</title>
<path fill="none" stroke="midnightblue" d="M78.17,-25.78C118.97,-22.33 183.38,-16.89 224.91,-13.39"/>
<polygon fill="midnightblue" stroke="midnightblue" points="225.27,-16.87 234.94,-12.54 224.68,-9.89 225.27,-16.87"/>
</g>
<!-- Node3 -->
<g id="node3" class="node">
<title>Node3</title>
<g id="a_node3"><a xlink:href="list_8c.html#adb5a6d3f693d0b150af95fa5a131ed0b" target="_top" xlink:title=" ">
<polygon fill="white" stroke="black" points="333,-19.5 333,-38.5 396,-38.5 396,-19.5 333,-19.5"/>
<text text-anchor="middle" x="364.5" y="-26.5" font-family="Helvetica,sans-Serif" font-size="10.00">ListDump</text>
</a>
</g>
</g>
<!-- Node2&#45;&gt;Node3 -->
<g id="edge2" class="edge">
<title>Node2&#45;&gt;Node3</title>
<path fill="none" stroke="midnightblue" d="M199.19,-44.16C235.25,-40.83 287.07,-36.05 322.83,-32.75"/>
<polygon fill="midnightblue" stroke="midnightblue" points="323.28,-36.22 332.92,-31.82 322.64,-29.25 323.28,-36.22"/>
</g>
<!-- Node2&#45;&gt;Node4 -->
<g id="edge3" class="edge">
<title>Node2&#45;&gt;Node4</title>
<path fill="none" stroke="midnightblue" d="M184.63,-38.41C197.87,-33.73 213.99,-28.03 228.31,-22.97"/>
<polygon fill="midnightblue" stroke="midnightblue" points="229.62,-26.22 237.88,-19.59 227.29,-19.62 229.62,-26.22"/>
</g>
<!-- Node4&#45;&gt;Node3 -->
<g id="edge4" class="edge">
<title>Node4&#45;&gt;Node3</title>
<path fill="none" stroke="midnightblue" d="M297,-15.91C305.2,-17.52 314.21,-19.3 322.89,-21"/>
<polygon fill="midnightblue" stroke="midnightblue" points="322.36,-24.47 332.85,-22.97 323.71,-17.6 322.36,-24.47"/>
</g>
</g>
</svg>
