<?xml version="1.0" encoding="UTF-8" standalone="no"?>
<!DOCTYPE svg PUBLIC "-//W3C//DTD SVG 1.1//EN"
 "http://www.w3.org/Graphics/SVG/1.1/DTD/svg11.dtd">
<!-- Generated by graphviz version 2.43.0 (0)
 -->
<!-- Title: ListPushFront Pages: 1 -->
<svg width="529pt" height="85pt"
 viewBox="0.00 0.00 529.00 85.00" xmlns="http://www.w3.org/2000/svg" xmlns:xlink="http://www.w3.org/1999/xlink">
<g id="graph0" class="graph" transform="scale(1 1) rotate(0) translate(4 81)">
<title>ListPushFront</title>
<polygon fill="white" stroke="transparent" points="-4,4 -4,-81 525,-81 525,4 -4,4"/>
<!-- Node1 -->
<g id="node1" class="node">
<title>Node1</title>
<g id="a_node1"><a xlink:title=" ">
<polygon fill="#bfbfbf" stroke="black" points="0,-0.5 0,-19.5 82,-19.5 82,-0.5 0,-0.5"/>
<text text-anchor="middle" x="41" y="-7.5" font-family="Helvetica,sans-Serif" font-size="10.00">ListPushFront</text>
</a>
</g>
</g>
<!-- Node2 -->
<g id="node2" class="node">
<title>Node2</title>
<g id="a_node2"><a xlink:href="list_8c.html#a2f513993aacfccc7af38c69434589a40" target="_top" xlink:title=" ">
<polygon fill="white" stroke="black" points="118,-19.5 118,-38.5 222,-38.5 222,-19.5 118,-19.5"/>
<text text-anchor="middle" x="170" y="-26.5" font-family="Helvetica,sans-Serif" font-size="10.00">ListInsert_Internal</text>
</a>
</g>
</g>
<!-- Node1&#45;&gt;Node2 -->
<g id="edge1" class="edge">
<title>Node1&#45;&gt;Node2</title>
<path fill="none" stroke="midnightblue" d="M82.18,-16.01C90.33,-17.23 99.07,-18.54 107.76,-19.84"/>
<polygon fill="midnightblue" stroke="midnightblue" points="107.49,-23.34 117.89,-21.35 108.52,-16.41 107.49,-23.34"/>
</g>
<!-- Node4 -->
<g id="node4" class="node">
<title>Node4</title>
<g id="a_node4"><a xlink:href="list_8c.html#a262ea758423a46a6ca0ff4e722e895b5" target="_top" xlink:title=" ">
<polygon fill="white" stroke="black" points="360,-19.5 360,-38.5 422,-38.5 422,-19.5 360,-19.5"/>
<text text-anchor="middle" x="391" y="-26.5" font-family="Helvetica,sans-Serif" font-size="10.00">ListVerify</text>
</a>
</g>
</g>
<!-- Node1&#45;&gt;Node4 -->
<g id="edge6" class="edge">
<title>Node1&#45;&gt;Node4</title>
<path fill="none" stroke="midnightblue" d="M82.07,-8.71C118.57,-7.84 173.95,-7.29 222,-10 265.82,-12.47 315.77,-18.54 349.73,-23.16"/>
<polygon fill="midnightblue" stroke="midnightblue" points="349.35,-26.64 359.74,-24.54 350.31,-19.7 349.35,-26.64"/>
</g>
<!-- Node3 -->
<g id="node3" class="node">
<title>Node3</title>
<g id="a_node3"><a xlink:href="list_8c.html#a5b2989c7bbbdf21204e9a6e9b92ed1dc" target="_top" xlink:title=" ">
<polygon fill="white" stroke="black" points="258,-57.5 258,-76.5 324,-76.5 324,-57.5 258,-57.5"/>
<text text-anchor="middle" x="291" y="-64.5" font-family="Helvetica,sans-Serif" font-size="10.00">ListResize</text>
</a>
</g>
</g>
<!-- Node2&#45;&gt;Node3 -->
<g id="edge2" class="edge">
<title>Node2&#45;&gt;Node3</title>
<path fill="none" stroke="midnightblue" d="M201.03,-38.59C215.97,-43.36 234.22,-49.19 250.3,-54.32"/>
<polygon fill="midnightblue" stroke="midnightblue" points="249.39,-57.71 259.98,-57.41 251.52,-51.04 249.39,-57.71"/>
</g>
<!-- Node2&#45;&gt;Node4 -->
<g id="edge5" class="edge">
<title>Node2&#45;&gt;Node4</title>
<path fill="none" stroke="midnightblue" d="M222.07,-29C260.95,-29 313.74,-29 349.68,-29"/>
<polygon fill="midnightblue" stroke="midnightblue" points="349.8,-32.5 359.8,-29 349.8,-25.5 349.8,-32.5"/>
</g>
<!-- Node3&#45;&gt;Node4 -->
<g id="edge3" class="edge">
<title>Node3&#45;&gt;Node4</title>
<path fill="none" stroke="midnightblue" d="M316.73,-57.41C328.57,-52.82 342.94,-47.25 355.8,-42.26"/>
<polygon fill="midnightblue" stroke="midnightblue" points="357.22,-45.46 365.28,-38.59 354.69,-38.94 357.22,-45.46"/>
</g>
<!-- Node5 -->
<g id="node5" class="node">
<title>Node5</title>
<g id="a_node5"><a xlink:href="list_8c.html#adb5a6d3f693d0b150af95fa5a131ed0b" target="_top" xlink:title=" ">
<polygon fill="white" stroke="black" points="458,-19.5 458,-38.5 521,-38.5 521,-19.5 458,-19.5"/>
<text text-anchor="middle" x="489.5" y="-26.5" font-family="Helvetica,sans-Serif" font-size="10.00">ListDump</text>
</a>
</g>
</g>
<!-- Node4&#45;&gt;Node5 -->
<g id="edge4" class="edge">
<title>Node4&#45;&gt;Node5</title>
<path fill="none" stroke="midnightblue" d="M422,-29C430.11,-29 439.02,-29 447.6,-29"/>
<polygon fill="midnightblue" stroke="midnightblue" points="447.85,-32.5 457.85,-29 447.85,-25.5 447.85,-32.5"/>
</g>
</g>
</svg>
