<?xml version="1.0" encoding="UTF-8" standalone="no"?>
<!DOCTYPE svg PUBLIC "-//W3C//DTD SVG 1.1//EN"
 "http://www.w3.org/Graphics/SVG/1.1/DTD/svg11.dtd">
<!-- Generated by graphviz version 2.43.0 (0)
 -->
<!-- Title: ListErase Pages: 1 -->
<svg width="519pt" height="180pt"
 viewBox="0.00 0.00 519.00 180.00" xmlns="http://www.w3.org/2000/svg" xmlns:xlink="http://www.w3.org/1999/xlink">
<g id="graph0" class="graph" transform="scale(1 1) rotate(0) translate(4 176)">
<title>ListErase</title>
<polygon fill="white" stroke="transparent" points="-4,4 -4,-176 515,-176 515,4 -4,4"/>
<!-- Node1 -->
<g id="node1" class="node">
<title>Node1</title>
<g id="a_node1"><a xlink:title=" ">
<polygon fill="#bfbfbf" stroke="black" points="0,-76.5 0,-95.5 61,-95.5 61,-76.5 0,-76.5"/>
<text text-anchor="middle" x="30.5" y="-83.5" font-family="Helvetica,sans-Serif" font-size="10.00">ListErase</text>
</a>
</g>
</g>
<!-- Node2 -->
<g id="node2" class="node">
<title>Node2</title>
<g id="a_node2"><a xlink:href="list_8c.html#adfd8599d25d547782ffb93f50313c092" target="_top" xlink:title=" ">
<polygon fill="white" stroke="black" points="219.5,-152.5 219.5,-171.5 304.5,-171.5 304.5,-152.5 219.5,-152.5"/>
<text text-anchor="middle" x="262" y="-159.5" font-family="Helvetica,sans-Serif" font-size="10.00">isIteratorValid</text>
</a>
</g>
</g>
<!-- Node1&#45;&gt;Node2 -->
<g id="edge1" class="edge">
<title>Node1&#45;&gt;Node2</title>
<path fill="none" stroke="midnightblue" d="M40.22,-95.5C51.89,-107.55 73.81,-127.97 97,-138 132.39,-153.3 175.67,-159.16 208.87,-161.27"/>
<polygon fill="midnightblue" stroke="midnightblue" points="209.11,-164.79 219.28,-161.83 209.48,-157.8 209.11,-164.79"/>
</g>
<!-- Node4 -->
<g id="node4" class="node">
<title>Node4</title>
<g id="a_node4"><a xlink:href="list_8c.html#a262ea758423a46a6ca0ff4e722e895b5" target="_top" xlink:title=" ">
<polygon fill="white" stroke="black" points="350,-95.5 350,-114.5 412,-114.5 412,-95.5 350,-95.5"/>
<text text-anchor="middle" x="381" y="-102.5" font-family="Helvetica,sans-Serif" font-size="10.00">ListVerify</text>
</a>
</g>
</g>
<!-- Node1&#45;&gt;Node4 -->
<g id="edge13" class="edge">
<title>Node1&#45;&gt;Node4</title>
<path fill="none" stroke="midnightblue" d="M58.88,-95.58C70.49,-99.21 84.26,-102.96 97,-105 182.45,-118.69 284.3,-113.54 339.52,-109"/>
<polygon fill="midnightblue" stroke="midnightblue" points="339.93,-112.47 349.59,-108.13 339.33,-105.5 339.93,-112.47"/>
</g>
<!-- Node5 -->
<g id="node5" class="node">
<title>Node5</title>
<g id="a_node5"><a xlink:href="list_8c.html#a957ee1a520cba2eb92b8551ac42f57e5" target="_top" xlink:title=" ">
<polygon fill="white" stroke="black" points="210,-38.5 210,-57.5 314,-57.5 314,-38.5 210,-38.5"/>
<text text-anchor="middle" x="262" y="-45.5" font-family="Helvetica,sans-Serif" font-size="10.00">ListErase_Internal</text>
</a>
</g>
</g>
<!-- Node1&#45;&gt;Node5 -->
<g id="edge5" class="edge">
<title>Node1&#45;&gt;Node5</title>
<path fill="none" stroke="midnightblue" d="M60.59,-76.43C71.86,-73.02 84.93,-69.43 97,-67 130.57,-60.23 168.54,-55.65 199.48,-52.67"/>
<polygon fill="midnightblue" stroke="midnightblue" points="200.05,-56.14 209.68,-51.73 199.4,-49.17 200.05,-56.14"/>
</g>
<!-- Node6 -->
<g id="node6" class="node">
<title>Node6</title>
<g id="a_node6"><a xlink:href="list_8c.html#ac485b4349fbeff1dc2565e7cd88a83d7" target="_top" xlink:title=" ">
<polygon fill="white" stroke="black" points="97.5,-76.5 97.5,-95.5 173.5,-95.5 173.5,-76.5 97.5,-76.5"/>
<text text-anchor="middle" x="135.5" y="-83.5" font-family="Helvetica,sans-Serif" font-size="10.00">ListPopBack</text>
</a>
</g>
</g>
<!-- Node1&#45;&gt;Node6 -->
<g id="edge7" class="edge">
<title>Node1&#45;&gt;Node6</title>
<path fill="none" stroke="midnightblue" d="M61.02,-86C69.13,-86 78.15,-86 87.01,-86"/>
<polygon fill="midnightblue" stroke="midnightblue" points="87.27,-89.5 97.27,-86 87.27,-82.5 87.27,-89.5"/>
</g>
<!-- Node7 -->
<g id="node7" class="node">
<title>Node7</title>
<g id="a_node7"><a xlink:href="list_8c.html#a9fa41f03d1f4dc775abb9d794364108a" target="_top" xlink:title=" ">
<polygon fill="white" stroke="black" points="97,-0.5 97,-19.5 174,-19.5 174,-0.5 97,-0.5"/>
<text text-anchor="middle" x="135.5" y="-7.5" font-family="Helvetica,sans-Serif" font-size="10.00">ListPopFront</text>
</a>
</g>
</g>
<!-- Node1&#45;&gt;Node7 -->
<g id="edge10" class="edge">
<title>Node1&#45;&gt;Node7</title>
<path fill="none" stroke="midnightblue" d="M42.82,-76.43C55.67,-65.71 77.39,-48.01 97,-34 101.11,-31.07 105.56,-28.07 109.92,-25.23"/>
<polygon fill="midnightblue" stroke="midnightblue" points="112.03,-28.03 118.57,-19.69 108.26,-22.13 112.03,-28.03"/>
</g>
<!-- Node3 -->
<g id="node3" class="node">
<title>Node3</title>
<g id="a_node3"><a xlink:href="list_8c.html#adb5a6d3f693d0b150af95fa5a131ed0b" target="_top" xlink:title=" ">
<polygon fill="white" stroke="black" points="448,-114.5 448,-133.5 511,-133.5 511,-114.5 448,-114.5"/>
<text text-anchor="middle" x="479.5" y="-121.5" font-family="Helvetica,sans-Serif" font-size="10.00">ListDump</text>
</a>
</g>
</g>
<!-- Node2&#45;&gt;Node3 -->
<g id="edge2" class="edge">
<title>Node2&#45;&gt;Node3</title>
<path fill="none" stroke="midnightblue" d="M304.55,-154.67C342.9,-147.91 399.51,-137.93 437.63,-131.21"/>
<polygon fill="midnightblue" stroke="midnightblue" points="438.63,-134.59 447.87,-129.4 437.41,-127.69 438.63,-134.59"/>
</g>
<!-- Node2&#45;&gt;Node4 -->
<g id="edge3" class="edge">
<title>Node2&#45;&gt;Node4</title>
<path fill="none" stroke="midnightblue" d="M283.9,-152.3C293.15,-147.98 304.14,-142.78 314,-138 326.52,-131.93 340.29,-125.07 352,-119.18"/>
<polygon fill="midnightblue" stroke="midnightblue" points="353.93,-122.13 361.28,-114.51 350.78,-115.88 353.93,-122.13"/>
</g>
<!-- Node4&#45;&gt;Node3 -->
<g id="edge4" class="edge">
<title>Node4&#45;&gt;Node3</title>
<path fill="none" stroke="midnightblue" d="M412,-110.91C420.2,-112.52 429.21,-114.3 437.89,-116"/>
<polygon fill="midnightblue" stroke="midnightblue" points="437.36,-119.47 447.85,-117.97 438.71,-112.6 437.36,-119.47"/>
</g>
<!-- Node5&#45;&gt;Node4 -->
<g id="edge6" class="edge">
<title>Node5&#45;&gt;Node4</title>
<path fill="none" stroke="midnightblue" d="M283.9,-57.7C293.15,-62.02 304.14,-67.22 314,-72 326.52,-78.07 340.29,-84.93 352,-90.82"/>
<polygon fill="midnightblue" stroke="midnightblue" points="350.78,-94.12 361.28,-95.49 353.93,-87.87 350.78,-94.12"/>
</g>
<!-- Node6&#45;&gt;Node4 -->
<g id="edge9" class="edge">
<title>Node6&#45;&gt;Node4</title>
<path fill="none" stroke="midnightblue" d="M173.75,-88.91C218.49,-92.4 293.28,-98.23 339.44,-101.84"/>
<polygon fill="midnightblue" stroke="midnightblue" points="339.44,-105.35 349.68,-102.63 339.99,-98.37 339.44,-105.35"/>
</g>
<!-- Node6&#45;&gt;Node5 -->
<g id="edge8" class="edge">
<title>Node6&#45;&gt;Node5</title>
<path fill="none" stroke="midnightblue" d="M167.92,-76.41C183.69,-71.6 203.01,-65.7 219.94,-60.53"/>
<polygon fill="midnightblue" stroke="midnightblue" points="221.05,-63.85 229.59,-57.59 219.01,-57.16 221.05,-63.85"/>
</g>
<!-- Node7&#45;&gt;Node4 -->
<g id="edge12" class="edge">
<title>Node7&#45;&gt;Node4</title>
<path fill="none" stroke="midnightblue" d="M174.12,-6.33C211.7,-4.37 270.04,-6.05 314,-29 338.7,-41.9 358.24,-68.22 369.46,-86.23"/>
<polygon fill="midnightblue" stroke="midnightblue" points="366.7,-88.44 374.82,-95.25 372.72,-84.86 366.7,-88.44"/>
</g>
<!-- Node7&#45;&gt;Node5 -->
<g id="edge11" class="edge">
<title>Node7&#45;&gt;Node5</title>
<path fill="none" stroke="midnightblue" d="M167.92,-19.59C183.69,-24.4 203.01,-30.3 219.94,-35.47"/>
<polygon fill="midnightblue" stroke="midnightblue" points="219.01,-38.84 229.59,-38.41 221.05,-32.15 219.01,-38.84"/>
</g>
</g>
</svg>
