<?xml version="1.0" encoding="UTF-8" standalone="no"?>
<!DOCTYPE svg PUBLIC "-//W3C//DTD SVG 1.1//EN"
 "http://www.w3.org/Graphics/SVG/1.1/DTD/svg11.dtd">
<!-- Generated by graphviz version 2.43.0 (0)
 -->
<!-- Title: IteratorIncrease Pages: 1 -->
<svg width="420pt" height="66pt"
 viewBox="0.00 0.00 420.00 66.00" xmlns="http://www.w3.org/2000/svg" xmlns:xlink="http://www.w3.org/1999/xlink">
<g id="graph0" class="graph" transform="scale(1 1) rotate(0) translate(4 62)">
<title>IteratorIncrease</title>
<polygon fill="white" stroke="transparent" points="-4,4 -4,-62 416,-62 416,4 -4,4"/>
<!-- Node1 -->
<g id="node1" class="node">
<title>Node1</title>
<g id="a_node1"><a xlink:title=" ">
<polygon fill="#bfbfbf" stroke="black" points="0,-19.5 0,-38.5 94,-38.5 94,-19.5 0,-19.5"/>
<text text-anchor="middle" x="47" y="-26.5" font-family="Helvetica,sans-Serif" font-size="10.00">IteratorIncrease</text>
</a>
</g>
</g>
<!-- Node2 -->
<g id="node2" class="node">
<title>Node2</title>
<g id="a_node2"><a xlink:href="list_8c.html#adfd8599d25d547782ffb93f50313c092" target="_top" xlink:title=" ">
<polygon fill="white" stroke="black" points="130,-38.5 130,-57.5 215,-57.5 215,-38.5 130,-38.5"/>
<text text-anchor="middle" x="172.5" y="-45.5" font-family="Helvetica,sans-Serif" font-size="10.00">isIteratorValid</text>
</a>
</g>
</g>
<!-- Node1&#45;&gt;Node2 -->
<g id="edge1" class="edge">
<title>Node1&#45;&gt;Node2</title>
<path fill="none" stroke="midnightblue" d="M94.34,-36.13C102.61,-37.4 111.28,-38.73 119.69,-40.03"/>
<polygon fill="midnightblue" stroke="midnightblue" points="119.37,-43.52 129.78,-41.58 120.43,-36.6 119.37,-43.52"/>
</g>
<!-- Node4 -->
<g id="node4" class="node">
<title>Node4</title>
<g id="a_node4"><a xlink:href="list_8c.html#a262ea758423a46a6ca0ff4e722e895b5" target="_top" xlink:title=" ">
<polygon fill="white" stroke="black" points="251,-0.5 251,-19.5 313,-19.5 313,-0.5 251,-0.5"/>
<text text-anchor="middle" x="282" y="-7.5" font-family="Helvetica,sans-Serif" font-size="10.00">ListVerify</text>
</a>
</g>
</g>
<!-- Node1&#45;&gt;Node4 -->
<g id="edge5" class="edge">
<title>Node1&#45;&gt;Node4</title>
<path fill="none" stroke="midnightblue" d="M94.03,-25.25C136.86,-21.75 200.03,-16.6 240.85,-13.27"/>
<polygon fill="midnightblue" stroke="midnightblue" points="241.29,-16.75 250.97,-12.45 240.72,-9.77 241.29,-16.75"/>
</g>
<!-- Node3 -->
<g id="node3" class="node">
<title>Node3</title>
<g id="a_node3"><a xlink:href="list_8c.html#adb5a6d3f693d0b150af95fa5a131ed0b" target="_top" xlink:title=" ">
<polygon fill="white" stroke="black" points="349,-19.5 349,-38.5 412,-38.5 412,-19.5 349,-19.5"/>
<text text-anchor="middle" x="380.5" y="-26.5" font-family="Helvetica,sans-Serif" font-size="10.00">ListDump</text>
</a>
</g>
</g>
<!-- Node2&#45;&gt;Node3 -->
<g id="edge2" class="edge">
<title>Node2&#45;&gt;Node3</title>
<path fill="none" stroke="midnightblue" d="M215.19,-44.16C251.25,-40.83 303.07,-36.05 338.83,-32.75"/>
<polygon fill="midnightblue" stroke="midnightblue" points="339.28,-36.22 348.92,-31.82 338.64,-29.25 339.28,-36.22"/>
</g>
<!-- Node2&#45;&gt;Node4 -->
<g id="edge3" class="edge">
<title>Node2&#45;&gt;Node4</title>
<path fill="none" stroke="midnightblue" d="M200.63,-38.41C213.87,-33.73 229.99,-28.03 244.31,-22.97"/>
<polygon fill="midnightblue" stroke="midnightblue" points="245.62,-26.22 253.88,-19.59 243.29,-19.62 245.62,-26.22"/>
</g>
<!-- Node4&#45;&gt;Node3 -->
<g id="edge4" class="edge">
<title>Node4&#45;&gt;Node3</title>
<path fill="none" stroke="midnightblue" d="M313,-15.91C321.2,-17.52 330.21,-19.3 338.89,-21"/>
<polygon fill="midnightblue" stroke="midnightblue" points="338.36,-24.47 348.85,-22.97 339.71,-17.6 338.36,-24.47"/>
</g>
</g>
</svg>
