<?xml version="1.0" encoding="UTF-8" standalone="no"?>
<!DOCTYPE svg PUBLIC "-//W3C//DTD SVG 1.1//EN"
 "http://www.w3.org/Graphics/SVG/1.1/DTD/svg11.dtd">
<!-- Generated by graphviz version 2.43.0 (0)
 -->
<!-- Title: ListGetValue Pages: 1 -->
<svg width="421pt" height="47pt"
 viewBox="0.00 0.00 421.00 47.00" xmlns="http://www.w3.org/2000/svg" xmlns:xlink="http://www.w3.org/1999/xlink">
<g id="graph0" class="graph" transform="scale(1 1) rotate(0) translate(4 43)">
<title>ListGetValue</title>
<polygon fill="white" stroke="transparent" points="-4,4 -4,-43 417,-43 417,4 -4,4"/>
<!-- Node1 -->
<g id="node1" class="node">
<title>Node1</title>
<g id="a_node1"><a xlink:title=" ">
<polygon fill="#bfbfbf" stroke="black" points="0,-0.5 0,-19.5 78,-19.5 78,-0.5 0,-0.5"/>
<text text-anchor="middle" x="39" y="-7.5" font-family="Helvetica,sans-Serif" font-size="10.00">ListGetValue</text>
</a>
</g>
</g>
<!-- Node2 -->
<g id="node2" class="node">
<title>Node2</title>
<g id="a_node2"><a xlink:href="list_8c.html#a6ec17c7954b7d31644964be3301cd0ad" target="_top" xlink:title=" ">
<polygon fill="white" stroke="black" points="114,-19.5 114,-38.5 216,-38.5 216,-19.5 114,-19.5"/>
<text text-anchor="middle" x="165" y="-26.5" font-family="Helvetica,sans-Serif" font-size="10.00">FindArrayNumber</text>
</a>
</g>
</g>
<!-- Node1&#45;&gt;Node2 -->
<g id="edge1" class="edge">
<title>Node1&#45;&gt;Node2</title>
<path fill="none" stroke="midnightblue" d="M78.22,-15.86C86.3,-17.09 95.01,-18.43 103.69,-19.76"/>
<polygon fill="midnightblue" stroke="midnightblue" points="103.39,-23.25 113.81,-21.31 104.45,-16.33 103.39,-23.25"/>
</g>
<!-- Node3 -->
<g id="node3" class="node">
<title>Node3</title>
<g id="a_node3"><a xlink:href="list_8c.html#a262ea758423a46a6ca0ff4e722e895b5" target="_top" xlink:title=" ">
<polygon fill="white" stroke="black" points="252,-0.5 252,-19.5 314,-19.5 314,-0.5 252,-0.5"/>
<text text-anchor="middle" x="283" y="-7.5" font-family="Helvetica,sans-Serif" font-size="10.00">ListVerify</text>
</a>
</g>
</g>
<!-- Node1&#45;&gt;Node3 -->
<g id="edge4" class="edge">
<title>Node1&#45;&gt;Node3</title>
<path fill="none" stroke="midnightblue" d="M78.08,-10C122.66,-10 196.17,-10 241.69,-10"/>
<polygon fill="midnightblue" stroke="midnightblue" points="241.79,-13.5 251.79,-10 241.79,-6.5 241.79,-13.5"/>
</g>
<!-- Node2&#45;&gt;Node3 -->
<g id="edge2" class="edge">
<title>Node2&#45;&gt;Node3</title>
<path fill="none" stroke="midnightblue" d="M216.2,-20.78C224.73,-19.38 233.48,-17.95 241.71,-16.6"/>
<polygon fill="midnightblue" stroke="midnightblue" points="242.49,-20.02 251.79,-14.95 241.36,-13.11 242.49,-20.02"/>
</g>
<!-- Node4 -->
<g id="node4" class="node">
<title>Node4</title>
<g id="a_node4"><a xlink:href="list_8c.html#adb5a6d3f693d0b150af95fa5a131ed0b" target="_top" xlink:title=" ">
<polygon fill="white" stroke="black" points="350,-0.5 350,-19.5 413,-19.5 413,-0.5 350,-0.5"/>
<text text-anchor="middle" x="381.5" y="-7.5" font-family="Helvetica,sans-Serif" font-size="10.00">ListDump</text>
</a>
</g>
</g>
<!-- Node3&#45;&gt;Node4 -->
<g id="edge3" class="edge">
<title>Node3&#45;&gt;Node4</title>
<path fill="none" stroke="midnightblue" d="M314,-10C322.11,-10 331.02,-10 339.6,-10"/>
<polygon fill="midnightblue" stroke="midnightblue" points="339.85,-13.5 349.85,-10 339.85,-6.5 339.85,-13.5"/>
</g>
</g>
</svg>
