<?xml version="1.0" encoding="UTF-8" standalone="no"?>
<!DOCTYPE svg PUBLIC "-//W3C//DTD SVG 1.1//EN"
 "http://www.w3.org/Graphics/SVG/1.1/DTD/svg11.dtd">
<!-- Generated by graphviz version 2.43.0 (0)
 -->
<!-- Title: list.c Pages: 1 -->
<svg width="204pt" height="140pt"
 viewBox="0.00 0.00 203.84 140.00" xmlns="http://www.w3.org/2000/svg" xmlns:xlink="http://www.w3.org/1999/xlink">
<g id="graph0" class="graph" transform="scale(1 1) rotate(0) translate(4 136)">
<title>list.c</title>
<polygon fill="white" stroke="transparent" points="-4,4 -4,-136 199.84,-136 199.84,4 -4,4"/>
<!-- Node1 -->
<g id="node1" class="node">
<title>Node1</title>
<g id="a_node1"><a xlink:title=" ">
<polygon fill="#bfbfbf" stroke="black" points="52.34,-112.5 52.34,-131.5 92.34,-131.5 92.34,-112.5 52.34,-112.5"/>
<text text-anchor="middle" x="72.34" y="-119.5" font-family="Helvetica,sans-Serif" font-size="10.00">list.c</text>
</a>
</g>
</g>
<!-- Node2 -->
<g id="node2" class="node">
<title>Node2</title>
<g id="a_node2"><a xlink:title=" ">
<polygon fill="white" stroke="#bfbfbf" points="52.84,-0.5 52.84,-19.5 105.84,-19.5 105.84,-0.5 52.84,-0.5"/>
<text text-anchor="middle" x="79.34" y="-7.5" font-family="Helvetica,sans-Serif" font-size="10.00">stdlib.h</text>
</a>
</g>
</g>
<!-- Node1&#45;&gt;Node2 -->
<g id="edge1" class="edge">
<title>Node1&#45;&gt;Node2</title>
<path fill="none" stroke="midnightblue" d="M52.13,-113.3C26.99,-102.45 -11.01,-81.16 3.34,-56 12.02,-40.78 28.09,-30.18 43.23,-23.11"/>
<polygon fill="midnightblue" stroke="midnightblue" points="44.65,-26.31 52.46,-19.15 41.89,-19.87 44.65,-26.31"/>
</g>
<!-- Node3 -->
<g id="node3" class="node">
<title>Node3</title>
<g id="a_node3"><a xlink:title=" ">
<polygon fill="white" stroke="#bfbfbf" points="12.34,-56.5 12.34,-75.5 62.34,-75.5 62.34,-56.5 12.34,-56.5"/>
<text text-anchor="middle" x="37.34" y="-63.5" font-family="Helvetica,sans-Serif" font-size="10.00">stdio.h</text>
</a>
</g>
</g>
<!-- Node1&#45;&gt;Node3 -->
<g id="edge2" class="edge">
<title>Node1&#45;&gt;Node3</title>
<path fill="none" stroke="midnightblue" d="M66.56,-112.08C61.67,-104.53 54.51,-93.49 48.51,-84.23"/>
<polygon fill="midnightblue" stroke="midnightblue" points="51.39,-82.24 43.01,-75.75 45.51,-86.05 51.39,-82.24"/>
</g>
<!-- Node4 -->
<g id="node4" class="node">
<title>Node4</title>
<g id="a_node4"><a xlink:title=" ">
<polygon fill="white" stroke="#bfbfbf" points="80.34,-56.5 80.34,-75.5 136.34,-75.5 136.34,-56.5 80.34,-56.5"/>
<text text-anchor="middle" x="108.34" y="-63.5" font-family="Helvetica,sans-Serif" font-size="10.00">assert.h</text>
</a>
</g>
</g>
<!-- Node1&#45;&gt;Node4 -->
<g id="edge3" class="edge">
<title>Node1&#45;&gt;Node4</title>
<path fill="none" stroke="midnightblue" d="M78.28,-112.08C83.32,-104.53 90.67,-93.49 96.85,-84.23"/>
<polygon fill="midnightblue" stroke="midnightblue" points="99.87,-86.01 102.5,-75.75 94.04,-82.13 99.87,-86.01"/>
</g>
<!-- Node5 -->
<g id="node5" class="node">
<title>Node5</title>
<g id="a_node5"><a xlink:href="list_8h.html" target="_top" xlink:title=" ">
<polygon fill="white" stroke="black" points="154.84,-56.5 154.84,-75.5 195.84,-75.5 195.84,-56.5 154.84,-56.5"/>
<text text-anchor="middle" x="175.34" y="-63.5" font-family="Helvetica,sans-Serif" font-size="10.00">list.h</text>
</a>
</g>
</g>
<!-- Node1&#45;&gt;Node5 -->
<g id="edge4" class="edge">
<title>Node1&#45;&gt;Node5</title>
<path fill="none" stroke="midnightblue" d="M88.89,-112.32C105.33,-103.7 130.77,-90.36 149.81,-80.39"/>
<polygon fill="midnightblue" stroke="midnightblue" points="151.6,-83.4 158.83,-75.65 148.35,-77.2 151.6,-83.4"/>
</g>
<!-- Node5&#45;&gt;Node2 -->
<g id="edge5" class="edge">
<title>Node5&#45;&gt;Node2</title>
<path fill="none" stroke="midnightblue" d="M159.91,-56.32C144.8,-47.82 121.52,-34.73 103.87,-24.8"/>
<polygon fill="midnightblue" stroke="midnightblue" points="105.16,-21.51 94.72,-19.65 101.72,-27.61 105.16,-21.51"/>
</g>
</g>
</svg>
