<?xml version="1.0" encoding="UTF-8" standalone="no"?>
<!DOCTYPE svg PUBLIC "-//W3C//DTD SVG 1.1//EN"
 "http://www.w3.org/Graphics/SVG/1.1/DTD/svg11.dtd">
<!-- Generated by graphviz version 2.43.0 (0)
 -->
<!-- Title: ListResize Pages: 1 -->
<svg width="462pt" height="118pt"
 viewBox="0.00 0.00 462.00 117.91" xmlns="http://www.w3.org/2000/svg" xmlns:xlink="http://www.w3.org/1999/xlink">
<g id="graph0" class="graph" transform="scale(1 1) rotate(0) translate(4 113.91)">
<title>ListResize</title>
<polygon fill="white" stroke="transparent" points="-4,4 -4,-113.91 458,-113.91 458,4 -4,4"/>
<!-- Node1 -->
<g id="node1" class="node">
<title>Node1</title>
<g id="a_node1"><a xlink:title=" ">
<polygon fill="#bfbfbf" stroke="black" points="388,-38.5 388,-57.5 454,-57.5 454,-38.5 388,-38.5"/>
<text text-anchor="middle" x="421" y="-45.5" font-family="Helvetica,sans-Serif" font-size="10.00">ListResize</text>
</a>
</g>
</g>
<!-- Node2 -->
<g id="node2" class="node">
<title>Node2</title>
<g id="a_node2"><a xlink:href="list_8c.html#a2f513993aacfccc7af38c69434589a40" target="_top" xlink:title=" ">
<polygon fill="white" stroke="black" points="248,-57.5 248,-76.5 352,-76.5 352,-57.5 248,-57.5"/>
<text text-anchor="middle" x="300" y="-64.5" font-family="Helvetica,sans-Serif" font-size="10.00">ListInsert_Internal</text>
</a>
</g>
</g>
<!-- Node1&#45;&gt;Node2 -->
<g id="edge1" class="edge">
<title>Node1&#45;&gt;Node2</title>
<path fill="none" stroke="midnightblue" d="M377.9,-54.72C369.54,-56.06 360.67,-57.47 352.05,-58.85"/>
<polygon fill="midnightblue" stroke="midnightblue" points="378.47,-58.17 387.8,-53.14 377.37,-51.26 378.47,-58.17"/>
</g>
<!-- Node7 -->
<g id="node7" class="node">
<title>Node7</title>
<g id="a_node7"><a xlink:href="list_8h.html#a0773be9090ec6f5d77ce58ff2892b48b" target="_top" xlink:title=" ">
<polygon fill="white" stroke="black" points="256.5,-19.5 256.5,-38.5 343.5,-38.5 343.5,-19.5 256.5,-19.5"/>
<text text-anchor="middle" x="300" y="-26.5" font-family="Helvetica,sans-Serif" font-size="10.00">ListShrinkToFit</text>
</a>
</g>
</g>
<!-- Node1&#45;&gt;Node7 -->
<g id="edge8" class="edge">
<title>Node1&#45;&gt;Node7</title>
<path fill="none" stroke="midnightblue" d="M377.86,-41.27C366.72,-39.49 354.68,-37.57 343.52,-35.79"/>
<polygon fill="midnightblue" stroke="midnightblue" points="377.37,-44.74 387.8,-42.86 378.47,-37.83 377.37,-44.74"/>
</g>
<!-- Node3 -->
<g id="node3" class="node">
<title>Node3</title>
<g id="a_node3"><a xlink:href="list_8h.html#ac56df94c6dff4c7d05afdaa7669409d2" target="_top" xlink:title=" ">
<polygon fill="white" stroke="black" points="4.5,-85.5 4.5,-104.5 89.5,-104.5 89.5,-85.5 4.5,-85.5"/>
<text text-anchor="middle" x="47" y="-92.5" font-family="Helvetica,sans-Serif" font-size="10.00">ListInsertAfter</text>
</a>
</g>
</g>
<!-- Node2&#45;&gt;Node3 -->
<g id="edge2" class="edge">
<title>Node2&#45;&gt;Node3</title>
<path fill="none" stroke="midnightblue" d="M273.51,-81.47C256.64,-90.2 233.71,-100.46 212,-105 170.95,-113.57 122.97,-109 89.55,-103.56"/>
<polygon fill="midnightblue" stroke="midnightblue" points="275.51,-84.37 282.68,-76.57 272.21,-78.2 275.51,-84.37"/>
</g>
<!-- Node4 -->
<g id="node4" class="node">
<title>Node4</title>
<g id="a_node4"><a xlink:href="list_8h.html#a06dd8071a4dd95526a9b8612900dd9cb" target="_top" xlink:title=" ">
<polygon fill="white" stroke="black" points="0,-28.5 0,-47.5 94,-47.5 94,-28.5 0,-28.5"/>
<text text-anchor="middle" x="47" y="-35.5" font-family="Helvetica,sans-Serif" font-size="10.00">ListInsertBefore</text>
</a>
</g>
</g>
<!-- Node2&#45;&gt;Node4 -->
<g id="edge3" class="edge">
<title>Node2&#45;&gt;Node4</title>
<path fill="none" stroke="midnightblue" d="M237.85,-59.93C193.61,-54.82 134.76,-48.02 94.37,-43.36"/>
<polygon fill="midnightblue" stroke="midnightblue" points="237.57,-63.43 247.9,-61.1 238.37,-56.47 237.57,-63.43"/>
</g>
<!-- Node5 -->
<g id="node5" class="node">
<title>Node5</title>
<g id="a_node5"><a xlink:href="list_8h.html#a7c5ff601bc85471b4148a1c4c15787ae" target="_top" xlink:title=" ">
<polygon fill="white" stroke="black" points="130.5,-76.5 130.5,-95.5 211.5,-95.5 211.5,-76.5 130.5,-76.5"/>
<text text-anchor="middle" x="171" y="-83.5" font-family="Helvetica,sans-Serif" font-size="10.00">ListPushBack</text>
</a>
</g>
</g>
<!-- Node2&#45;&gt;Node5 -->
<g id="edge4" class="edge">
<title>Node2&#45;&gt;Node5</title>
<path fill="none" stroke="midnightblue" d="M237.79,-76.16C228.94,-77.48 220.04,-78.81 211.76,-80.05"/>
<polygon fill="midnightblue" stroke="midnightblue" points="238.34,-79.61 247.71,-74.67 237.3,-72.69 238.34,-79.61"/>
</g>
<!-- Node6 -->
<g id="node6" class="node">
<title>Node6</title>
<g id="a_node6"><a xlink:href="list_8h.html#afe4e636b84899e781aae6af9456fd88d" target="_top" xlink:title=" ">
<polygon fill="white" stroke="black" points="130,-0.5 130,-19.5 212,-19.5 212,-0.5 130,-0.5"/>
<text text-anchor="middle" x="171" y="-7.5" font-family="Helvetica,sans-Serif" font-size="10.00">ListPushFront</text>
</a>
</g>
</g>
<!-- Node2&#45;&gt;Node6 -->
<g id="edge6" class="edge">
<title>Node2&#45;&gt;Node6</title>
<path fill="none" stroke="midnightblue" d="M262.11,-53.79C257.33,-51.92 252.53,-49.97 248,-48 227.71,-39.18 205.1,-27.65 189.86,-19.61"/>
<polygon fill="midnightblue" stroke="midnightblue" points="261.2,-57.19 271.79,-57.48 263.69,-50.65 261.2,-57.19"/>
</g>
<!-- Node5&#45;&gt;Node3 -->
<g id="edge5" class="edge">
<title>Node5&#45;&gt;Node3</title>
<path fill="none" stroke="midnightblue" d="M120.34,-89.66C110.1,-90.42 99.42,-91.21 89.51,-91.94"/>
<polygon fill="midnightblue" stroke="midnightblue" points="120.67,-93.15 130.39,-88.92 120.16,-86.17 120.67,-93.15"/>
</g>
<!-- Node6&#45;&gt;Node4 -->
<g id="edge7" class="edge">
<title>Node6&#45;&gt;Node4</title>
<path fill="none" stroke="midnightblue" d="M119.81,-21.52C109.73,-23.83 99.24,-26.24 89.5,-28.48"/>
<polygon fill="midnightblue" stroke="midnightblue" points="120.75,-24.89 129.71,-19.25 119.18,-18.07 120.75,-24.89"/>
</g>
</g>
</svg>
