<?xml version="1.0" encoding="UTF-8" standalone="no"?>
<!DOCTYPE svg PUBLIC "-//W3C//DTD SVG 1.1//EN"
 "http://www.w3.org/Graphics/SVG/1.1/DTD/svg11.dtd">
<!-- Generated by graphviz version 2.43.0 (0)
 -->
<!-- Title: ListPopBack Pages: 1 -->
<svg width="421pt" height="47pt"
 viewBox="0.00 0.00 421.00 47.00" xmlns="http://www.w3.org/2000/svg" xmlns:xlink="http://www.w3.org/1999/xlink">
<g id="graph0" class="graph" transform="scale(1 1) rotate(0) translate(4 43)">
<title>ListPopBack</title>
<polygon fill="white" stroke="transparent" points="-4,4 -4,-43 417,-43 417,4 -4,4"/>
<!-- Node1 -->
<g id="node1" class="node">
<title>Node1</title>
<g id="a_node1"><a xlink:title=" ">
<polygon fill="#bfbfbf" stroke="black" points="0,-0.5 0,-19.5 76,-19.5 76,-0.5 0,-0.5"/>
<text text-anchor="middle" x="38" y="-7.5" font-family="Helvetica,sans-Serif" font-size="10.00">ListPopBack</text>
</a>
</g>
</g>
<!-- Node2 -->
<g id="node2" class="node">
<title>Node2</title>
<g id="a_node2"><a xlink:href="list_8c.html#a957ee1a520cba2eb92b8551ac42f57e5" target="_top" xlink:title=" ">
<polygon fill="white" stroke="black" points="112,-19.5 112,-38.5 216,-38.5 216,-19.5 112,-19.5"/>
<text text-anchor="middle" x="164" y="-26.5" font-family="Helvetica,sans-Serif" font-size="10.00">ListErase_Internal</text>
</a>
</g>
</g>
<!-- Node1&#45;&gt;Node2 -->
<g id="edge1" class="edge">
<title>Node1&#45;&gt;Node2</title>
<path fill="none" stroke="midnightblue" d="M76.2,-15.7C84.2,-16.93 92.86,-18.25 101.51,-19.58"/>
<polygon fill="midnightblue" stroke="midnightblue" points="101.19,-23.07 111.61,-21.13 102.25,-16.15 101.19,-23.07"/>
</g>
<!-- Node3 -->
<g id="node3" class="node">
<title>Node3</title>
<g id="a_node3"><a xlink:href="list_8c.html#a262ea758423a46a6ca0ff4e722e895b5" target="_top" xlink:title=" ">
<polygon fill="white" stroke="black" points="252,-0.5 252,-19.5 314,-19.5 314,-0.5 252,-0.5"/>
<text text-anchor="middle" x="283" y="-7.5" font-family="Helvetica,sans-Serif" font-size="10.00">ListVerify</text>
</a>
</g>
</g>
<!-- Node1&#45;&gt;Node3 -->
<g id="edge4" class="edge">
<title>Node1&#45;&gt;Node3</title>
<path fill="none" stroke="midnightblue" d="M76.17,-10C120.82,-10 195.45,-10 241.53,-10"/>
<polygon fill="midnightblue" stroke="midnightblue" points="241.74,-13.5 251.74,-10 241.74,-6.5 241.74,-13.5"/>
</g>
<!-- Node2&#45;&gt;Node3 -->
<g id="edge2" class="edge">
<title>Node2&#45;&gt;Node3</title>
<path fill="none" stroke="midnightblue" d="M216.32,-20.67C224.87,-19.28 233.62,-17.86 241.84,-16.52"/>
<polygon fill="midnightblue" stroke="midnightblue" points="242.6,-19.94 251.91,-14.89 241.47,-13.04 242.6,-19.94"/>
</g>
<!-- Node4 -->
<g id="node4" class="node">
<title>Node4</title>
<g id="a_node4"><a xlink:href="list_8c.html#adb5a6d3f693d0b150af95fa5a131ed0b" target="_top" xlink:title=" ">
<polygon fill="white" stroke="black" points="350,-0.5 350,-19.5 413,-19.5 413,-0.5 350,-0.5"/>
<text text-anchor="middle" x="381.5" y="-7.5" font-family="Helvetica,sans-Serif" font-size="10.00">ListDump</text>
</a>
</g>
</g>
<!-- Node3&#45;&gt;Node4 -->
<g id="edge3" class="edge">
<title>Node3&#45;&gt;Node4</title>
<path fill="none" stroke="midnightblue" d="M314,-10C322.11,-10 331.02,-10 339.6,-10"/>
<polygon fill="midnightblue" stroke="midnightblue" points="339.85,-13.5 349.85,-10 339.85,-6.5 339.85,-13.5"/>
</g>
</g>
</svg>
