<?xml version="1.0" encoding="UTF-8" standalone="no"?>
<!DOCTYPE svg PUBLIC "-//W3C//DTD SVG 1.1//EN"
 "http://www.w3.org/Graphics/SVG/1.1/DTD/svg11.dtd">
<!-- Generated by graphviz version 2.43.0 (0)
 -->
<!-- Title: ListPushBack Pages: 1 -->
<svg width="528pt" height="85pt"
 viewBox="0.00 0.00 528.00 85.00" xmlns="http://www.w3.org/2000/svg" xmlns:xlink="http://www.w3.org/1999/xlink">
<g id="graph0" class="graph" transform="scale(1 1) rotate(0) translate(4 81)">
<title>ListPushBack</title>
<polygon fill="white" stroke="transparent" points="-4,4 -4,-81 524,-81 524,4 -4,4"/>
<!-- Node1 -->
<g id="node1" class="node">
<title>Node1</title>
<g id="a_node1"><a xlink:title=" ">
<polygon fill="#bfbfbf" stroke="black" points="0,-0.5 0,-19.5 81,-19.5 81,-0.5 0,-0.5"/>
<text text-anchor="middle" x="40.5" y="-7.5" font-family="Helvetica,sans-Serif" font-size="10.00">ListPushBack</text>
</a>
</g>
</g>
<!-- Node2 -->
<g id="node2" class="node">
<title>Node2</title>
<g id="a_node2"><a xlink:href="list_8c.html#a2f513993aacfccc7af38c69434589a40" target="_top" xlink:title=" ">
<polygon fill="white" stroke="black" points="117,-19.5 117,-38.5 221,-38.5 221,-19.5 117,-19.5"/>
<text text-anchor="middle" x="169" y="-26.5" font-family="Helvetica,sans-Serif" font-size="10.00">ListInsert_Internal</text>
</a>
</g>
</g>
<!-- Node1&#45;&gt;Node2 -->
<g id="edge1" class="edge">
<title>Node1&#45;&gt;Node2</title>
<path fill="none" stroke="midnightblue" d="M81.18,-15.96C89.3,-17.18 98.03,-18.49 106.71,-19.79"/>
<polygon fill="midnightblue" stroke="midnightblue" points="106.43,-23.29 116.84,-21.32 107.47,-16.37 106.43,-23.29"/>
</g>
<!-- Node4 -->
<g id="node4" class="node">
<title>Node4</title>
<g id="a_node4"><a xlink:href="list_8c.html#a262ea758423a46a6ca0ff4e722e895b5" target="_top" xlink:title=" ">
<polygon fill="white" stroke="black" points="359,-19.5 359,-38.5 421,-38.5 421,-19.5 359,-19.5"/>
<text text-anchor="middle" x="390" y="-26.5" font-family="Helvetica,sans-Serif" font-size="10.00">ListVerify</text>
</a>
</g>
</g>
<!-- Node1&#45;&gt;Node4 -->
<g id="edge6" class="edge">
<title>Node1&#45;&gt;Node4</title>
<path fill="none" stroke="midnightblue" d="M81.11,-8.72C117.5,-7.85 172.93,-7.29 221,-10 264.82,-12.47 314.77,-18.54 348.73,-23.16"/>
<polygon fill="midnightblue" stroke="midnightblue" points="348.35,-26.64 358.74,-24.54 349.31,-19.7 348.35,-26.64"/>
</g>
<!-- Node3 -->
<g id="node3" class="node">
<title>Node3</title>
<g id="a_node3"><a xlink:href="list_8c.html#a5b2989c7bbbdf21204e9a6e9b92ed1dc" target="_top" xlink:title=" ">
<polygon fill="white" stroke="black" points="257,-57.5 257,-76.5 323,-76.5 323,-57.5 257,-57.5"/>
<text text-anchor="middle" x="290" y="-64.5" font-family="Helvetica,sans-Serif" font-size="10.00">ListResize</text>
</a>
</g>
</g>
<!-- Node2&#45;&gt;Node3 -->
<g id="edge2" class="edge">
<title>Node2&#45;&gt;Node3</title>
<path fill="none" stroke="midnightblue" d="M200.03,-38.59C214.97,-43.36 233.22,-49.19 249.3,-54.32"/>
<polygon fill="midnightblue" stroke="midnightblue" points="248.39,-57.71 258.98,-57.41 250.52,-51.04 248.39,-57.71"/>
</g>
<!-- Node2&#45;&gt;Node4 -->
<g id="edge5" class="edge">
<title>Node2&#45;&gt;Node4</title>
<path fill="none" stroke="midnightblue" d="M221.07,-29C259.95,-29 312.74,-29 348.68,-29"/>
<polygon fill="midnightblue" stroke="midnightblue" points="348.8,-32.5 358.8,-29 348.8,-25.5 348.8,-32.5"/>
</g>
<!-- Node3&#45;&gt;Node4 -->
<g id="edge3" class="edge">
<title>Node3&#45;&gt;Node4</title>
<path fill="none" stroke="midnightblue" d="M315.73,-57.41C327.57,-52.82 341.94,-47.25 354.8,-42.26"/>
<polygon fill="midnightblue" stroke="midnightblue" points="356.22,-45.46 364.28,-38.59 353.69,-38.94 356.22,-45.46"/>
</g>
<!-- Node5 -->
<g id="node5" class="node">
<title>Node5</title>
<g id="a_node5"><a xlink:href="list_8c.html#adb5a6d3f693d0b150af95fa5a131ed0b" target="_top" xlink:title=" ">
<polygon fill="white" stroke="black" points="457,-19.5 457,-38.5 520,-38.5 520,-19.5 457,-19.5"/>
<text text-anchor="middle" x="488.5" y="-26.5" font-family="Helvetica,sans-Serif" font-size="10.00">ListDump</text>
</a>
</g>
</g>
<!-- Node4&#45;&gt;Node5 -->
<g id="edge4" class="edge">
<title>Node4&#45;&gt;Node5</title>
<path fill="none" stroke="midnightblue" d="M421,-29C429.11,-29 438.02,-29 446.6,-29"/>
<polygon fill="midnightblue" stroke="midnightblue" points="446.85,-32.5 456.85,-29 446.85,-25.5 446.85,-32.5"/>
</g>
</g>
</svg>
