<?xml version="1.0" encoding="UTF-8" standalone="no"?>
<!DOCTYPE svg PUBLIC "-//W3C//DTD SVG 1.1//EN"
 "http://www.w3.org/Graphics/SVG/1.1/DTD/svg11.dtd">
<!-- Generated by graphviz version 2.43.0 (0)
 -->
<!-- Title: ListShrinkToFit Pages: 1 -->
<svg width="394pt" height="47pt"
 viewBox="0.00 0.00 394.00 47.00" xmlns="http://www.w3.org/2000/svg" xmlns:xlink="http://www.w3.org/1999/xlink">
<g id="graph0" class="graph" transform="scale(1 1) rotate(0) translate(4 43)">
<title>ListShrinkToFit</title>
<polygon fill="white" stroke="transparent" points="-4,4 -4,-43 390,-43 390,4 -4,4"/>
<!-- Node1 -->
<g id="node1" class="node">
<title>Node1</title>
<g id="a_node1"><a xlink:title=" ">
<polygon fill="#bfbfbf" stroke="black" points="0,-0.5 0,-19.5 87,-19.5 87,-0.5 0,-0.5"/>
<text text-anchor="middle" x="43.5" y="-7.5" font-family="Helvetica,sans-Serif" font-size="10.00">ListShrinkToFit</text>
</a>
</g>
</g>
<!-- Node2 -->
<g id="node2" class="node">
<title>Node2</title>
<g id="a_node2"><a xlink:href="list_8c.html#a5b2989c7bbbdf21204e9a6e9b92ed1dc" target="_top" xlink:title=" ">
<polygon fill="white" stroke="black" points="123,-19.5 123,-38.5 189,-38.5 189,-19.5 123,-19.5"/>
<text text-anchor="middle" x="156" y="-26.5" font-family="Helvetica,sans-Serif" font-size="10.00">ListResize</text>
</a>
</g>
</g>
<!-- Node1&#45;&gt;Node2 -->
<g id="edge1" class="edge">
<title>Node1&#45;&gt;Node2</title>
<path fill="none" stroke="midnightblue" d="M87.22,-17.35C95.6,-18.79 104.38,-20.3 112.74,-21.73"/>
<polygon fill="midnightblue" stroke="midnightblue" points="112.23,-25.2 122.68,-23.44 113.41,-18.3 112.23,-25.2"/>
</g>
<!-- Node3 -->
<g id="node3" class="node">
<title>Node3</title>
<g id="a_node3"><a xlink:href="list_8c.html#a262ea758423a46a6ca0ff4e722e895b5" target="_top" xlink:title=" ">
<polygon fill="white" stroke="black" points="225,-0.5 225,-19.5 287,-19.5 287,-0.5 225,-0.5"/>
<text text-anchor="middle" x="256" y="-7.5" font-family="Helvetica,sans-Serif" font-size="10.00">ListVerify</text>
</a>
</g>
</g>
<!-- Node1&#45;&gt;Node3 -->
<g id="edge4" class="edge">
<title>Node1&#45;&gt;Node3</title>
<path fill="none" stroke="midnightblue" d="M87.1,-10C124.27,-10 177.85,-10 214.41,-10"/>
<polygon fill="midnightblue" stroke="midnightblue" points="214.71,-13.5 224.71,-10 214.71,-6.5 214.71,-13.5"/>
</g>
<!-- Node2&#45;&gt;Node3 -->
<g id="edge2" class="edge">
<title>Node2&#45;&gt;Node3</title>
<path fill="none" stroke="midnightblue" d="M189.09,-22.78C197.35,-21.18 206.35,-19.43 214.97,-17.76"/>
<polygon fill="midnightblue" stroke="midnightblue" points="215.68,-21.19 224.83,-15.85 214.35,-14.32 215.68,-21.19"/>
</g>
<!-- Node4 -->
<g id="node4" class="node">
<title>Node4</title>
<g id="a_node4"><a xlink:href="list_8c.html#adb5a6d3f693d0b150af95fa5a131ed0b" target="_top" xlink:title=" ">
<polygon fill="white" stroke="black" points="323,-0.5 323,-19.5 386,-19.5 386,-0.5 323,-0.5"/>
<text text-anchor="middle" x="354.5" y="-7.5" font-family="Helvetica,sans-Serif" font-size="10.00">ListDump</text>
</a>
</g>
</g>
<!-- Node3&#45;&gt;Node4 -->
<g id="edge3" class="edge">
<title>Node3&#45;&gt;Node4</title>
<path fill="none" stroke="midnightblue" d="M287,-10C295.11,-10 304.02,-10 312.6,-10"/>
<polygon fill="midnightblue" stroke="midnightblue" points="312.85,-13.5 322.85,-10 312.85,-6.5 312.85,-13.5"/>
</g>
</g>
</svg>
