<?xml version="1.0" encoding="UTF-8" standalone="no"?>
<!DOCTYPE svg PUBLIC "-//W3C//DTD SVG 1.1//EN"
 "http://www.w3.org/Graphics/SVG/1.1/DTD/svg11.dtd">
<!-- Generated by graphviz version 2.43.0 (0)
 -->
<!-- Title: ListInsertIter Pages: 1 -->
<svg width="661pt" height="172pt"
 viewBox="0.00 0.00 661.00 171.73" xmlns="http://www.w3.org/2000/svg" xmlns:xlink="http://www.w3.org/1999/xlink">
<g id="graph0" class="graph" transform="scale(1 1) rotate(0) translate(4 167.73)">
<title>ListInsertIter</title>
<polygon fill="white" stroke="transparent" points="-4,4 -4,-167.73 657,-167.73 657,4 -4,4"/>
<!-- Node1 -->
<g id="node1" class="node">
<title>Node1</title>
<g id="a_node1"><a xlink:title=" ">
<polygon fill="#bfbfbf" stroke="black" points="0,-87.23 0,-106.23 78,-106.23 78,-87.23 0,-87.23"/>
<text text-anchor="middle" x="39" y="-94.23" font-family="Helvetica,sans-Serif" font-size="10.00">ListInsertIter</text>
</a>
</g>
</g>
<!-- Node2 -->
<g id="node2" class="node">
<title>Node2</title>
<g id="a_node2"><a xlink:href="list_8c.html#adfd8599d25d547782ffb93f50313c092" target="_top" xlink:title=" ">
<polygon fill="white" stroke="black" points="371,-144.23 371,-163.23 456,-163.23 456,-144.23 371,-144.23"/>
<text text-anchor="middle" x="413.5" y="-151.23" font-family="Helvetica,sans-Serif" font-size="10.00">isIteratorValid</text>
</a>
</g>
</g>
<!-- Node1&#45;&gt;Node2 -->
<g id="edge1" class="edge">
<title>Node1&#45;&gt;Node2</title>
<path fill="none" stroke="midnightblue" d="M57.04,-106.34C71.66,-114.08 93.56,-124.51 114,-129.73 198.53,-151.3 300.49,-154.91 360.71,-154.83"/>
<polygon fill="midnightblue" stroke="midnightblue" points="360.75,-158.33 370.73,-154.78 360.72,-151.33 360.75,-158.33"/>
</g>
<!-- Node4 -->
<g id="node4" class="node">
<title>Node4</title>
<g id="a_node4"><a xlink:href="list_8c.html#a262ea758423a46a6ca0ff4e722e895b5" target="_top" xlink:title=" ">
<polygon fill="white" stroke="black" points="492,-87.23 492,-106.23 554,-106.23 554,-87.23 492,-87.23"/>
<text text-anchor="middle" x="523" y="-94.23" font-family="Helvetica,sans-Serif" font-size="10.00">ListVerify</text>
</a>
</g>
</g>
<!-- Node1&#45;&gt;Node4 -->
<g id="edge12" class="edge">
<title>Node1&#45;&gt;Node4</title>
<path fill="none" stroke="midnightblue" d="M78.22,-96.73C167.65,-96.73 389.82,-96.73 481.47,-96.73"/>
<polygon fill="midnightblue" stroke="midnightblue" points="481.73,-100.23 491.73,-96.73 481.73,-93.23 481.73,-100.23"/>
</g>
<!-- Node5 -->
<g id="node5" class="node">
<title>Node5</title>
<g id="a_node5"><a xlink:href="list_8c.html#a2f513993aacfccc7af38c69434589a40" target="_top" xlink:title=" ">
<polygon fill="white" stroke="black" points="231,-49.23 231,-68.23 335,-68.23 335,-49.23 231,-49.23"/>
<text text-anchor="middle" x="283" y="-56.23" font-family="Helvetica,sans-Serif" font-size="10.00">ListInsert_Internal</text>
</a>
</g>
</g>
<!-- Node1&#45;&gt;Node5 -->
<g id="edge5" class="edge">
<title>Node1&#45;&gt;Node5</title>
<path fill="none" stroke="midnightblue" d="M78.08,-90.75C116.32,-84.75 175.84,-75.4 220.73,-68.35"/>
<polygon fill="midnightblue" stroke="midnightblue" points="221.31,-71.8 230.65,-66.79 220.23,-64.89 221.31,-71.8"/>
</g>
<!-- Node7 -->
<g id="node7" class="node">
<title>Node7</title>
<g id="a_node7"><a xlink:href="list_8c.html#a7c5ff601bc85471b4148a1c4c15787ae" target="_top" xlink:title=" ">
<polygon fill="white" stroke="black" points="114,-30.23 114,-49.23 195,-49.23 195,-30.23 114,-30.23"/>
<text text-anchor="middle" x="154.5" y="-37.23" font-family="Helvetica,sans-Serif" font-size="10.00">ListPushBack</text>
</a>
</g>
</g>
<!-- Node1&#45;&gt;Node7 -->
<g id="edge9" class="edge">
<title>Node1&#45;&gt;Node7</title>
<path fill="none" stroke="midnightblue" d="M59,-87.19C77.17,-78.07 104.78,-64.2 125.48,-53.8"/>
<polygon fill="midnightblue" stroke="midnightblue" points="127.08,-56.92 134.44,-49.3 123.93,-50.66 127.08,-56.92"/>
</g>
<!-- Node3 -->
<g id="node3" class="node">
<title>Node3</title>
<g id="a_node3"><a xlink:href="list_8c.html#adb5a6d3f693d0b150af95fa5a131ed0b" target="_top" xlink:title=" ">
<polygon fill="white" stroke="black" points="590,-106.23 590,-125.23 653,-125.23 653,-106.23 590,-106.23"/>
<text text-anchor="middle" x="621.5" y="-113.23" font-family="Helvetica,sans-Serif" font-size="10.00">ListDump</text>
</a>
</g>
</g>
<!-- Node2&#45;&gt;Node3 -->
<g id="edge2" class="edge">
<title>Node2&#45;&gt;Node3</title>
<path fill="none" stroke="midnightblue" d="M456.19,-146.04C492.25,-139.39 544.07,-129.83 579.83,-123.23"/>
<polygon fill="midnightblue" stroke="midnightblue" points="580.72,-126.63 589.92,-121.37 579.45,-119.74 580.72,-126.63"/>
</g>
<!-- Node2&#45;&gt;Node4 -->
<g id="edge3" class="edge">
<title>Node2&#45;&gt;Node4</title>
<path fill="none" stroke="midnightblue" d="M432.74,-144.06C449.83,-135 475.59,-121.34 495.05,-111.02"/>
<polygon fill="midnightblue" stroke="midnightblue" points="496.84,-114.03 504.03,-106.26 493.56,-107.85 496.84,-114.03"/>
</g>
<!-- Node4&#45;&gt;Node3 -->
<g id="edge4" class="edge">
<title>Node4&#45;&gt;Node3</title>
<path fill="none" stroke="midnightblue" d="M554,-102.64C562.2,-104.25 571.21,-106.03 579.89,-107.73"/>
<polygon fill="midnightblue" stroke="midnightblue" points="579.36,-111.2 589.85,-109.7 580.71,-104.33 579.36,-111.2"/>
</g>
<!-- Node5&#45;&gt;Node4 -->
<g id="edge8" class="edge">
<title>Node5&#45;&gt;Node4</title>
<path fill="none" stroke="midnightblue" d="M335.06,-66.88C378.91,-73.88 441.27,-83.84 481.69,-90.29"/>
<polygon fill="midnightblue" stroke="midnightblue" points="481.29,-93.77 491.72,-91.9 482.39,-86.86 481.29,-93.77"/>
</g>
<!-- Node6 -->
<g id="node6" class="node">
<title>Node6</title>
<g id="a_node6"><a xlink:href="list_8c.html#a5b2989c7bbbdf21204e9a6e9b92ed1dc" target="_top" xlink:title=" ">
<polygon fill="white" stroke="black" points="380.5,-30.23 380.5,-49.23 446.5,-49.23 446.5,-30.23 380.5,-30.23"/>
<text text-anchor="middle" x="413.5" y="-37.23" font-family="Helvetica,sans-Serif" font-size="10.00">ListResize</text>
</a>
</g>
</g>
<!-- Node5&#45;&gt;Node6 -->
<g id="edge6" class="edge">
<title>Node5&#45;&gt;Node6</title>
<path fill="none" stroke="midnightblue" d="M335.16,-51.17C346.84,-49.44 359.12,-47.62 370.38,-45.96"/>
<polygon fill="midnightblue" stroke="midnightblue" points="370.99,-49.41 380.37,-44.48 369.97,-42.48 370.99,-49.41"/>
</g>
<!-- Node6&#45;&gt;Node4 -->
<g id="edge7" class="edge">
<title>Node6&#45;&gt;Node4</title>
<path fill="none" stroke="midnightblue" d="M432.74,-49.4C449.83,-58.46 475.59,-72.12 495.05,-82.44"/>
<polygon fill="midnightblue" stroke="midnightblue" points="493.56,-85.61 504.03,-87.2 496.84,-79.43 493.56,-85.61"/>
</g>
<!-- Node7&#45;&gt;Node4 -->
<g id="edge11" class="edge">
<title>Node7&#45;&gt;Node4</title>
<path fill="none" stroke="midnightblue" d="M181.51,-30.22C235.51,-12.11 362.54,21.89 456,-20.73 481.74,-32.47 501.32,-59.76 512.24,-78.23"/>
<polygon fill="midnightblue" stroke="midnightblue" points="509.32,-80.19 517.27,-87.2 515.43,-76.76 509.32,-80.19"/>
</g>
<!-- Node7&#45;&gt;Node5 -->
<g id="edge10" class="edge">
<title>Node7&#45;&gt;Node5</title>
<path fill="none" stroke="midnightblue" d="M195.18,-45.69C203.3,-46.91 212.03,-48.22 220.71,-49.53"/>
<polygon fill="midnightblue" stroke="midnightblue" points="220.43,-53.02 230.84,-51.05 221.47,-46.1 220.43,-53.02"/>
</g>
</g>
</svg>
