<?xml version="1.0" encoding="UTF-8" standalone="no"?>
<!DOCTYPE svg PUBLIC "-//W3C//DTD SVG 1.1//EN"
 "http://www.w3.org/Graphics/SVG/1.1/DTD/svg11.dtd">
<!-- Generated by graphviz version 2.43.0 (0)
 -->
<!-- Title: ListEraseIter Pages: 1 -->
<svg width="535pt" height="180pt"
 viewBox="0.00 0.00 535.00 180.00" xmlns="http://www.w3.org/2000/svg" xmlns:xlink="http://www.w3.org/1999/xlink">
<g id="graph0" class="graph" transform="scale(1 1) rotate(0) translate(4 176)">
<title>ListEraseIter</title>
<polygon fill="white" stroke="transparent" points="-4,4 -4,-176 531,-176 531,4 -4,4"/>
<!-- Node1 -->
<g id="node1" class="node">
<title>Node1</title>
<g id="a_node1"><a xlink:title=" ">
<polygon fill="#bfbfbf" stroke="black" points="0,-76.5 0,-95.5 77,-95.5 77,-76.5 0,-76.5"/>
<text text-anchor="middle" x="38.5" y="-83.5" font-family="Helvetica,sans-Serif" font-size="10.00">ListEraseIter</text>
</a>
</g>
</g>
<!-- Node2 -->
<g id="node2" class="node">
<title>Node2</title>
<g id="a_node2"><a xlink:href="list_8c.html#adfd8599d25d547782ffb93f50313c092" target="_top" xlink:title=" ">
<polygon fill="white" stroke="black" points="235.5,-152.5 235.5,-171.5 320.5,-171.5 320.5,-152.5 235.5,-152.5"/>
<text text-anchor="middle" x="278" y="-159.5" font-family="Helvetica,sans-Serif" font-size="10.00">isIteratorValid</text>
</a>
</g>
</g>
<!-- Node1&#45;&gt;Node2 -->
<g id="edge1" class="edge">
<title>Node1&#45;&gt;Node2</title>
<path fill="none" stroke="midnightblue" d="M49.98,-95.9C63.44,-107.97 88.04,-128.01 113,-138 148.68,-152.27 191.76,-158.19 224.82,-160.58"/>
<polygon fill="midnightblue" stroke="midnightblue" points="224.97,-164.09 235.17,-161.23 225.42,-157.11 224.97,-164.09"/>
</g>
<!-- Node4 -->
<g id="node4" class="node">
<title>Node4</title>
<g id="a_node4"><a xlink:href="list_8c.html#a262ea758423a46a6ca0ff4e722e895b5" target="_top" xlink:title=" ">
<polygon fill="white" stroke="black" points="366,-95.5 366,-114.5 428,-114.5 428,-95.5 366,-95.5"/>
<text text-anchor="middle" x="397" y="-102.5" font-family="Helvetica,sans-Serif" font-size="10.00">ListVerify</text>
</a>
</g>
</g>
<!-- Node1&#45;&gt;Node4 -->
<g id="edge13" class="edge">
<title>Node1&#45;&gt;Node4</title>
<path fill="none" stroke="midnightblue" d="M70.31,-95.56C83.35,-99.19 98.78,-102.94 113,-105 198.65,-117.43 300.42,-112.76 355.57,-108.63"/>
<polygon fill="midnightblue" stroke="midnightblue" points="355.94,-112.11 365.64,-107.84 355.4,-105.13 355.94,-112.11"/>
</g>
<!-- Node5 -->
<g id="node5" class="node">
<title>Node5</title>
<g id="a_node5"><a xlink:href="list_8c.html#a957ee1a520cba2eb92b8551ac42f57e5" target="_top" xlink:title=" ">
<polygon fill="white" stroke="black" points="226,-38.5 226,-57.5 330,-57.5 330,-38.5 226,-38.5"/>
<text text-anchor="middle" x="278" y="-45.5" font-family="Helvetica,sans-Serif" font-size="10.00">ListErase_Internal</text>
</a>
</g>
</g>
<!-- Node1&#45;&gt;Node5 -->
<g id="edge5" class="edge">
<title>Node1&#45;&gt;Node5</title>
<path fill="none" stroke="midnightblue" d="M72.58,-76.42C85.15,-73.05 99.65,-69.49 113,-67 146.67,-60.73 184.64,-56.17 215.56,-53.1"/>
<polygon fill="midnightblue" stroke="midnightblue" points="216.14,-56.56 225.76,-52.11 215.47,-49.59 216.14,-56.56"/>
</g>
<!-- Node6 -->
<g id="node6" class="node">
<title>Node6</title>
<g id="a_node6"><a xlink:href="list_8c.html#ac485b4349fbeff1dc2565e7cd88a83d7" target="_top" xlink:title=" ">
<polygon fill="white" stroke="black" points="113.5,-76.5 113.5,-95.5 189.5,-95.5 189.5,-76.5 113.5,-76.5"/>
<text text-anchor="middle" x="151.5" y="-83.5" font-family="Helvetica,sans-Serif" font-size="10.00">ListPopBack</text>
</a>
</g>
</g>
<!-- Node1&#45;&gt;Node6 -->
<g id="edge7" class="edge">
<title>Node1&#45;&gt;Node6</title>
<path fill="none" stroke="midnightblue" d="M77.08,-86C85.49,-86 94.51,-86 103.25,-86"/>
<polygon fill="midnightblue" stroke="midnightblue" points="103.34,-89.5 113.34,-86 103.34,-82.5 103.34,-89.5"/>
</g>
<!-- Node7 -->
<g id="node7" class="node">
<title>Node7</title>
<g id="a_node7"><a xlink:href="list_8c.html#a9fa41f03d1f4dc775abb9d794364108a" target="_top" xlink:title=" ">
<polygon fill="white" stroke="black" points="113,-0.5 113,-19.5 190,-19.5 190,-0.5 113,-0.5"/>
<text text-anchor="middle" x="151.5" y="-7.5" font-family="Helvetica,sans-Serif" font-size="10.00">ListPopFront</text>
</a>
</g>
</g>
<!-- Node1&#45;&gt;Node7 -->
<g id="edge10" class="edge">
<title>Node1&#45;&gt;Node7</title>
<path fill="none" stroke="midnightblue" d="M52.65,-76.42C67.26,-65.84 91.61,-48.4 113,-34 117.38,-31.05 122.08,-27.97 126.64,-25.04"/>
<polygon fill="midnightblue" stroke="midnightblue" points="128.53,-27.98 135.07,-19.65 124.76,-22.08 128.53,-27.98"/>
</g>
<!-- Node3 -->
<g id="node3" class="node">
<title>Node3</title>
<g id="a_node3"><a xlink:href="list_8c.html#adb5a6d3f693d0b150af95fa5a131ed0b" target="_top" xlink:title=" ">
<polygon fill="white" stroke="black" points="464,-114.5 464,-133.5 527,-133.5 527,-114.5 464,-114.5"/>
<text text-anchor="middle" x="495.5" y="-121.5" font-family="Helvetica,sans-Serif" font-size="10.00">ListDump</text>
</a>
</g>
</g>
<!-- Node2&#45;&gt;Node3 -->
<g id="edge2" class="edge">
<title>Node2&#45;&gt;Node3</title>
<path fill="none" stroke="midnightblue" d="M320.55,-154.67C358.9,-147.91 415.51,-137.93 453.63,-131.21"/>
<polygon fill="midnightblue" stroke="midnightblue" points="454.63,-134.59 463.87,-129.4 453.41,-127.69 454.63,-134.59"/>
</g>
<!-- Node2&#45;&gt;Node4 -->
<g id="edge3" class="edge">
<title>Node2&#45;&gt;Node4</title>
<path fill="none" stroke="midnightblue" d="M299.9,-152.3C309.15,-147.98 320.14,-142.78 330,-138 342.52,-131.93 356.29,-125.07 368,-119.18"/>
<polygon fill="midnightblue" stroke="midnightblue" points="369.93,-122.13 377.28,-114.51 366.78,-115.88 369.93,-122.13"/>
</g>
<!-- Node4&#45;&gt;Node3 -->
<g id="edge4" class="edge">
<title>Node4&#45;&gt;Node3</title>
<path fill="none" stroke="midnightblue" d="M428,-110.91C436.2,-112.52 445.21,-114.3 453.89,-116"/>
<polygon fill="midnightblue" stroke="midnightblue" points="453.36,-119.47 463.85,-117.97 454.71,-112.6 453.36,-119.47"/>
</g>
<!-- Node5&#45;&gt;Node4 -->
<g id="edge6" class="edge">
<title>Node5&#45;&gt;Node4</title>
<path fill="none" stroke="midnightblue" d="M299.9,-57.7C309.15,-62.02 320.14,-67.22 330,-72 342.52,-78.07 356.29,-84.93 368,-90.82"/>
<polygon fill="midnightblue" stroke="midnightblue" points="366.78,-94.12 377.28,-95.49 369.93,-87.87 366.78,-94.12"/>
</g>
<!-- Node6&#45;&gt;Node4 -->
<g id="edge9" class="edge">
<title>Node6&#45;&gt;Node4</title>
<path fill="none" stroke="midnightblue" d="M189.75,-88.91C234.49,-92.4 309.28,-98.23 355.44,-101.84"/>
<polygon fill="midnightblue" stroke="midnightblue" points="355.44,-105.35 365.68,-102.63 355.99,-98.37 355.44,-105.35"/>
</g>
<!-- Node6&#45;&gt;Node5 -->
<g id="edge8" class="edge">
<title>Node6&#45;&gt;Node5</title>
<path fill="none" stroke="midnightblue" d="M183.92,-76.41C199.69,-71.6 219.01,-65.7 235.94,-60.53"/>
<polygon fill="midnightblue" stroke="midnightblue" points="237.05,-63.85 245.59,-57.59 235.01,-57.16 237.05,-63.85"/>
</g>
<!-- Node7&#45;&gt;Node4 -->
<g id="edge12" class="edge">
<title>Node7&#45;&gt;Node4</title>
<path fill="none" stroke="midnightblue" d="M190.12,-6.33C227.7,-4.37 286.04,-6.05 330,-29 354.7,-41.9 374.24,-68.22 385.46,-86.23"/>
<polygon fill="midnightblue" stroke="midnightblue" points="382.7,-88.44 390.82,-95.25 388.72,-84.86 382.7,-88.44"/>
</g>
<!-- Node7&#45;&gt;Node5 -->
<g id="edge11" class="edge">
<title>Node7&#45;&gt;Node5</title>
<path fill="none" stroke="midnightblue" d="M183.92,-19.59C199.69,-24.4 219.01,-30.3 235.94,-35.47"/>
<polygon fill="midnightblue" stroke="midnightblue" points="235.01,-38.84 245.59,-38.41 237.05,-32.15 235.01,-38.84"/>
</g>
</g>
</svg>
