<?xml version="1.0" encoding="UTF-8" standalone="no"?>
<!DOCTYPE svg PUBLIC "-//W3C//DTD SVG 1.1//EN"
 "http://www.w3.org/Graphics/SVG/1.1/DTD/svg11.dtd">
<!-- Generated by graphviz version 2.43.0 (0)
 -->
<!-- Title: ListInsert Pages: 1 -->
<!--zoomable 181 -->
<svg id="main" version="1.1" xmlns="http://www.w3.org/2000/svg" xmlns:xlink="http://www.w3.org/1999/xlink" xml:space="preserve" onload="init(evt)">
<style type="text/css"><![CDATA[
.edge:hover path { stroke: red; }
.edge:hover polygon { stroke: red; fill: red; }
]]></style>
<script type="text/javascript"><![CDATA[
var edges = document.getElementsByTagName('g');
if (edges && edges.length) {
  for (var i=0;i<edges.length;i++) {
    if (edges[i].id.substr(0,4)=='edge') {
      edges[i].setAttribute('class','edge');
    }
  }
}
]]></script>
        <defs>
                <circle id="rim" cx="0" cy="0" r="7"/>
                <circle id="rim2" cx="0" cy="0" r="3.5"/>
                <g id="zoomPlus">
                        <use xlink:href="#rim" fill="#404040">
                                <set attributeName="fill" to="#808080" begin="zoomplus.mouseover" end="zoomplus.mouseout"/>
                        </use>
                        <path d="M-4,0h8M0,-4v8" fill="none" stroke="white" stroke-width="1.5" pointer-events="none"/>
                </g>
                <g id="zoomMin">
                        <use xlink:href="#rim" fill="#404040">
                                <set attributeName="fill" to="#808080" begin="zoomminus.mouseover" end="zoomminus.mouseout"/>
                        </use>
                        <path d="M-4,0h8" fill="none" stroke="white" stroke-width="1.5" pointer-events="none"/>
                </g>
                <g id="dirArrow">
                        <path fill="none" stroke="white" stroke-width="1.5" d="M0,-3.0v7 M-2.5,-0.5L0,-3.0L2.5,-0.5"/>
                </g>
               <g id="resetDef">
                       <use xlink:href="#rim2" fill="#404040">
                               <set attributeName="fill" to="#808080" begin="reset.mouseover" end="reset.mouseout"/>
                       </use>
               </g>
        </defs>

<script type="text/javascript">
var viewWidth = 627;
var viewHeight = 181;
var sectionId = 'dynsection-20';
</script>
<script xlink:href="svgpan.js"/>
<svg id="graph" class="graph">
<g id="viewport">
<title>ListInsert</title>
<polygon fill="white" stroke="transparent" points="-4,4 -4,-177.26 623,-177.26 623,4 -4,4"/>
<!-- Node1 -->
<g id="node1" class="node">
<title>Node1</title>
<g id="a_node1"><a xlink:title=" ">
<polygon fill="#bfbfbf" stroke="black" points="0,-77.76 0,-96.76 62,-96.76 62,-77.76 0,-77.76"/>
<text text-anchor="middle" x="31" y="-84.76" font-family="Helvetica,sans-Serif" font-size="10.00">ListInsert</text>
</a>
</g>
</g>
<!-- Node2 -->
<g id="node2" class="node">
<title>Node2</title>
<g id="a_node2"><a xlink:href="list_8c.html#a6ec17c7954b7d31644964be3301cd0ad" target="_top" xlink:title=" ">
<polygon fill="white" stroke="black" points="217,-153.76 217,-172.76 319,-172.76 319,-153.76 217,-153.76"/>
<text text-anchor="middle" x="268" y="-160.76" font-family="Helvetica,sans-Serif" font-size="10.00">FindArrayNumber</text>
</a>
</g>
</g>
<!-- Node1&#45;&gt;Node2 -->
<g id="edge1" class="edge">
<title>Node1&#45;&gt;Node2</title>
<path fill="none" stroke="midnightblue" d="M40.79,-96.78C52.56,-108.85 74.66,-129.28 98,-139.26 132.2,-153.89 173.49,-159.95 206.69,-162.32"/>
<polygon fill="midnightblue" stroke="midnightblue" points="206.53,-165.81 216.72,-162.94 206.96,-158.83 206.53,-165.81"/>
</g>
<!-- Node3 -->
<g id="node3" class="node">
<title>Node3</title>
<g id="a_node3"><a xlink:href="list_8c.html#a262ea758423a46a6ca0ff4e722e895b5" target="_top" xlink:title=" ">
<polygon fill="white" stroke="black" points="458,-58.76 458,-77.76 520,-77.76 520,-58.76 458,-58.76"/>
<text text-anchor="middle" x="489" y="-65.76" font-family="Helvetica,sans-Serif" font-size="10.00">ListVerify</text>
</a>
</g>
</g>
<!-- Node1&#45;&gt;Node3 -->
<g id="edge14" class="edge">
<title>Node1&#45;&gt;Node3</title>
<path fill="none" stroke="midnightblue" d="M58.6,-96.77C70.49,-100.53 84.78,-104.4 98,-106.26 181.49,-118.04 385.13,-93.95 422,-87.26 431.12,-85.61 440.79,-83.21 449.83,-80.67"/>
<polygon fill="midnightblue" stroke="midnightblue" points="451.1,-83.94 459.71,-77.77 449.13,-77.22 451.1,-83.94"/>
</g>
<!-- Node5 -->
<g id="node5" class="node">
<title>Node5</title>
<g id="a_node5"><a xlink:href="list_8c.html#a2f513993aacfccc7af38c69434589a40" target="_top" xlink:title=" ">
<polygon fill="white" stroke="black" points="216,-39.76 216,-58.76 320,-58.76 320,-39.76 216,-39.76"/>
<text text-anchor="middle" x="268" y="-46.76" font-family="Helvetica,sans-Serif" font-size="10.00">ListInsert_Internal</text>
</a>
</g>
</g>
<!-- Node1&#45;&gt;Node5 -->
<g id="edge4" class="edge">
<title>Node1&#45;&gt;Node5</title>
<path fill="none" stroke="midnightblue" d="M61.31,-77.68C72.66,-74.27 85.84,-70.68 98,-68.26 133.28,-61.25 173.25,-56.61 205.46,-53.67"/>
<polygon fill="midnightblue" stroke="midnightblue" points="205.97,-57.14 215.63,-52.78 205.36,-50.17 205.97,-57.14"/>
</g>
<!-- Node7 -->
<g id="node7" class="node">
<title>Node7</title>
<g id="a_node7"><a xlink:href="list_8c.html#a7c5ff601bc85471b4148a1c4c15787ae" target="_top" xlink:title=" ">
<polygon fill="white" stroke="black" points="98.5,-77.76 98.5,-96.76 179.5,-96.76 179.5,-77.76 98.5,-77.76"/>
<text text-anchor="middle" x="139" y="-84.76" font-family="Helvetica,sans-Serif" font-size="10.00">ListPushBack</text>
</a>
</g>
</g>
<!-- Node1&#45;&gt;Node7 -->
<g id="edge8" class="edge">
<title>Node1&#45;&gt;Node7</title>
<path fill="none" stroke="midnightblue" d="M62.09,-87.26C70.27,-87.26 79.36,-87.26 88.32,-87.26"/>
<polygon fill="midnightblue" stroke="midnightblue" points="88.32,-90.76 98.32,-87.26 88.32,-83.76 88.32,-90.76"/>
</g>
<!-- Node8 -->
<g id="node8" class="node">
<title>Node8</title>
<g id="a_node8"><a xlink:href="list_8c.html#afe4e636b84899e781aae6af9456fd88d" target="_top" xlink:title=" ">
<polygon fill="white" stroke="black" points="98,-1.76 98,-20.76 180,-20.76 180,-1.76 98,-1.76"/>
<text text-anchor="middle" x="139" y="-8.76" font-family="Helvetica,sans-Serif" font-size="10.00">ListPushFront</text>
</a>
</g>
</g>
<!-- Node1&#45;&gt;Node8 -->
<g id="edge11" class="edge">
<title>Node1&#45;&gt;Node8</title>
<path fill="none" stroke="midnightblue" d="M43.35,-77.6C56.23,-66.8 78.07,-49.01 98,-35.26 102.47,-32.18 107.34,-29.07 112.1,-26.15"/>
<polygon fill="midnightblue" stroke="midnightblue" points="114.18,-28.98 120.96,-20.84 110.59,-22.97 114.18,-28.98"/>
</g>
<!-- Node2&#45;&gt;Node3 -->
<g id="edge2" class="edge">
<title>Node2&#45;&gt;Node3</title>
<path fill="none" stroke="midnightblue" d="M319.15,-163.59C350.36,-161.88 390.43,-156.05 422,-139.26 445.32,-126.86 464.85,-102.98 476.48,-86.36"/>
<polygon fill="midnightblue" stroke="midnightblue" points="479.43,-88.24 482.09,-77.99 473.61,-84.34 479.43,-88.24"/>
</g>
<!-- Node4 -->
<g id="node4" class="node">
<title>Node4</title>
<g id="a_node4"><a xlink:href="list_8c.html#adb5a6d3f693d0b150af95fa5a131ed0b" target="_top" xlink:title=" ">
<polygon fill="white" stroke="black" points="556,-58.76 556,-77.76 619,-77.76 619,-58.76 556,-58.76"/>
<text text-anchor="middle" x="587.5" y="-65.76" font-family="Helvetica,sans-Serif" font-size="10.00">ListDump</text>
</a>
</g>
</g>
<!-- Node3&#45;&gt;Node4 -->
<g id="edge3" class="edge">
<title>Node3&#45;&gt;Node4</title>
<path fill="none" stroke="midnightblue" d="M520,-68.26C528.11,-68.26 537.02,-68.26 545.6,-68.26"/>
<polygon fill="midnightblue" stroke="midnightblue" points="545.85,-71.76 555.85,-68.26 545.85,-64.76 545.85,-71.76"/>
</g>
<!-- Node5&#45;&gt;Node3 -->
<g id="edge7" class="edge">
<title>Node5&#45;&gt;Node3</title>
<path fill="none" stroke="midnightblue" d="M296.24,-39.7C327.18,-30.25 378.95,-18.75 422,-30.26 438.45,-34.66 455.04,-44.25 467.48,-52.69"/>
<polygon fill="midnightblue" stroke="midnightblue" points="465.56,-55.62 475.74,-58.55 469.61,-49.91 465.56,-55.62"/>
</g>
<!-- Node6 -->
<g id="node6" class="node">
<title>Node6</title>
<g id="a_node6"><a xlink:href="list_8c.html#a5b2989c7bbbdf21204e9a6e9b92ed1dc" target="_top" xlink:title=" ">
<polygon fill="white" stroke="black" points="356,-39.76 356,-58.76 422,-58.76 422,-39.76 356,-39.76"/>
<text text-anchor="middle" x="389" y="-46.76" font-family="Helvetica,sans-Serif" font-size="10.00">ListResize</text>
</a>
</g>
</g>
<!-- Node5&#45;&gt;Node6 -->
<g id="edge5" class="edge">
<title>Node5&#45;&gt;Node6</title>
<path fill="none" stroke="midnightblue" d="M320.16,-49.26C328.66,-49.26 337.4,-49.26 345.65,-49.26"/>
<polygon fill="midnightblue" stroke="midnightblue" points="345.8,-52.76 355.8,-49.26 345.8,-45.76 345.8,-52.76"/>
</g>
<!-- Node6&#45;&gt;Node3 -->
<g id="edge6" class="edge">
<title>Node6&#45;&gt;Node3</title>
<path fill="none" stroke="midnightblue" d="M422.09,-55.49C430.35,-57.09 439.35,-58.83 447.97,-60.5"/>
<polygon fill="midnightblue" stroke="midnightblue" points="447.35,-63.95 457.83,-62.42 448.68,-57.08 447.35,-63.95"/>
</g>
<!-- Node7&#45;&gt;Node3 -->
<g id="edge10" class="edge">
<title>Node7&#45;&gt;Node3</title>
<path fill="none" stroke="midnightblue" d="M179.58,-85.1C246.21,-81.47 380.06,-74.16 447.38,-70.48"/>
<polygon fill="midnightblue" stroke="midnightblue" points="447.8,-73.96 457.59,-69.92 447.41,-66.97 447.8,-73.96"/>
</g>
<!-- Node7&#45;&gt;Node5 -->
<g id="edge9" class="edge">
<title>Node7&#45;&gt;Node5</title>
<path fill="none" stroke="midnightblue" d="M172.05,-77.67C188.14,-72.86 207.84,-66.97 225.12,-61.8"/>
<polygon fill="midnightblue" stroke="midnightblue" points="226.39,-65.07 234.96,-58.85 224.38,-58.36 226.39,-65.07"/>
</g>
<!-- Node8&#45;&gt;Node3 -->
<g id="edge13" class="edge">
<title>Node8&#45;&gt;Node3</title>
<path fill="none" stroke="midnightblue" d="M180.06,-5.63C235.93,0.68 339.66,6.68 422,-21.26 440.4,-27.51 458.16,-40.7 470.61,-51.52"/>
<polygon fill="midnightblue" stroke="midnightblue" points="468.57,-54.39 478.33,-58.52 473.27,-49.21 468.57,-54.39"/>
</g>
<!-- Node8&#45;&gt;Node5 -->
<g id="edge12" class="edge">
<title>Node8&#45;&gt;Node5</title>
<path fill="none" stroke="midnightblue" d="M172.05,-20.85C188.14,-25.67 207.84,-31.56 225.12,-36.73"/>
<polygon fill="midnightblue" stroke="midnightblue" points="224.38,-40.16 234.96,-39.68 226.39,-33.46 224.38,-40.16"/>
</g>
</g>
</svg>
        <g id="navigator" transform="translate(0 0)" fill="#404254">
                <rect fill="#f2f5e9" fill-opacity="0.5" stroke="#606060" stroke-width=".5" x="0" y="0" width="60" height="60"/>
                <use id="zoomplus" xlink:href="#zoomPlus" x="17" y="9" onmousedown="handleZoom(evt,'in')"/>
                <use id="zoomminus" xlink:href="#zoomMin" x="42" y="9" onmousedown="handleZoom(evt,'out')"/>
                <use id="reset" xlink:href="#resetDef" x="30" y="36" onmousedown="handleReset()"/>
                <g id="arrowUp" xlink:href="#dirArrow" transform="translate(30 24)" onmousedown="handlePan(0,-1)">
                  <use xlink:href="#rim" fill="#404040">
                        <set attributeName="fill" to="#808080" begin="arrowUp.mouseover" end="arrowUp.mouseout"/>
                  </use>
                  <path fill="none" stroke="white" stroke-width="1.5" d="M0,-3.0v7 M-2.5,-0.5L0,-3.0L2.5,-0.5"/>
                </g>
                <g id="arrowRight" xlink:href="#dirArrow" transform="rotate(90) translate(36 -43)" onmousedown="handlePan(1,0)">
                  <use xlink:href="#rim" fill="#404040">
                        <set attributeName="fill" to="#808080" begin="arrowRight.mouseover" end="arrowRight.mouseout"/>
                  </use>
                  <path fill="none" stroke="white" stroke-width="1.5" d="M0,-3.0v7 M-2.5,-0.5L0,-3.0L2.5,-0.5"/>
                </g>
                <g id="arrowDown" xlink:href="#dirArrow" transform="rotate(180) translate(-30 -48)" onmousedown="handlePan(0,1)">
                  <use xlink:href="#rim" fill="#404040">
                        <set attributeName="fill" to="#808080" begin="arrowDown.mouseover" end="arrowDown.mouseout"/>
                  </use>
                  <path fill="none" stroke="white" stroke-width="1.5" d="M0,-3.0v7 M-2.5,-0.5L0,-3.0L2.5,-0.5"/>
                </g>
                <g id="arrowLeft" xlink:href="#dirArrow" transform="rotate(270) translate(-36 17)" onmousedown="handlePan(-1,0)">
                  <use xlink:href="#rim" fill="#404040">
                        <set attributeName="fill" to="#808080" begin="arrowLeft.mouseover" end="arrowLeft.mouseout"/>
                  </use>
                  <path fill="none" stroke="white" stroke-width="1.5" d="M0,-3.0v7 M-2.5,-0.5L0,-3.0L2.5,-0.5"/>
                </g>
        </g>
        <svg viewBox="0 0 15 15" width="100%" height="30px" preserveAspectRatio="xMaxYMin meet">
         <g id="arrow_out" transform="scale(0.3 0.3)">
          <a xlink:href="list_8c_ae1d7ec748b33dd2850cf64002e8a65f8_cgraph_org.svg" target="_base">
           <rect id="button" ry="5" rx="5" y="6" x="6" height="38" width="38"
                fill="#f2f5e9" fill-opacity="0.5" stroke="#606060" stroke-width="1.0"/>
           <path id="arrow"
             d="M 11.500037,31.436501 C 11.940474,20.09759 22.043105,11.32322 32.158766,21.979434 L 37.068811,17.246167 C 37.068811,17.246167 37.088388,32 37.088388,32 L 22.160133,31.978069 C 22.160133,31.978069 26.997745,27.140456 26.997745,27.140456 C 18.528582,18.264221 13.291696,25.230495 11.500037,31.436501 z"
             style="fill:#404040;"/>
          </a>
         </g>
        </svg>
</svg>
