<?xml version="1.0" encoding="UTF-8" standalone="no"?>
<!DOCTYPE svg PUBLIC "-//W3C//DTD SVG 1.1//EN"
 "http://www.w3.org/Graphics/SVG/1.1/DTD/svg11.dtd">
<!-- Generated by graphviz version 2.43.0 (0)
 -->
<!-- Title: ListInsertAfter Pages: 1 -->
<!--zoomable 172 -->
<svg id="main" version="1.1" xmlns="http://www.w3.org/2000/svg" xmlns:xlink="http://www.w3.org/1999/xlink" xml:space="preserve" onload="init(evt)">
<style type="text/css"><![CDATA[
.edge:hover path { stroke: red; }
.edge:hover polygon { stroke: red; fill: red; }
]]></style>
<script type="text/javascript"><![CDATA[
var edges = document.getElementsByTagName('g');
if (edges && edges.length) {
  for (var i=0;i<edges.length;i++) {
    if (edges[i].id.substr(0,4)=='edge') {
      edges[i].setAttribute('class','edge');
    }
  }
}
]]></script>
        <defs>
                <circle id="rim" cx="0" cy="0" r="7"/>
                <circle id="rim2" cx="0" cy="0" r="3.5"/>
                <g id="zoomPlus">
                        <use xlink:href="#rim" fill="#404040">
                                <set attributeName="fill" to="#808080" begin="zoomplus.mouseover" end="zoomplus.mouseout"/>
                        </use>
                        <path d="M-4,0h8M0,-4v8" fill="none" stroke="white" stroke-width="1.5" pointer-events="none"/>
                </g>
                <g id="zoomMin">
                        <use xlink:href="#rim" fill="#404040">
                                <set attributeName="fill" to="#808080" begin="zoomminus.mouseover" end="zoomminus.mouseout"/>
                        </use>
                        <path d="M-4,0h8" fill="none" stroke="white" stroke-width="1.5" pointer-events="none"/>
                </g>
                <g id="dirArrow">
                        <path fill="none" stroke="white" stroke-width="1.5" d="M0,-3.0v7 M-2.5,-0.5L0,-3.0L2.5,-0.5"/>
                </g>
               <g id="resetDef">
                       <use xlink:href="#rim2" fill="#404040">
                               <set attributeName="fill" to="#808080" begin="reset.mouseover" end="reset.mouseout"/>
                       </use>
               </g>
        </defs>

<script type="text/javascript">
var viewWidth = 668;
var viewHeight = 172;
var sectionId = 'dynsection-20';
</script>
<script xlink:href="svgpan.js"/>
<svg id="graph" class="graph">
<g id="viewport">
<title>ListInsertAfter</title>
<polygon fill="white" stroke="transparent" points="-4,4 -4,-167.73 664,-167.73 664,4 -4,4"/>
<!-- Node1 -->
<g id="node1" class="node">
<title>Node1</title>
<g id="a_node1"><a xlink:title=" ">
<polygon fill="#bfbfbf" stroke="black" points="0,-87.23 0,-106.23 85,-106.23 85,-87.23 0,-87.23"/>
<text text-anchor="middle" x="42.5" y="-94.23" font-family="Helvetica,sans-Serif" font-size="10.00">ListInsertAfter</text>
</a>
</g>
</g>
<!-- Node2 -->
<g id="node2" class="node">
<title>Node2</title>
<g id="a_node2"><a xlink:href="list_8c.html#adfd8599d25d547782ffb93f50313c092" target="_top" xlink:title=" ">
<polygon fill="white" stroke="black" points="378,-144.23 378,-163.23 463,-163.23 463,-144.23 378,-144.23"/>
<text text-anchor="middle" x="420.5" y="-151.23" font-family="Helvetica,sans-Serif" font-size="10.00">isIteratorValid</text>
</a>
</g>
</g>
<!-- Node1&#45;&gt;Node2 -->
<g id="edge1" class="edge">
<title>Node1&#45;&gt;Node2</title>
<path fill="none" stroke="midnightblue" d="M61.4,-106.32C76.75,-114.06 99.7,-124.49 121,-129.73 205.71,-150.58 307.61,-154.41 367.78,-154.57"/>
<polygon fill="midnightblue" stroke="midnightblue" points="367.79,-158.07 377.79,-154.57 367.79,-151.07 367.79,-158.07"/>
</g>
<!-- Node4 -->
<g id="node4" class="node">
<title>Node4</title>
<g id="a_node4"><a xlink:href="list_8c.html#a262ea758423a46a6ca0ff4e722e895b5" target="_top" xlink:title=" ">
<polygon fill="white" stroke="black" points="499,-87.23 499,-106.23 561,-106.23 561,-87.23 499,-87.23"/>
<text text-anchor="middle" x="530" y="-94.23" font-family="Helvetica,sans-Serif" font-size="10.00">ListVerify</text>
</a>
</g>
</g>
<!-- Node1&#45;&gt;Node4 -->
<g id="edge12" class="edge">
<title>Node1&#45;&gt;Node4</title>
<path fill="none" stroke="midnightblue" d="M85.31,-96.73C177.57,-96.73 397.6,-96.73 488.57,-96.73"/>
<polygon fill="midnightblue" stroke="midnightblue" points="488.75,-100.23 498.75,-96.73 488.75,-93.23 488.75,-100.23"/>
</g>
<!-- Node5 -->
<g id="node5" class="node">
<title>Node5</title>
<g id="a_node5"><a xlink:href="list_8c.html#a2f513993aacfccc7af38c69434589a40" target="_top" xlink:title=" ">
<polygon fill="white" stroke="black" points="238,-49.23 238,-68.23 342,-68.23 342,-49.23 238,-49.23"/>
<text text-anchor="middle" x="290" y="-56.23" font-family="Helvetica,sans-Serif" font-size="10.00">ListInsert_Internal</text>
</a>
</g>
</g>
<!-- Node1&#45;&gt;Node5 -->
<g id="edge5" class="edge">
<title>Node1&#45;&gt;Node5</title>
<path fill="none" stroke="midnightblue" d="M85.15,-90.28C124.24,-84.23 183.19,-75.11 227.66,-68.23"/>
<polygon fill="midnightblue" stroke="midnightblue" points="228.42,-71.65 237.77,-66.66 227.35,-64.73 228.42,-71.65"/>
</g>
<!-- Node7 -->
<g id="node7" class="node">
<title>Node7</title>
<g id="a_node7"><a xlink:href="list_8c.html#a7c5ff601bc85471b4148a1c4c15787ae" target="_top" xlink:title=" ">
<polygon fill="white" stroke="black" points="121,-30.23 121,-49.23 202,-49.23 202,-30.23 121,-30.23"/>
<text text-anchor="middle" x="161.5" y="-37.23" font-family="Helvetica,sans-Serif" font-size="10.00">ListPushBack</text>
</a>
</g>
</g>
<!-- Node1&#45;&gt;Node7 -->
<g id="edge9" class="edge">
<title>Node1&#45;&gt;Node7</title>
<path fill="none" stroke="midnightblue" d="M63.08,-87.19C81.81,-78.07 110.28,-64.2 131.61,-53.8"/>
<polygon fill="midnightblue" stroke="midnightblue" points="133.4,-56.83 140.85,-49.3 130.33,-50.54 133.4,-56.83"/>
</g>
<!-- Node3 -->
<g id="node3" class="node">
<title>Node3</title>
<g id="a_node3"><a xlink:href="list_8c.html#adb5a6d3f693d0b150af95fa5a131ed0b" target="_top" xlink:title=" ">
<polygon fill="white" stroke="black" points="597,-106.23 597,-125.23 660,-125.23 660,-106.23 597,-106.23"/>
<text text-anchor="middle" x="628.5" y="-113.23" font-family="Helvetica,sans-Serif" font-size="10.00">ListDump</text>
</a>
</g>
</g>
<!-- Node2&#45;&gt;Node3 -->
<g id="edge2" class="edge">
<title>Node2&#45;&gt;Node3</title>
<path fill="none" stroke="midnightblue" d="M463.19,-146.04C499.25,-139.39 551.07,-129.83 586.83,-123.23"/>
<polygon fill="midnightblue" stroke="midnightblue" points="587.72,-126.63 596.92,-121.37 586.45,-119.74 587.72,-126.63"/>
</g>
<!-- Node2&#45;&gt;Node4 -->
<g id="edge3" class="edge">
<title>Node2&#45;&gt;Node4</title>
<path fill="none" stroke="midnightblue" d="M439.74,-144.06C456.83,-135 482.59,-121.34 502.05,-111.02"/>
<polygon fill="midnightblue" stroke="midnightblue" points="503.84,-114.03 511.03,-106.26 500.56,-107.85 503.84,-114.03"/>
</g>
<!-- Node4&#45;&gt;Node3 -->
<g id="edge4" class="edge">
<title>Node4&#45;&gt;Node3</title>
<path fill="none" stroke="midnightblue" d="M561,-102.64C569.2,-104.25 578.21,-106.03 586.89,-107.73"/>
<polygon fill="midnightblue" stroke="midnightblue" points="586.36,-111.2 596.85,-109.7 587.71,-104.33 586.36,-111.2"/>
</g>
<!-- Node5&#45;&gt;Node4 -->
<g id="edge8" class="edge">
<title>Node5&#45;&gt;Node4</title>
<path fill="none" stroke="midnightblue" d="M342.06,-66.88C385.91,-73.88 448.27,-83.84 488.69,-90.29"/>
<polygon fill="midnightblue" stroke="midnightblue" points="488.29,-93.77 498.72,-91.9 489.39,-86.86 488.29,-93.77"/>
</g>
<!-- Node6 -->
<g id="node6" class="node">
<title>Node6</title>
<g id="a_node6"><a xlink:href="list_8c.html#a5b2989c7bbbdf21204e9a6e9b92ed1dc" target="_top" xlink:title=" ">
<polygon fill="white" stroke="black" points="387.5,-30.23 387.5,-49.23 453.5,-49.23 453.5,-30.23 387.5,-30.23"/>
<text text-anchor="middle" x="420.5" y="-37.23" font-family="Helvetica,sans-Serif" font-size="10.00">ListResize</text>
</a>
</g>
</g>
<!-- Node5&#45;&gt;Node6 -->
<g id="edge6" class="edge">
<title>Node5&#45;&gt;Node6</title>
<path fill="none" stroke="midnightblue" d="M342.16,-51.17C353.84,-49.44 366.12,-47.62 377.38,-45.96"/>
<polygon fill="midnightblue" stroke="midnightblue" points="377.99,-49.41 387.37,-44.48 376.97,-42.48 377.99,-49.41"/>
</g>
<!-- Node6&#45;&gt;Node4 -->
<g id="edge7" class="edge">
<title>Node6&#45;&gt;Node4</title>
<path fill="none" stroke="midnightblue" d="M439.74,-49.4C456.83,-58.46 482.59,-72.12 502.05,-82.44"/>
<polygon fill="midnightblue" stroke="midnightblue" points="500.56,-85.61 511.03,-87.2 503.84,-79.43 500.56,-85.61"/>
</g>
<!-- Node7&#45;&gt;Node4 -->
<g id="edge11" class="edge">
<title>Node7&#45;&gt;Node4</title>
<path fill="none" stroke="midnightblue" d="M188.51,-30.22C242.51,-12.11 369.54,21.89 463,-20.73 488.74,-32.47 508.32,-59.76 519.24,-78.23"/>
<polygon fill="midnightblue" stroke="midnightblue" points="516.32,-80.19 524.27,-87.2 522.43,-76.76 516.32,-80.19"/>
</g>
<!-- Node7&#45;&gt;Node5 -->
<g id="edge10" class="edge">
<title>Node7&#45;&gt;Node5</title>
<path fill="none" stroke="midnightblue" d="M202.18,-45.69C210.3,-46.91 219.03,-48.22 227.71,-49.53"/>
<polygon fill="midnightblue" stroke="midnightblue" points="227.43,-53.02 237.84,-51.05 228.47,-46.1 227.43,-53.02"/>
</g>
</g>
</svg>
        <g id="navigator" transform="translate(0 0)" fill="#404254">
                <rect fill="#f2f5e9" fill-opacity="0.5" stroke="#606060" stroke-width=".5" x="0" y="0" width="60" height="60"/>
                <use id="zoomplus" xlink:href="#zoomPlus" x="17" y="9" onmousedown="handleZoom(evt,'in')"/>
                <use id="zoomminus" xlink:href="#zoomMin" x="42" y="9" onmousedown="handleZoom(evt,'out')"/>
                <use id="reset" xlink:href="#resetDef" x="30" y="36" onmousedown="handleReset()"/>
                <g id="arrowUp" xlink:href="#dirArrow" transform="translate(30 24)" onmousedown="handlePan(0,-1)">
                  <use xlink:href="#rim" fill="#404040">
                        <set attributeName="fill" to="#808080" begin="arrowUp.mouseover" end="arrowUp.mouseout"/>
                  </use>
                  <path fill="none" stroke="white" stroke-width="1.5" d="M0,-3.0v7 M-2.5,-0.5L0,-3.0L2.5,-0.5"/>
                </g>
                <g id="arrowRight" xlink:href="#dirArrow" transform="rotate(90) translate(36 -43)" onmousedown="handlePan(1,0)">
                  <use xlink:href="#rim" fill="#404040">
                        <set attributeName="fill" to="#808080" begin="arrowRight.mouseover" end="arrowRight.mouseout"/>
                  </use>
                  <path fill="none" stroke="white" stroke-width="1.5" d="M0,-3.0v7 M-2.5,-0.5L0,-3.0L2.5,-0.5"/>
                </g>
                <g id="arrowDown" xlink:href="#dirArrow" transform="rotate(180) translate(-30 -48)" onmousedown="handlePan(0,1)">
                  <use xlink:href="#rim" fill="#404040">
                        <set attributeName="fill" to="#808080" begin="arrowDown.mouseover" end="arrowDown.mouseout"/>
                  </use>
                  <path fill="none" stroke="white" stroke-width="1.5" d="M0,-3.0v7 M-2.5,-0.5L0,-3.0L2.5,-0.5"/>
                </g>
                <g id="arrowLeft" xlink:href="#dirArrow" transform="rotate(270) translate(-36 17)" onmousedown="handlePan(-1,0)">
                  <use xlink:href="#rim" fill="#404040">
                        <set attributeName="fill" to="#808080" begin="arrowLeft.mouseover" end="arrowLeft.mouseout"/>
                  </use>
                  <path fill="none" stroke="white" stroke-width="1.5" d="M0,-3.0v7 M-2.5,-0.5L0,-3.0L2.5,-0.5"/>
                </g>
        </g>
        <svg viewBox="0 0 15 15" width="100%" height="30px" preserveAspectRatio="xMaxYMin meet">
         <g id="arrow_out" transform="scale(0.3 0.3)">
          <a xlink:href="list_8c_ac56df94c6dff4c7d05afdaa7669409d2_cgraph_org.svg" target="_base">
           <rect id="button" ry="5" rx="5" y="6" x="6" height="38" width="38"
                fill="#f2f5e9" fill-opacity="0.5" stroke="#606060" stroke-width="1.0"/>
           <path id="arrow"
             d="M 11.500037,31.436501 C 11.940474,20.09759 22.043105,11.32322 32.158766,21.979434 L 37.068811,17.246167 C 37.068811,17.246167 37.088388,32 37.088388,32 L 22.160133,31.978069 C 22.160133,31.978069 26.997745,27.140456 26.997745,27.140456 C 18.528582,18.264221 13.291696,25.230495 11.500037,31.436501 z"
             style="fill:#404040;"/>
          </a>
         </g>
        </svg>
</svg>
