<?xml version="1.0" encoding="UTF-8" standalone="no"?>
<!DOCTYPE svg PUBLIC "-//W3C//DTD SVG 1.1//EN"
 "http://www.w3.org/Graphics/SVG/1.1/DTD/svg11.dtd">
<!-- Generated by graphviz version 2.43.0 (0)
 -->
<!-- Title: ListErase Pages: 1 -->
<!--zoomable 180 -->
<svg id="main" version="1.1" xmlns="http://www.w3.org/2000/svg" xmlns:xlink="http://www.w3.org/1999/xlink" xml:space="preserve" onload="init(evt)">
<style type="text/css"><![CDATA[
.edge:hover path { stroke: red; }
.edge:hover polygon { stroke: red; fill: red; }
]]></style>
<script type="text/javascript"><![CDATA[
var edges = document.getElementsByTagName('g');
if (edges && edges.length) {
  for (var i=0;i<edges.length;i++) {
    if (edges[i].id.substr(0,4)=='edge') {
      edges[i].setAttribute('class','edge');
    }
  }
}
]]></script>
        <defs>
                <circle id="rim" cx="0" cy="0" r="7"/>
                <circle id="rim2" cx="0" cy="0" r="3.5"/>
                <g id="zoomPlus">
                        <use xlink:href="#rim" fill="#404040">
                                <set attributeName="fill" to="#808080" begin="zoomplus.mouseover" end="zoomplus.mouseout"/>
                        </use>
                        <path d="M-4,0h8M0,-4v8" fill="none" stroke="white" stroke-width="1.5" pointer-events="none"/>
                </g>
                <g id="zoomMin">
                        <use xlink:href="#rim" fill="#404040">
                                <set attributeName="fill" to="#808080" begin="zoomminus.mouseover" end="zoomminus.mouseout"/>
                        </use>
                        <path d="M-4,0h8" fill="none" stroke="white" stroke-width="1.5" pointer-events="none"/>
                </g>
                <g id="dirArrow">
                        <path fill="none" stroke="white" stroke-width="1.5" d="M0,-3.0v7 M-2.5,-0.5L0,-3.0L2.5,-0.5"/>
                </g>
               <g id="resetDef">
                       <use xlink:href="#rim2" fill="#404040">
                               <set attributeName="fill" to="#808080" begin="reset.mouseover" end="reset.mouseout"/>
                       </use>
               </g>
        </defs>

<script type="text/javascript">
var viewWidth = 519;
var viewHeight = 180;
var sectionId = 'dynsection-12';
</script>
<script xlink:href="svgpan.js"/>
<svg id="graph" class="graph">
<g id="viewport">
<title>ListErase</title>
<polygon fill="white" stroke="transparent" points="-4,4 -4,-176 515,-176 515,4 -4,4"/>
<!-- Node1 -->
<g id="node1" class="node">
<title>Node1</title>
<g id="a_node1"><a xlink:title=" ">
<polygon fill="#bfbfbf" stroke="black" points="0,-76.5 0,-95.5 61,-95.5 61,-76.5 0,-76.5"/>
<text text-anchor="middle" x="30.5" y="-83.5" font-family="Helvetica,sans-Serif" font-size="10.00">ListErase</text>
</a>
</g>
</g>
<!-- Node2 -->
<g id="node2" class="node">
<title>Node2</title>
<g id="a_node2"><a xlink:href="list_8c.html#a6ec17c7954b7d31644964be3301cd0ad" target="_top" xlink:title=" ">
<polygon fill="white" stroke="black" points="211,-152.5 211,-171.5 313,-171.5 313,-152.5 211,-152.5"/>
<text text-anchor="middle" x="262" y="-159.5" font-family="Helvetica,sans-Serif" font-size="10.00">FindArrayNumber</text>
</a>
</g>
</g>
<!-- Node1&#45;&gt;Node2 -->
<g id="edge1" class="edge">
<title>Node1&#45;&gt;Node2</title>
<path fill="none" stroke="midnightblue" d="M40.22,-95.5C51.89,-107.55 73.81,-127.97 97,-138 129.53,-152.07 168.72,-158.15 200.64,-160.68"/>
<polygon fill="midnightblue" stroke="midnightblue" points="200.5,-164.18 210.72,-161.38 200.99,-157.2 200.5,-164.18"/>
</g>
<!-- Node3 -->
<g id="node3" class="node">
<title>Node3</title>
<g id="a_node3"><a xlink:href="list_8c.html#a262ea758423a46a6ca0ff4e722e895b5" target="_top" xlink:title=" ">
<polygon fill="white" stroke="black" points="350,-76.5 350,-95.5 412,-95.5 412,-76.5 350,-76.5"/>
<text text-anchor="middle" x="381" y="-83.5" font-family="Helvetica,sans-Serif" font-size="10.00">ListVerify</text>
</a>
</g>
</g>
<!-- Node1&#45;&gt;Node3 -->
<g id="edge12" class="edge">
<title>Node1&#45;&gt;Node3</title>
<path fill="none" stroke="midnightblue" d="M57.9,-95.5C69.69,-99.26 83.87,-103.13 97,-105 133.55,-110.19 301.3,-101.56 314,-100 322.52,-98.95 331.58,-97.36 340.16,-95.61"/>
<polygon fill="midnightblue" stroke="midnightblue" points="340.91,-99.03 349.96,-93.52 339.45,-92.19 340.91,-99.03"/>
</g>
<!-- Node5 -->
<g id="node5" class="node">
<title>Node5</title>
<g id="a_node5"><a xlink:href="list_8c.html#a957ee1a520cba2eb92b8551ac42f57e5" target="_top" xlink:title=" ">
<polygon fill="white" stroke="black" points="210,-38.5 210,-57.5 314,-57.5 314,-38.5 210,-38.5"/>
<text text-anchor="middle" x="262" y="-45.5" font-family="Helvetica,sans-Serif" font-size="10.00">ListErase_Internal</text>
</a>
</g>
</g>
<!-- Node1&#45;&gt;Node5 -->
<g id="edge4" class="edge">
<title>Node1&#45;&gt;Node5</title>
<path fill="none" stroke="midnightblue" d="M60.59,-76.43C71.86,-73.02 84.93,-69.43 97,-67 130.57,-60.23 168.54,-55.65 199.48,-52.67"/>
<polygon fill="midnightblue" stroke="midnightblue" points="200.05,-56.14 209.68,-51.73 199.4,-49.17 200.05,-56.14"/>
</g>
<!-- Node6 -->
<g id="node6" class="node">
<title>Node6</title>
<g id="a_node6"><a xlink:href="list_8c.html#ac485b4349fbeff1dc2565e7cd88a83d7" target="_top" xlink:title=" ">
<polygon fill="white" stroke="black" points="97.5,-76.5 97.5,-95.5 173.5,-95.5 173.5,-76.5 97.5,-76.5"/>
<text text-anchor="middle" x="135.5" y="-83.5" font-family="Helvetica,sans-Serif" font-size="10.00">ListPopBack</text>
</a>
</g>
</g>
<!-- Node1&#45;&gt;Node6 -->
<g id="edge6" class="edge">
<title>Node1&#45;&gt;Node6</title>
<path fill="none" stroke="midnightblue" d="M61.02,-86C69.13,-86 78.15,-86 87.01,-86"/>
<polygon fill="midnightblue" stroke="midnightblue" points="87.27,-89.5 97.27,-86 87.27,-82.5 87.27,-89.5"/>
</g>
<!-- Node7 -->
<g id="node7" class="node">
<title>Node7</title>
<g id="a_node7"><a xlink:href="list_8c.html#a9fa41f03d1f4dc775abb9d794364108a" target="_top" xlink:title=" ">
<polygon fill="white" stroke="black" points="97,-0.5 97,-19.5 174,-19.5 174,-0.5 97,-0.5"/>
<text text-anchor="middle" x="135.5" y="-7.5" font-family="Helvetica,sans-Serif" font-size="10.00">ListPopFront</text>
</a>
</g>
</g>
<!-- Node1&#45;&gt;Node7 -->
<g id="edge9" class="edge">
<title>Node1&#45;&gt;Node7</title>
<path fill="none" stroke="midnightblue" d="M42.82,-76.43C55.67,-65.71 77.39,-48.01 97,-34 101.11,-31.07 105.56,-28.07 109.92,-25.23"/>
<polygon fill="midnightblue" stroke="midnightblue" points="112.03,-28.03 118.57,-19.69 108.26,-22.13 112.03,-28.03"/>
</g>
<!-- Node2&#45;&gt;Node3 -->
<g id="edge2" class="edge">
<title>Node2&#45;&gt;Node3</title>
<path fill="none" stroke="midnightblue" d="M286.18,-152.44C295.11,-148.41 305.26,-143.4 314,-138 331.1,-127.43 348.92,-113.17 361.72,-102.26"/>
<polygon fill="midnightblue" stroke="midnightblue" points="364.09,-104.84 369.36,-95.64 359.51,-99.55 364.09,-104.84"/>
</g>
<!-- Node4 -->
<g id="node4" class="node">
<title>Node4</title>
<g id="a_node4"><a xlink:href="list_8c.html#adb5a6d3f693d0b150af95fa5a131ed0b" target="_top" xlink:title=" ">
<polygon fill="white" stroke="black" points="448,-76.5 448,-95.5 511,-95.5 511,-76.5 448,-76.5"/>
<text text-anchor="middle" x="479.5" y="-83.5" font-family="Helvetica,sans-Serif" font-size="10.00">ListDump</text>
</a>
</g>
</g>
<!-- Node3&#45;&gt;Node4 -->
<g id="edge3" class="edge">
<title>Node3&#45;&gt;Node4</title>
<path fill="none" stroke="midnightblue" d="M412,-86C420.11,-86 429.02,-86 437.6,-86"/>
<polygon fill="midnightblue" stroke="midnightblue" points="437.85,-89.5 447.85,-86 437.85,-82.5 437.85,-89.5"/>
</g>
<!-- Node5&#45;&gt;Node3 -->
<g id="edge5" class="edge">
<title>Node5&#45;&gt;Node3</title>
<path fill="none" stroke="midnightblue" d="M292.52,-57.59C307.21,-62.36 325.16,-68.19 340.97,-73.32"/>
<polygon fill="midnightblue" stroke="midnightblue" points="339.89,-76.65 350.49,-76.41 342.06,-70 339.89,-76.65"/>
</g>
<!-- Node6&#45;&gt;Node3 -->
<g id="edge8" class="edge">
<title>Node6&#45;&gt;Node3</title>
<path fill="none" stroke="midnightblue" d="M173.75,-86C218.49,-86 293.28,-86 339.44,-86"/>
<polygon fill="midnightblue" stroke="midnightblue" points="339.68,-89.5 349.68,-86 339.68,-82.5 339.68,-89.5"/>
</g>
<!-- Node6&#45;&gt;Node5 -->
<g id="edge7" class="edge">
<title>Node6&#45;&gt;Node5</title>
<path fill="none" stroke="midnightblue" d="M167.92,-76.41C183.69,-71.6 203.01,-65.7 219.94,-60.53"/>
<polygon fill="midnightblue" stroke="midnightblue" points="221.05,-63.85 229.59,-57.59 219.01,-57.16 221.05,-63.85"/>
</g>
<!-- Node7&#45;&gt;Node3 -->
<g id="edge11" class="edge">
<title>Node7&#45;&gt;Node3</title>
<path fill="none" stroke="midnightblue" d="M174.17,-7.67C211.27,-6.8 268.8,-9.38 314,-29 334.47,-37.89 353.25,-55.44 365.5,-68.73"/>
<polygon fill="midnightblue" stroke="midnightblue" points="362.99,-71.17 372.24,-76.34 368.23,-66.53 362.99,-71.17"/>
</g>
<!-- Node7&#45;&gt;Node5 -->
<g id="edge10" class="edge">
<title>Node7&#45;&gt;Node5</title>
<path fill="none" stroke="midnightblue" d="M167.92,-19.59C183.69,-24.4 203.01,-30.3 219.94,-35.47"/>
<polygon fill="midnightblue" stroke="midnightblue" points="219.01,-38.84 229.59,-38.41 221.05,-32.15 219.01,-38.84"/>
</g>
</g>
</svg>
        <g id="navigator" transform="translate(0 0)" fill="#404254">
                <rect fill="#f2f5e9" fill-opacity="0.5" stroke="#606060" stroke-width=".5" x="0" y="0" width="60" height="60"/>
                <use id="zoomplus" xlink:href="#zoomPlus" x="17" y="9" onmousedown="handleZoom(evt,'in')"/>
                <use id="zoomminus" xlink:href="#zoomMin" x="42" y="9" onmousedown="handleZoom(evt,'out')"/>
                <use id="reset" xlink:href="#resetDef" x="30" y="36" onmousedown="handleReset()"/>
                <g id="arrowUp" xlink:href="#dirArrow" transform="translate(30 24)" onmousedown="handlePan(0,-1)">
                  <use xlink:href="#rim" fill="#404040">
                        <set attributeName="fill" to="#808080" begin="arrowUp.mouseover" end="arrowUp.mouseout"/>
                  </use>
                  <path fill="none" stroke="white" stroke-width="1.5" d="M0,-3.0v7 M-2.5,-0.5L0,-3.0L2.5,-0.5"/>
                </g>
                <g id="arrowRight" xlink:href="#dirArrow" transform="rotate(90) translate(36 -43)" onmousedown="handlePan(1,0)">
                  <use xlink:href="#rim" fill="#404040">
                        <set attributeName="fill" to="#808080" begin="arrowRight.mouseover" end="arrowRight.mouseout"/>
                  </use>
                  <path fill="none" stroke="white" stroke-width="1.5" d="M0,-3.0v7 M-2.5,-0.5L0,-3.0L2.5,-0.5"/>
                </g>
                <g id="arrowDown" xlink:href="#dirArrow" transform="rotate(180) translate(-30 -48)" onmousedown="handlePan(0,1)">
                  <use xlink:href="#rim" fill="#404040">
                        <set attributeName="fill" to="#808080" begin="arrowDown.mouseover" end="arrowDown.mouseout"/>
                  </use>
                  <path fill="none" stroke="white" stroke-width="1.5" d="M0,-3.0v7 M-2.5,-0.5L0,-3.0L2.5,-0.5"/>
                </g>
                <g id="arrowLeft" xlink:href="#dirArrow" transform="rotate(270) translate(-36 17)" onmousedown="handlePan(-1,0)">
                  <use xlink:href="#rim" fill="#404040">
                        <set attributeName="fill" to="#808080" begin="arrowLeft.mouseover" end="arrowLeft.mouseout"/>
                  </use>
                  <path fill="none" stroke="white" stroke-width="1.5" d="M0,-3.0v7 M-2.5,-0.5L0,-3.0L2.5,-0.5"/>
                </g>
        </g>
        <svg viewBox="0 0 15 15" width="100%" height="30px" preserveAspectRatio="xMaxYMin meet">
         <g id="arrow_out" transform="scale(0.3 0.3)">
          <a xlink:href="list_8h_afc7cae36ee5e5e63ab16494fee08a48e_cgraph_org.svg" target="_base">
           <rect id="button" ry="5" rx="5" y="6" x="6" height="38" width="38"
                fill="#f2f5e9" fill-opacity="0.5" stroke="#606060" stroke-width="1.0"/>
           <path id="arrow"
             d="M 11.500037,31.436501 C 11.940474,20.09759 22.043105,11.32322 32.158766,21.979434 L 37.068811,17.246167 C 37.068811,17.246167 37.088388,32 37.088388,32 L 22.160133,31.978069 C 22.160133,31.978069 26.997745,27.140456 26.997745,27.140456 C 18.528582,18.264221 13.291696,25.230495 11.500037,31.436501 z"
             style="fill:#404040;"/>
          </a>
         </g>
        </svg>
</svg>
