<?xml version="1.0" encoding="UTF-8" standalone="no"?>
<!DOCTYPE svg PUBLIC "-//W3C//DTD SVG 1.1//EN"
 "http://www.w3.org/Graphics/SVG/1.1/DTD/svg11.dtd">
<!-- Generated by graphviz version 2.43.0 (0)
 -->
<!-- Title: ListErase_Internal Pages: 1 -->
<svg width="322pt" height="78pt"
 viewBox="0.00 0.00 322.00 78.33" xmlns="http://www.w3.org/2000/svg" xmlns:xlink="http://www.w3.org/1999/xlink">
<g id="graph0" class="graph" transform="scale(1 1) rotate(0) translate(4 74.33)">
<title>ListErase_Internal</title>
<polygon fill="white" stroke="transparent" points="-4,4 -4,-74.33 318,-74.33 318,4 -4,4"/>
<!-- Node1 -->
<g id="node1" class="node">
<title>Node1</title>
<g id="a_node1"><a xlink:title=" ">
<polygon fill="#bfbfbf" stroke="black" points="210,-38.5 210,-57.5 314,-57.5 314,-38.5 210,-38.5"/>
<text text-anchor="middle" x="262" y="-45.5" font-family="Helvetica,sans-Serif" font-size="10.00">ListErase_Internal</text>
</a>
</g>
</g>
<!-- Node2 -->
<g id="node2" class="node">
<title>Node2</title>
<g id="a_node2"><a xlink:href="list_8h.html#a9ed9856ba60db767e2d2b2bd7f0d0ec9" target="_top" xlink:title=" ">
<polygon fill="white" stroke="black" points="0,-38.5 0,-57.5 61,-57.5 61,-38.5 0,-38.5"/>
<text text-anchor="middle" x="30.5" y="-45.5" font-family="Helvetica,sans-Serif" font-size="10.00">ListErase</text>
</a>
</g>
</g>
<!-- Node1&#45;&gt;Node2 -->
<g id="edge1" class="edge">
<title>Node1&#45;&gt;Node2</title>
<path fill="none" stroke="midnightblue" d="M215.81,-59.8C202.45,-62.76 187.72,-65.52 174,-67 139.98,-70.67 130.88,-71.81 97,-67 83.87,-65.13 69.69,-61.26 57.9,-57.5"/>
<polygon fill="midnightblue" stroke="midnightblue" points="216.77,-63.17 225.73,-57.51 215.2,-56.35 216.77,-63.17"/>
</g>
<!-- Node3 -->
<g id="node3" class="node">
<title>Node3</title>
<g id="a_node3"><a xlink:href="list_8h.html#ac485b4349fbeff1dc2565e7cd88a83d7" target="_top" xlink:title=" ">
<polygon fill="white" stroke="black" points="97.5,-38.5 97.5,-57.5 173.5,-57.5 173.5,-38.5 97.5,-38.5"/>
<text text-anchor="middle" x="135.5" y="-45.5" font-family="Helvetica,sans-Serif" font-size="10.00">ListPopBack</text>
</a>
</g>
</g>
<!-- Node1&#45;&gt;Node3 -->
<g id="edge2" class="edge">
<title>Node1&#45;&gt;Node3</title>
<path fill="none" stroke="midnightblue" d="M199.38,-48C190.59,-48 181.79,-48 173.67,-48"/>
<polygon fill="midnightblue" stroke="midnightblue" points="199.64,-51.5 209.64,-48 199.64,-44.5 199.64,-51.5"/>
</g>
<!-- Node4 -->
<g id="node4" class="node">
<title>Node4</title>
<g id="a_node4"><a xlink:href="list_8h.html#a9fa41f03d1f4dc775abb9d794364108a" target="_top" xlink:title=" ">
<polygon fill="white" stroke="black" points="97,-0.5 97,-19.5 174,-19.5 174,-0.5 97,-0.5"/>
<text text-anchor="middle" x="135.5" y="-7.5" font-family="Helvetica,sans-Serif" font-size="10.00">ListPopFront</text>
</a>
</g>
</g>
<!-- Node1&#45;&gt;Node4 -->
<g id="edge4" class="edge">
<title>Node1&#45;&gt;Node4</title>
<path fill="none" stroke="midnightblue" d="M219.93,-35.46C202.99,-30.3 183.68,-24.4 167.91,-19.59"/>
<polygon fill="midnightblue" stroke="midnightblue" points="219,-38.84 229.58,-38.41 221.04,-32.14 219,-38.84"/>
</g>
<!-- Node3&#45;&gt;Node2 -->
<g id="edge3" class="edge">
<title>Node3&#45;&gt;Node2</title>
<path fill="none" stroke="midnightblue" d="M87.1,-48C78.28,-48 69.3,-48 61.21,-48"/>
<polygon fill="midnightblue" stroke="midnightblue" points="87.31,-51.5 97.31,-48 87.31,-44.5 87.31,-51.5"/>
</g>
<!-- Node4&#45;&gt;Node2 -->
<g id="edge5" class="edge">
<title>Node4&#45;&gt;Node2</title>
<path fill="none" stroke="midnightblue" d="M98.94,-23.12C85.32,-28.14 70.05,-33.78 57.48,-38.41"/>
<polygon fill="midnightblue" stroke="midnightblue" points="100.34,-26.33 108.51,-19.59 97.92,-19.77 100.34,-26.33"/>
</g>
</g>
</svg>
