<?xml version="1.0" encoding="UTF-8" standalone="no"?>
<!DOCTYPE svg PUBLIC "-//W3C//DTD SVG 1.1//EN"
 "http://www.w3.org/Graphics/SVG/1.1/DTD/svg11.dtd">
<!-- Generated by graphviz version 2.43.0 (0)
 -->
<!-- Title: ListGetValueIter Pages: 1 -->
<svg width="421pt" height="66pt"
 viewBox="0.00 0.00 421.00 66.00" xmlns="http://www.w3.org/2000/svg" xmlns:xlink="http://www.w3.org/1999/xlink">
<g id="graph0" class="graph" transform="scale(1 1) rotate(0) translate(4 62)">
<title>ListGetValueIter</title>
<polygon fill="white" stroke="transparent" points="-4,4 -4,-62 417,-62 417,4 -4,4"/>
<!-- Node1 -->
<g id="node1" class="node">
<title>Node1</title>
<g id="a_node1"><a xlink:title=" ">
<polygon fill="#bfbfbf" stroke="black" points="0,-19.5 0,-38.5 95,-38.5 95,-19.5 0,-19.5"/>
<text text-anchor="middle" x="47.5" y="-26.5" font-family="Helvetica,sans-Serif" font-size="10.00">ListGetValueIter</text>
</a>
</g>
</g>
<!-- Node2 -->
<g id="node2" class="node">
<title>Node2</title>
<g id="a_node2"><a xlink:href="list_8c.html#adfd8599d25d547782ffb93f50313c092" target="_top" xlink:title=" ">
<polygon fill="white" stroke="black" points="131,-38.5 131,-57.5 216,-57.5 216,-38.5 131,-38.5"/>
<text text-anchor="middle" x="173.5" y="-45.5" font-family="Helvetica,sans-Serif" font-size="10.00">isIteratorValid</text>
</a>
</g>
</g>
<!-- Node1&#45;&gt;Node2 -->
<g id="edge1" class="edge">
<title>Node1&#45;&gt;Node2</title>
<path fill="none" stroke="midnightblue" d="M95.03,-36.13C103.33,-37.4 112.03,-38.73 120.48,-40.03"/>
<polygon fill="midnightblue" stroke="midnightblue" points="120.2,-43.53 130.62,-41.58 121.26,-36.61 120.2,-43.53"/>
</g>
<!-- Node4 -->
<g id="node4" class="node">
<title>Node4</title>
<g id="a_node4"><a xlink:href="list_8c.html#a262ea758423a46a6ca0ff4e722e895b5" target="_top" xlink:title=" ">
<polygon fill="white" stroke="black" points="252,-0.5 252,-19.5 314,-19.5 314,-0.5 252,-0.5"/>
<text text-anchor="middle" x="283" y="-7.5" font-family="Helvetica,sans-Serif" font-size="10.00">ListVerify</text>
</a>
</g>
</g>
<!-- Node1&#45;&gt;Node4 -->
<g id="edge5" class="edge">
<title>Node1&#45;&gt;Node4</title>
<path fill="none" stroke="midnightblue" d="M95.19,-25.2C138.04,-21.71 200.87,-16.6 241.61,-13.29"/>
<polygon fill="midnightblue" stroke="midnightblue" points="242.04,-16.76 251.72,-12.46 241.47,-9.79 242.04,-16.76"/>
</g>
<!-- Node3 -->
<g id="node3" class="node">
<title>Node3</title>
<g id="a_node3"><a xlink:href="list_8c.html#adb5a6d3f693d0b150af95fa5a131ed0b" target="_top" xlink:title=" ">
<polygon fill="white" stroke="black" points="350,-19.5 350,-38.5 413,-38.5 413,-19.5 350,-19.5"/>
<text text-anchor="middle" x="381.5" y="-26.5" font-family="Helvetica,sans-Serif" font-size="10.00">ListDump</text>
</a>
</g>
</g>
<!-- Node2&#45;&gt;Node3 -->
<g id="edge2" class="edge">
<title>Node2&#45;&gt;Node3</title>
<path fill="none" stroke="midnightblue" d="M216.19,-44.16C252.25,-40.83 304.07,-36.05 339.83,-32.75"/>
<polygon fill="midnightblue" stroke="midnightblue" points="340.28,-36.22 349.92,-31.82 339.64,-29.25 340.28,-36.22"/>
</g>
<!-- Node2&#45;&gt;Node4 -->
<g id="edge3" class="edge">
<title>Node2&#45;&gt;Node4</title>
<path fill="none" stroke="midnightblue" d="M201.63,-38.41C214.87,-33.73 230.99,-28.03 245.31,-22.97"/>
<polygon fill="midnightblue" stroke="midnightblue" points="246.62,-26.22 254.88,-19.59 244.29,-19.62 246.62,-26.22"/>
</g>
<!-- Node4&#45;&gt;Node3 -->
<g id="edge4" class="edge">
<title>Node4&#45;&gt;Node3</title>
<path fill="none" stroke="midnightblue" d="M314,-15.91C322.2,-17.52 331.21,-19.3 339.89,-21"/>
<polygon fill="midnightblue" stroke="midnightblue" points="339.36,-24.47 349.85,-22.97 340.71,-17.6 339.36,-24.47"/>
</g>
</g>
</svg>
