<?xml version="1.0" encoding="UTF-8" standalone="no"?>
<!DOCTYPE svg PUBLIC "-//W3C//DTD SVG 1.1//EN"
 "http://www.w3.org/Graphics/SVG/1.1/DTD/svg11.dtd">
<!-- Generated by graphviz version 2.43.0 (0)
 -->
<!-- Title: ListInsertBefore Pages: 1 -->
<svg width="678pt" height="172pt"
 viewBox="0.00 0.00 678.00 171.77" xmlns="http://www.w3.org/2000/svg" xmlns:xlink="http://www.w3.org/1999/xlink">
<g id="graph0" class="graph" transform="scale(1 1) rotate(0) translate(4 167.77)">
<title>ListInsertBefore</title>
<polygon fill="white" stroke="transparent" points="-4,4 -4,-167.77 674,-167.77 674,4 -4,4"/>
<!-- Node1 -->
<g id="node1" class="node">
<title>Node1</title>
<g id="a_node1"><a xlink:title=" ">
<polygon fill="#bfbfbf" stroke="black" points="0,-87.27 0,-106.27 94,-106.27 94,-87.27 0,-87.27"/>
<text text-anchor="middle" x="47" y="-94.27" font-family="Helvetica,sans-Serif" font-size="10.00">ListInsertBefore</text>
</a>
</g>
</g>
<!-- Node2 -->
<g id="node2" class="node">
<title>Node2</title>
<g id="a_node2"><a xlink:href="list_8c.html#adfd8599d25d547782ffb93f50313c092" target="_top" xlink:title=" ">
<polygon fill="white" stroke="black" points="388,-144.27 388,-163.27 473,-163.27 473,-144.27 388,-144.27"/>
<text text-anchor="middle" x="430.5" y="-151.27" font-family="Helvetica,sans-Serif" font-size="10.00">isIteratorValid</text>
</a>
</g>
</g>
<!-- Node1&#45;&gt;Node2 -->
<g id="edge1" class="edge">
<title>Node1&#45;&gt;Node2</title>
<path fill="none" stroke="midnightblue" d="M67.01,-106.34C83.29,-114.07 107.59,-124.49 130,-129.77 215.2,-149.83 317.38,-153.91 377.68,-154.33"/>
<polygon fill="midnightblue" stroke="midnightblue" points="377.7,-157.83 387.71,-154.37 377.72,-150.83 377.7,-157.83"/>
</g>
<!-- Node4 -->
<g id="node4" class="node">
<title>Node4</title>
<g id="a_node4"><a xlink:href="list_8c.html#a262ea758423a46a6ca0ff4e722e895b5" target="_top" xlink:title=" ">
<polygon fill="white" stroke="black" points="509,-87.27 509,-106.27 571,-106.27 571,-87.27 509,-87.27"/>
<text text-anchor="middle" x="540" y="-94.27" font-family="Helvetica,sans-Serif" font-size="10.00">ListVerify</text>
</a>
</g>
</g>
<!-- Node1&#45;&gt;Node4 -->
<g id="edge12" class="edge">
<title>Node1&#45;&gt;Node4</title>
<path fill="none" stroke="midnightblue" d="M94.19,-96.77C189.83,-96.77 408.15,-96.77 498.6,-96.77"/>
<polygon fill="midnightblue" stroke="midnightblue" points="498.72,-100.27 508.72,-96.77 498.72,-93.27 498.72,-100.27"/>
</g>
<!-- Node5 -->
<g id="node5" class="node">
<title>Node5</title>
<g id="a_node5"><a xlink:href="list_8c.html#a2f513993aacfccc7af38c69434589a40" target="_top" xlink:title=" ">
<polygon fill="white" stroke="black" points="248,-49.27 248,-68.27 352,-68.27 352,-49.27 248,-49.27"/>
<text text-anchor="middle" x="300" y="-56.27" font-family="Helvetica,sans-Serif" font-size="10.00">ListInsert_Internal</text>
</a>
</g>
</g>
<!-- Node1&#45;&gt;Node5 -->
<g id="edge5" class="edge">
<title>Node1&#45;&gt;Node5</title>
<path fill="none" stroke="midnightblue" d="M94.04,-89.8C134.35,-83.7 193.23,-74.78 237.56,-68.07"/>
<polygon fill="midnightblue" stroke="midnightblue" points="238.27,-71.5 247.63,-66.55 237.22,-64.58 238.27,-71.5"/>
</g>
<!-- Node7 -->
<g id="node7" class="node">
<title>Node7</title>
<g id="a_node7"><a xlink:href="list_8c.html#afe4e636b84899e781aae6af9456fd88d" target="_top" xlink:title=" ">
<polygon fill="white" stroke="black" points="130,-30.27 130,-49.27 212,-49.27 212,-30.27 130,-30.27"/>
<text text-anchor="middle" x="171" y="-37.27" font-family="Helvetica,sans-Serif" font-size="10.00">ListPushFront</text>
</a>
</g>
</g>
<!-- Node1&#45;&gt;Node7 -->
<g id="edge9" class="edge">
<title>Node1&#45;&gt;Node7</title>
<path fill="none" stroke="midnightblue" d="M68.42,-87.23C88.04,-78.06 117.9,-64.11 140.18,-53.7"/>
<polygon fill="midnightblue" stroke="midnightblue" points="141.93,-56.75 149.51,-49.34 138.97,-50.4 141.93,-56.75"/>
</g>
<!-- Node3 -->
<g id="node3" class="node">
<title>Node3</title>
<g id="a_node3"><a xlink:href="list_8c.html#adb5a6d3f693d0b150af95fa5a131ed0b" target="_top" xlink:title=" ">
<polygon fill="white" stroke="black" points="607,-106.27 607,-125.27 670,-125.27 670,-106.27 607,-106.27"/>
<text text-anchor="middle" x="638.5" y="-113.27" font-family="Helvetica,sans-Serif" font-size="10.00">ListDump</text>
</a>
</g>
</g>
<!-- Node2&#45;&gt;Node3 -->
<g id="edge2" class="edge">
<title>Node2&#45;&gt;Node3</title>
<path fill="none" stroke="midnightblue" d="M473.19,-146.08C509.25,-139.43 561.07,-129.87 596.83,-123.27"/>
<polygon fill="midnightblue" stroke="midnightblue" points="597.72,-126.67 606.92,-121.41 596.45,-119.78 597.72,-126.67"/>
</g>
<!-- Node2&#45;&gt;Node4 -->
<g id="edge3" class="edge">
<title>Node2&#45;&gt;Node4</title>
<path fill="none" stroke="midnightblue" d="M449.74,-144.1C466.83,-135.04 492.59,-121.38 512.05,-111.06"/>
<polygon fill="midnightblue" stroke="midnightblue" points="513.84,-114.07 521.03,-106.3 510.56,-107.89 513.84,-114.07"/>
</g>
<!-- Node4&#45;&gt;Node3 -->
<g id="edge4" class="edge">
<title>Node4&#45;&gt;Node3</title>
<path fill="none" stroke="midnightblue" d="M571,-102.68C579.2,-104.29 588.21,-106.07 596.89,-107.77"/>
<polygon fill="midnightblue" stroke="midnightblue" points="596.36,-111.24 606.85,-109.74 597.71,-104.37 596.36,-111.24"/>
</g>
<!-- Node5&#45;&gt;Node4 -->
<g id="edge8" class="edge">
<title>Node5&#45;&gt;Node4</title>
<path fill="none" stroke="midnightblue" d="M352.06,-66.92C395.91,-73.92 458.27,-83.88 498.69,-90.33"/>
<polygon fill="midnightblue" stroke="midnightblue" points="498.29,-93.81 508.72,-91.93 499.39,-86.9 498.29,-93.81"/>
</g>
<!-- Node6 -->
<g id="node6" class="node">
<title>Node6</title>
<g id="a_node6"><a xlink:href="list_8c.html#a5b2989c7bbbdf21204e9a6e9b92ed1dc" target="_top" xlink:title=" ">
<polygon fill="white" stroke="black" points="397.5,-30.27 397.5,-49.27 463.5,-49.27 463.5,-30.27 397.5,-30.27"/>
<text text-anchor="middle" x="430.5" y="-37.27" font-family="Helvetica,sans-Serif" font-size="10.00">ListResize</text>
</a>
</g>
</g>
<!-- Node5&#45;&gt;Node6 -->
<g id="edge6" class="edge">
<title>Node5&#45;&gt;Node6</title>
<path fill="none" stroke="midnightblue" d="M352.16,-51.21C363.84,-49.48 376.12,-47.66 387.38,-46"/>
<polygon fill="midnightblue" stroke="midnightblue" points="387.99,-49.45 397.37,-44.52 386.97,-42.52 387.99,-49.45"/>
</g>
<!-- Node6&#45;&gt;Node4 -->
<g id="edge7" class="edge">
<title>Node6&#45;&gt;Node4</title>
<path fill="none" stroke="midnightblue" d="M449.74,-49.44C466.83,-58.5 492.59,-72.16 512.05,-82.48"/>
<polygon fill="midnightblue" stroke="midnightblue" points="510.56,-85.65 521.03,-87.24 513.84,-79.47 510.56,-85.65"/>
</g>
<!-- Node7&#45;&gt;Node4 -->
<g id="edge11" class="edge">
<title>Node7&#45;&gt;Node4</title>
<path fill="none" stroke="midnightblue" d="M198.05,-30.25C252.14,-12.12 379.39,21.92 473,-20.77 498.74,-32.51 518.32,-59.8 529.24,-78.27"/>
<polygon fill="midnightblue" stroke="midnightblue" points="526.32,-80.23 534.27,-87.24 532.43,-76.8 526.32,-80.23"/>
</g>
<!-- Node7&#45;&gt;Node5 -->
<g id="edge10" class="edge">
<title>Node7&#45;&gt;Node5</title>
<path fill="none" stroke="midnightblue" d="M212.18,-45.78C220.33,-47 229.07,-48.31 237.76,-49.61"/>
<polygon fill="midnightblue" stroke="midnightblue" points="237.49,-53.11 247.89,-51.12 238.52,-46.18 237.49,-53.11"/>
</g>
</g>
</svg>
